<?xml version="1.0" encoding="UTF-8" standalone="no"?>
<!-- Created with Inkscape (http://www.inkscape.org/) -->

<svg
   xmlns:dc="http://purl.org/dc/elements/1.1/"
   xmlns:cc="http://creativecommons.org/ns#"
   xmlns:rdf="http://www.w3.org/1999/02/22-rdf-syntax-ns#"
   xmlns:svg="http://www.w3.org/2000/svg"
   xmlns="http://www.w3.org/2000/svg"
   xmlns:sodipodi="http://sodipodi.sourceforge.net/DTD/sodipodi-0.dtd"
   xmlns:inkscape="http://www.inkscape.org/namespaces/inkscape"
   width="100mm"
   height="100mm"
   viewBox="0 0 100 100"
   version="1.1"
   id="svg8"
   inkscape:version="0.92.3 (2405546, 2018-03-11)"
   sodipodi:docname="nextButton.svg">
  <defs
     id="defs2" />
  <sodipodi:namedview
     id="base"
     pagecolor="#ebebeb"
     bordercolor="#666666"
     borderopacity="1.0"
     inkscape:pageopacity="0"
     inkscape:pageshadow="2"
     inkscape:zoom="0.7"
     inkscape:cx="-84.122086"
     inkscape:cy="192.44627"
     inkscape:document-units="mm"
     inkscape:current-layer="layer1"
     showgrid="false"
     inkscape:window-width="1920"
     inkscape:window-height="1017"
     inkscape:window-x="-8"
     inkscape:window-y="-8"
     inkscape:window-maximized="1"
     fit-margin-top="0"
     fit-margin-left="0"
     fit-margin-right="0"
     fit-margin-bottom="0"
     inkscape:snap-global="false" />
  <metadata
     id="metadata5">
    <rdf:RDF>
      <cc:Work
         rdf:about="">
        <dc:format>image/svg+xml</dc:format>
        <dc:type
           rdf:resource="http://purl.org/dc/dcmitype/StillImage" />
        <dc:title></dc:title>
      </cc:Work>
    </rdf:RDF>
  </metadata>
  <g
     inkscape:label="svg"
     inkscape:groupmode="layer"
     id="layer1"
     style="display:inline"
     transform="translate(274.70366,-133.30423)">
    <g
       id="g68">
      <g
         id="g72">
        <circle
           style="fill:#ffffff;fill-opacity:1;stroke:none;stroke-width:0.13229166"
           id="path1439"
           cx="-224.70366"
           cy="183.30423"
           r="50" />
      </g>
    </g>
    <path
       style="fill:#48bcda;stroke-width:0.13275167"
       d="m -223.05352,154.15562 c 0.79,0.44106 39.71106,28.09696 39.93013,28.37291 0.34529,0.43493 0.41301,0.94661 0.18391,1.38964 -0.145,0.28039 -5.84567,4.39274 -19.95436,14.39469 -10.86326,7.70118 -19.88185,14.07023 -20.04134,14.15346 -0.40269,0.21013 -1.12372,0.18905 -1.45434,-0.0426 -0.55366,-0.38779 -0.58291,-0.69839 -0.68229,-7.24392 l -0.0957,-6.30203 -20.24462,-0.0664 c -21.22295,-0.0696 -20.71726,-0.0543 -20.89626,-0.63044 -0.10499,-0.33786 -0.36958,-28.5546 -0.27194,-28.99915 0.0453,-0.20598 0.21182,-0.44869 0.37016,-0.53935 0.22442,-0.12848 4.75207,-0.17947 20.53253,-0.23121 l 20.24463,-0.0664 0.0956,-6.37208 c 0.10112,-6.74178 0.13941,-7.13136 0.75561,-7.68901 0.3575,-0.32353 1.07122,-0.38341 1.52829,-0.12822 z"
       id="path37"
       inkscape:connector-curvature="0" />
  </g>
</svg>
