<?xml version="1.0" encoding="UTF-8" standalone="no"?>
<!-- Created with Inkscape (http://www.inkscape.org/) -->

<svg
   xmlns:dc="http://purl.org/dc/elements/1.1/"
   xmlns:cc="http://creativecommons.org/ns#"
   xmlns:rdf="http://www.w3.org/1999/02/22-rdf-syntax-ns#"
   xmlns:svg="http://www.w3.org/2000/svg"
   xmlns="http://www.w3.org/2000/svg"
   xmlns:sodipodi="http://sodipodi.sourceforge.net/DTD/sodipodi-0.dtd"
   xmlns:inkscape="http://www.inkscape.org/namespaces/inkscape"
   width="100mm"
   height="100mm"
   viewBox="0 0 100 100"
   version="1.1"
   id="svg8"
   inkscape:version="0.92.3 (2405546, 2018-03-11)"
   sodipodi:docname="restartButton.svg">
  <defs
     id="defs2" />
  <sodipodi:namedview
     id="base"
     pagecolor="#ebebeb"
     bordercolor="#666666"
     borderopacity="1.0"
     inkscape:pageopacity="0"
     inkscape:pageshadow="2"
     inkscape:zoom="0.49497475"
     inkscape:cx="-610.46258"
     inkscape:cy="-152.83194"
     inkscape:document-units="mm"
     inkscape:current-layer="layer1"
     showgrid="false"
     inkscape:window-width="1920"
     inkscape:window-height="1017"
     inkscape:window-x="-8"
     inkscape:window-y="-8"
     inkscape:window-maximized="1"
     fit-margin-top="0"
     fit-margin-left="0"
     fit-margin-right="0"
     fit-margin-bottom="0"
     inkscape:snap-global="false" />
  <metadata
     id="metadata5">
    <rdf:RDF>
      <cc:Work
         rdf:about="">
        <dc:format>image/svg+xml</dc:format>
        <dc:type
           rdf:resource="http://purl.org/dc/dcmitype/StillImage" />
        <dc:title></dc:title>
      </cc:Work>
    </rdf:RDF>
  </metadata>
  <g
     inkscape:label="svg"
     inkscape:groupmode="layer"
     id="layer1"
     style="display:inline"
     transform="translate(274.70366,-133.30423)">
    <g
       id="g68">
      <g
         id="g72">
        <circle
           style="fill:#ffffff;fill-opacity:1;stroke:none;stroke-width:0.13229166"
           id="path1439"
           cx="-224.70366"
           cy="183.30423"
           r="50" />
      </g>
    </g>
    <path
       style="fill:#48bcda;stroke-width:0.14472403"
       d="m -220.53798,222.57135 c -0.22896,-0.22894 -0.084,-14.61269 0.14954,-14.83826 0.0904,-0.0873 0.75043,-0.23283 1.46681,-0.32345 7.99133,-1.01078 15.3179,-6.63238 18.51626,-14.20734 1.4124,-3.34511 1.8735,-5.67817 1.8735,-9.47943 0,-3.80126 -0.4611,-6.13432 -1.8735,-9.47942 -1.62682,-3.85294 -4.61998,-7.58927 -8.02919,-10.02277 -1.53818,-1.09796 -4.553,-2.64625 -6.27132,-3.22071 -5.67289,-1.89654 -11.45908,-1.52016 -17.01976,1.10714 -3.8319,1.81048 -7.1787,4.71867 -9.59945,8.34141 -1.04741,1.56749 -1.90959,3.2544 -1.80399,3.52961 0.0736,0.19193 0.76554,0.21048 5.59391,0.14995 4.87972,-0.0612 5.51969,-0.0435 5.59576,0.15478 0.10518,0.27408 -15.38061,20.60559 -18.79195,24.67222 -0.55087,0.65668 -1.07594,1.19397 -1.16683,1.19397 -0.22341,-10e-6 0.23566,0.60311 -10.07706,-13.23903 -5.03939,-6.76407 -9.16911,-12.39745 -9.17715,-12.51862 -0.0129,-0.1939 0.69157,-0.22031 5.87492,-0.22031 3.74332,0 5.93684,-0.0527 6.01935,-0.14473 0.0714,-0.0796 0.24783,-0.6006 0.39205,-1.15779 0.93306,-3.60476 3.1373,-8.53142 5.21038,-11.64561 6.37182,-9.57175 16.0137,-15.61829 27.28078,-17.10809 0.75619,-0.1 2.77509,-0.1818 4.48645,-0.1818 4.47672,0 7.63452,0.48795 11.55379,1.78531 8.41636,2.786 15.22171,8.006 20.21343,15.50458 1.38566,2.08153 3.49292,6.32598 4.27288,8.60641 3.06928,8.97397 3.06928,17.94469 0,26.91867 -0.77996,2.28042 -2.88722,6.52486 -4.27288,8.6064 -3.49148,5.24492 -7.89072,9.38312 -13.2017,12.41836 -4.23748,2.42173 -9.45437,4.15364 -14.00671,4.64995 -2.72812,0.29742 -3.04484,0.3121 -3.20832,0.1486 z"
       id="path26"
       inkscape:connector-curvature="0" />
  </g>
</svg>
