<?xml version="1.0" encoding="UTF-8" standalone="no"?>
<!-- Created with Inkscape (http://www.inkscape.org/) -->

<svg
   xmlns:dc="http://purl.org/dc/elements/1.1/"
   xmlns:cc="http://creativecommons.org/ns#"
   xmlns:rdf="http://www.w3.org/1999/02/22-rdf-syntax-ns#"
   xmlns:svg="http://www.w3.org/2000/svg"
   xmlns="http://www.w3.org/2000/svg"
   xmlns:sodipodi="http://sodipodi.sourceforge.net/DTD/sodipodi-0.dtd"
   xmlns:inkscape="http://www.inkscape.org/namespaces/inkscape"
   width="100mm"
   height="100mm"
   viewBox="0 0 100 100"
   version="1.1"
   id="svg8"
   inkscape:version="0.92.3 (2405546, 2018-03-11)"
   sodipodi:docname="BackgroundCat.svg">
  <defs
     id="defs2" />
  <sodipodi:namedview
     id="base"
     pagecolor="#ebebeb"
     bordercolor="#666666"
     borderopacity="1.0"
     inkscape:pageopacity="0"
     inkscape:pageshadow="2"
     inkscape:zoom="1.979899"
     inkscape:cx="-28.090691"
     inkscape:cy="164.57035"
     inkscape:document-units="mm"
     inkscape:current-layer="layer1"
     showgrid="false"
     inkscape:window-width="1920"
     inkscape:window-height="1017"
     inkscape:window-x="-8"
     inkscape:window-y="-8"
     inkscape:window-maximized="1"
     fit-margin-top="0"
     fit-margin-left="0"
     fit-margin-right="0"
     fit-margin-bottom="0"
     inkscape:snap-global="false" />
  <metadata
     id="metadata5">
    <rdf:RDF>
      <cc:Work
         rdf:about="">
        <dc:format>image/svg+xml</dc:format>
        <dc:type
           rdf:resource="http://purl.org/dc/dcmitype/StillImage" />
        <dc:title />
      </cc:Work>
    </rdf:RDF>
  </metadata>
  <g
     inkscape:label="svg"
     inkscape:groupmode="layer"
     id="layer1"
     style="display:inline"
     transform="translate(274.70366,-133.30423)">
    <path
       style="fill:#ffffff;stroke-width:0.5213027"
       d="M 131.5957 61.412109 C 128.96468 61.307336 125.91827 63.079793 121.20703 67.222656 C 112.54409 74.840445 102.95774 85.848162 97.314453 94.658203 C 85.172872 113.6131 76.435245 139.21208 73.169922 165.38867 C 72.214835 173.04376 72.35068 192.14049 73.416016 199.88281 C 74.454705 207.43057 74.470452 207.875 73.677734 207.875 C 73.340789 207.875 62.834255 205.29449 50.332031 202.14062 C 37.829845 198.98673 26.733797 196.40625 25.673828 196.40625 C 21.89551 196.40625 20.950851 200.83503 24.388672 202.42969 C 25.312993 202.8584 37.171983 206.01437 50.742188 209.44531 C 64.312429 212.87622 75.616415 215.80743 75.861328 215.95898 C 76.106393 216.11043 76.684702 217.57936 77.146484 219.22266 C 77.608305 220.86599 78.836348 224.85697 79.875 228.0918 C 81.01672 231.64822 81.57429 234.15876 81.285156 234.44336 C 81.022026 234.70211 69.545559 235.40123 55.783203 235.99609 C 42.020809 236.59095 29.727962 237.25048 28.464844 237.46289 C 24.188308 238.18172 22.910606 242.44581 26.556641 243.83203 C 27.391123 244.14932 37.712839 243.8623 56.101562 243.01172 C 79.297733 241.93875 84.477027 241.82755 85 242.38477 C 86.314595 243.78535 92.123896 255.93327 91.685547 256.36523 C 91.43606 256.61113 81.761396 261.39413 70.1875 266.99414 C 58.613604 272.59419 48.828808 277.59286 48.441406 278.10352 C 48.053816 278.61417 47.730089 279.54367 47.71875 280.16797 C 47.701062 281.37772 49.927856 283.46289 51.236328 283.46289 C 51.668819 283.46289 61.755537 278.77145 73.650391 273.03711 C 85.545205 267.30277 95.565717 262.61133 95.917969 262.61133 C 96.270296 262.61133 97.376285 263.84238 98.376953 265.34766 C 101.34486 269.81215 106.17867 275.6745 111.37695 281.11328 C 130.12817 300.73202 155.26933 313.66975 179.62109 316.23242 C 187.70751 317.08342 202.09925 316.13564 211.08398 314.16016 C 238.93608 308.03634 264.4649 290.08118 282.3418 264.04492 C 284.06435 261.53615 285.81137 259.48438 286.22266 259.48438 C 286.63394 259.48438 295.74043 263.70632 306.45898 268.86719 C 317.1775 274.02809 326.29684 278.25 326.72461 278.25 C 328.02598 278.25 330.25132 276.16116 330.23242 274.95508 C 330.22331 274.33078 329.89722 273.40013 329.50781 272.88672 C 329.11841 272.37331 320.27074 267.83633 309.8457 262.80469 C 299.42067 257.77304 290.57232 253.3496 290.18359 252.97656 C 289.59119 252.40778 289.69078 251.93189 290.79297 250.02734 C 291.51618 248.77768 293.09257 245.52653 294.29688 242.80273 C 295.50114 240.07894 296.75113 237.58039 297.07617 237.25195 C 297.51981 236.80366 304.19823 236.96056 323.89648 237.87891 C 340.30534 238.64245 350.58897 238.92528 351.36328 238.63086 C 353.87311 237.67668 354.22864 235.0447 352.10742 233.125 C 351.16073 232.26829 348.53513 232.05739 325.74609 231.00781 C 311.82492 230.36665 300.30119 229.70938 300.13867 229.54688 C 299.97611 229.38432 300.57739 226.61127 301.47461 223.38477 C 302.37183 220.15826 303.49214 215.94119 303.96484 214.01367 C 304.43759 212.08615 305.0906 210.29393 305.41602 210.03125 C 305.74155 209.76854 316.44814 206.92027 329.20703 203.70117 C 341.96592 200.48207 353.04575 197.5191 353.83008 197.11719 C 357.00934 195.48814 355.87079 191.18971 352.26172 191.19727 C 351.19313 191.19908 340.58724 193.6512 328.69141 196.64844 C 316.79557 199.64568 306.87716 201.91389 306.65039 201.6875 C 306.424 201.46092 306.47857 199.18249 306.77148 196.625 C 307.56443 189.70219 307.43016 172.64506 306.52148 164.86328 C 302.84994 133.4212 290.72407 103.22446 273.55273 82.761719 C 268.14223 76.314147 255.40023 63.944492 252.99414 62.802734 C 250.38487 61.564712 246.80248 61.640461 245.11133 62.970703 C 244.36941 63.5543 235.63218 73.753216 225.69531 85.634766 C 209.59418 104.88681 207.43233 107.27457 205.82422 107.57617 C 203.52929 108.00674 173.86239 107.52919 172.81641 107.04492 C 172.38633 106.84578 163.82416 96.822999 153.78906 84.771484 C 143.754 72.720046 134.909 62.529523 134.13477 62.125 C 133.3041 61.690997 132.47271 61.447034 131.5957 61.412109 z M 240.61133 177.37109 C 242.92855 177.39609 245.24626 177.81401 246.91602 178.61914 C 253.6655 181.87365 257.28286 189.38217 255.48438 196.40234 C 254.0299 202.07969 250.33252 206.04084 244.98438 207.65039 C 238.94673 209.46744 232.92027 207.711 228.6875 202.90234 C 225.87704 199.70951 224.74357 196.23002 225.06445 191.77539 C 225.49868 185.75086 228.7881 181.01832 234.30273 178.48438 C 235.97655 177.71534 238.2941 177.3461 240.61133 177.37109 z M 134.92188 179.19727 C 140.68004 179.25691 146.26699 182.53384 149.01758 188.52344 C 150.66897 192.11962 150.53496 197.87004 148.71875 201.35938 C 147.00481 204.65213 144.03441 207.53352 141.01562 208.83398 C 134.5359 211.62535 127.98464 210.14634 123.18555 204.80859 C 117.75796 198.77178 117.99661 189.26899 123.71484 183.75391 C 126.96155 180.62257 130.98207 179.15646 134.92188 179.19727 z "
       transform="matrix(0.26458333,0,0,0.26458333,-274.70366,133.30423)"
       id="path51" />
  </g>
</svg>
