<?xml version="1.0" encoding="UTF-8" standalone="no"?>
<!-- Created with Inkscape (http://www.inkscape.org/) -->

<svg
   xmlns:dc="http://purl.org/dc/elements/1.1/"
   xmlns:cc="http://creativecommons.org/ns#"
   xmlns:rdf="http://www.w3.org/1999/02/22-rdf-syntax-ns#"
   xmlns:svg="http://www.w3.org/2000/svg"
   xmlns="http://www.w3.org/2000/svg"
   xmlns:sodipodi="http://sodipodi.sourceforge.net/DTD/sodipodi-0.dtd"
   xmlns:inkscape="http://www.inkscape.org/namespaces/inkscape"
   width="100mm"
   height="100mm"
   viewBox="0 0 100 100"
   version="1.1"
   id="svg8"
   inkscape:version="0.92.3 (2405546, 2018-03-11)"
   sodipodi:docname="BackgroundBagel.svg">
  <defs
     id="defs2" />
  <sodipodi:namedview
     id="base"
     pagecolor="#ebebeb"
     bordercolor="#666666"
     borderopacity="1.0"
     inkscape:pageopacity="0"
     inkscape:pageshadow="2"
     inkscape:zoom="1.4"
     inkscape:cx="181.40458"
     inkscape:cy="169.74843"
     inkscape:document-units="mm"
     inkscape:current-layer="layer1"
     showgrid="false"
     inkscape:window-width="1920"
     inkscape:window-height="1017"
     inkscape:window-x="-8"
     inkscape:window-y="-8"
     inkscape:window-maximized="1"
     fit-margin-top="0"
     fit-margin-left="0"
     fit-margin-right="0"
     fit-margin-bottom="0"
     inkscape:snap-global="false" />
  <metadata
     id="metadata5">
    <rdf:RDF>
      <cc:Work
         rdf:about="">
        <dc:format>image/svg+xml</dc:format>
        <dc:type
           rdf:resource="http://purl.org/dc/dcmitype/StillImage" />
        <dc:title />
      </cc:Work>
    </rdf:RDF>
  </metadata>
  <g
     inkscape:label="svg"
     inkscape:groupmode="layer"
     id="layer1"
     style="display:inline"
     transform="translate(274.70366,-133.30423)">
    <path
       style="fill:#ffffff;stroke-width:0.49869853"
       d="M 188.97656 47.244141 C 182.17267 47.244141 175.36849 47.537933 171 48.126953 C 130.81372 53.545511 95.888612 74.677898 72.640625 107.63867 C 68.619812 113.33933 63.142578 122.45327 63.142578 123.44336 C 63.142578 123.83983 63.719432 123.93778 64.925781 123.74805 C 67.09164 123.40717 68.716417 124.58952 68.705078 126.5 C 68.701488 127.20095 68.111633 129.54226 67.392578 131.70312 C 66.583684 134.13431 66.054615 136.91065 66.005859 138.98633 C 65.932839 142.09707 66.030151 142.42719 67.347656 143.5293 C 69.237496 145.11027 72.471079 145.14694 74.794922 143.61328 C 75.715842 143.0055 77.28924 141.18775 78.292969 139.57227 C 80.518355 135.99063 82.189558 135.17803 84.257812 136.67578 C 85.267664 137.40704 85.834475 138.50126 86.431641 140.87695 C 87.415263 144.79035 88.548349 146.55907 90.611328 147.40039 C 93.476588 148.56891 96.127078 147.2604 97.652344 143.92383 C 98.784463 141.44737 99.699362 140.66602 101.4707 140.66602 C 103.56146 140.66602 104.66092 142.36753 104.68359 145.63281 C 104.69346 147.15611 105.02581 148.95557 105.42383 149.63086 C 107.71959 153.52608 104.00441 156.74191 100.39258 153.98633 C 99.062984 152.97187 98.946419 152.96606 96.46875 153.74219 C 91.289399 155.36459 87.320331 154.23883 83.285156 150.00391 C 81.031991 147.63917 80.835976 147.53908 79.972656 148.29688 C 76.470962 151.37034 69.605238 152.13169 65.048828 149.95117 C 59.63439 147.36 57.924511 141.91904 59.851562 133.42188 C 60.776375 129.3449 60.775404 129.04782 59.84375 130.33789 C 58.602553 132.05667 54.676834 142.31404 52.78125 148.79102 C 48.661678 162.86722 47.244141 173.13743 47.244141 188.92188 C 47.244141 201.39684 47.823776 207.51469 50.013672 218.14453 C 55.620412 245.36019 70.145644 271.47667 90.634766 291.18555 C 112.95696 312.65769 143.02319 326.81087 172.77344 329.84961 C 175.5585 330.13406 178.6346 330.45844 179.60938 330.57031 C 183.31636 330.99619 201.88456 330.37148 207.45898 329.63281 C 247.6823 324.3027 283.16784 302.4029 306.41016 268.56445 C 316.58139 253.75611 324.35204 235.55799 327.93945 218.14453 C 330.12935 207.51469 330.70898 201.39684 330.70898 188.92188 C 330.70898 173.09045 329.29721 162.89291 325.13281 148.64844 C 323.16988 141.93403 317.82567 128.43555 316.42773 126.66016 C 315.57398 125.57577 315.55353 125.64794 315.74023 129.23438 C 315.93016 132.88229 315.91449 132.94186 314.19727 134.60742 C 312.10828 136.63344 309.4178 137.26693 306.47461 136.42383 C 303.18699 135.48212 303.08478 135.51776 301.61719 138.08984 C 300.84654 139.44046 299.37714 141.20721 298.35156 142.01758 C 296.69156 143.32945 296.10365 143.49282 293.00977 143.51172 L 289.53516 143.53125 L 288.03516 145.54102 C 285.9416 148.34414 281.1919 150.61328 277.41797 150.61328 C 272.18771 150.61328 268.24727 147.70444 266.16211 142.30273 C 264.88535 138.99519 265.04778 137.48405 266.81641 136.20898 C 268.76936 134.80103 270.48834 135.65118 271.86719 138.70508 C 274.19315 143.85665 276.00005 144.93493 279.81836 143.45312 C 282.67504 142.34464 283.49699 140.71852 283.09375 136.97656 C 282.79834 134.23535 282.85674 134.02495 284.17969 133.01562 C 286.28163 131.41217 287.40057 131.67824 289.99805 134.4043 C 293.05965 137.61754 294.25053 137.65256 295.65625 134.57031 C 296.93819 131.75944 296.66783 128.39994 294.79492 123.85938 C 293.2771 120.17997 293.23079 118.99113 294.55469 117.70703 C 296.84591 115.48474 299.44559 117.18769 301.42383 122.20898 C 302.84357 125.81261 305.4842 129.20719 307.30469 129.76758 C 309.07143 130.31145 309.36168 129.33597 308.24805 126.5957 C 306.58048 122.49227 307.88626 120.23184 311.58789 120.81445 C 312.52446 120.96185 313.29102 120.89505 313.29102 120.66602 C 313.29102 119.87016 309.08448 113.00862 305.30469 107.63867 C 282.13652 74.723894 247.13786 53.545284 206.95312 48.126953 C 202.58477 47.537933 195.78045 47.244141 188.97656 47.244141 z M 162.87891 62.242188 C 163.73341 62.203622 164.58913 62.443505 165.14062 62.978516 C 165.57845 63.403032 165.93555 64.418892 165.93555 65.236328 C 165.93555 67.107912 162.12961 79.6988 161.10547 81.214844 C 159.48692 83.610724 155.28409 82.122866 155.31055 79.164062 C 155.32703 77.330135 159.70317 64.171562 160.625 63.183594 C 161.17044 62.599128 162.02441 62.28074 162.87891 62.242188 z M 209.05469 64.269531 C 209.28254 64.283978 209.51227 64.31903 209.74219 64.375 C 210.80635 64.634049 211.45021 65.461884 212.81836 68.333984 C 214.7607 72.411414 214.88901 73.303484 213.75977 74.867188 C 212.78174 76.221457 210.00665 76.352976 208.84766 75.099609 C 207.38415 73.516932 205.27187 67.811531 205.63281 66.416016 C 205.98657 65.048965 207.4597 64.168405 209.05469 64.269531 z M 117.57422 82.064453 C 119.16699 82.128555 121.27958 83.966975 126.2168 89.058594 C 132.39976 95.434884 133.17206 96.847062 131.52539 98.771484 C 131.15738 99.201443 130.07067 99.537274 129.03516 99.541016 C 127.34915 99.54729 126.72834 99.072624 121.46875 93.769531 C 118.31708 90.591818 115.38703 87.496445 114.95703 86.890625 C 113.9462 85.46631 114.42837 83.580561 116.07031 82.537109 C 116.57075 82.219072 117.04329 82.043086 117.57422 82.064453 z M 274.14844 82.835938 C 276.31362 82.835938 277.50781 83.888806 277.50781 85.798828 C 277.50781 87.17057 276.97347 87.917505 274.12695 90.533203 C 271.63058 92.827112 270.37509 93.640625 269.32812 93.640625 C 267.23 93.640625 266.0293 92.568812 266.0293 90.697266 C 266.0293 89.361656 266.59237 88.559577 269.34961 85.962891 C 271.88945 83.570941 273.01802 82.835937 274.14844 82.835938 z M 191.73047 85 C 192.06993 85.023059 192.33158 85.140241 192.64062 85.310547 C 194.55817 86.366849 195.10085 87.449021 194.52734 89.070312 C 194.12044 90.220612 192.67443 91.11411 185.72656 94.5 C 181.1536 96.728561 176.98338 98.550781 176.46094 98.550781 C 175.34904 98.550781 173.02539 96.451751 173.02539 95.447266 C 173.02539 93.821011 175.40941 92.184297 183.13477 88.503906 C 188.98692 85.715919 190.71209 84.930824 191.73047 85 z M 233.66016 86.90625 C 234.28017 86.880457 234.90943 87.039452 235.48047 87.402344 C 237.26785 88.538243 247.56155 96.975767 248.85547 98.365234 C 250.26553 99.879389 250.31535 101.67987 248.98242 102.97266 C 246.84642 105.0444 246.01327 104.56829 233.28125 93.998047 C 230.55149 91.731767 229.85942 90.110497 230.93945 88.511719 C 231.61672 87.509199 232.6268 86.949238 233.66016 86.90625 z M 188.97656 103 C 193.65992 103 198.34239 103.24501 201.75391 103.73633 C 232.81856 108.21019 258.85962 127.9122 270.80273 155.97852 C 279.626 176.71323 279.626 200.63833 270.80273 221.37305 C 258.85962 249.43936 232.81856 269.14133 201.75391 273.61523 L 201.75391 273.61328 C 195.21491 274.55631 182.13986 274.54954 175.81055 273.60156 C 144.93831 268.97754 119.01754 249.26082 107.15039 221.37305 C 98.327137 200.63833 98.327137 176.71323 107.15039 155.97852 C 119.09351 127.9122 145.13453 108.21019 176.19922 103.73633 C 179.61071 103.24501 184.2932 103 188.97656 103 z M 272.45703 106.04102 C 272.96496 106.05511 273.4839 106.25088 274.04492 106.60742 C 276.03144 107.86986 275.74133 110.15167 272.95703 115.17383 C 271.66107 117.5115 270.14101 119.92151 269.57812 120.5293 C 268.44201 121.75621 265.63816 122.04664 264.82031 121.02148 C 263.26666 119.07397 263.50899 118.13833 267.29688 111.48047 C 269.5029 107.60265 270.93326 105.99874 272.45703 106.04102 z M 104.46094 111.33203 C 107.3799 111.31204 108.82425 114.68979 106.71289 116.59766 C 106.15038 117.10593 103.14209 118.08892 99.75 118.87109 C 96.465288 119.62855 93.437282 120.32222 93.019531 120.41406 C 89.672117 121.15005 87.617175 116.24964 90.619141 114.68945 C 92.219884 113.8575 102.57907 111.34337 104.46094 111.33203 z M 296.17969 190.66992 C 296.53902 190.67568 296.86725 190.76414 297.18359 190.92578 C 298.68671 191.69386 299.09413 192.31463 299.10547 193.84375 C 299.11114 194.75012 298.05752 196.07363 295.1875 198.76953 C 293.02909 200.79698 290.69435 202.92134 289.99805 203.49023 C 287.02273 205.92119 283.92188 204.97002 283.92188 201.62695 C 283.92188 200.58021 284.88929 199.36335 288.24219 196.19531 C 292.48533 192.18624 294.62256 190.64496 296.17969 190.66992 z M 83.068359 202.81055 C 83.513947 202.8249 83.983435 202.99554 84.710938 203.33203 C 85.63541 203.75961 87.313154 204.91739 88.439453 205.9043 C 90.74445 207.92408 91.059245 209.48361 89.474609 211.02148 C 88.068814 212.38502 86.487488 212.25076 83.826172 210.54102 C 80.503778 208.40653 79.755517 207.4459 79.943359 205.54688 C 80.066459 204.30345 80.459219 203.74362 81.568359 203.23047 C 82.201033 202.93784 82.622772 202.79619 83.068359 202.81055 z M 291.33203 225.54688 C 291.80048 225.53555 292.30023 225.63299 292.8125 225.85938 C 293.5229 226.17324 295.61169 228.52616 297.45312 231.08789 C 300.89522 235.87636 301.54511 237.88886 300.08398 239.23438 C 299.0383 240.19734 297.48811 240.48416 296.30859 239.93359 C 295.20108 239.41663 289.53388 231.9416 288.78516 230.00977 C 287.87986 227.67403 289.30207 225.59587 291.33203 225.54688 z M 89.494141 242.45508 C 92.158745 242.45508 93.427102 245.55382 91.615234 247.63672 C 90.517244 248.89897 83.065396 255.2563 81.386719 256.36328 C 78.799292 258.06959 75.802734 256.86479 75.802734 254.11719 C 75.802734 253.13957 76.844558 251.91358 80.251953 248.88281 C 86.073408 243.7049 87.869246 242.45508 89.494141 242.45508 z M 268.42578 255.7168 C 270.25692 255.7168 271.5922 257.5933 274.0332 263.59375 C 276.57788 269.84898 276.79982 271.46368 275.3125 272.90625 C 274.10494 274.07745 272.89027 274.15329 271.41406 273.15039 C 270.37874 272.44706 265.18555 260.66975 265.18555 259.02539 C 265.18555 257.7975 267.22385 255.7168 268.42578 255.7168 z M 106.3418 278.30859 C 108.12774 278.30859 109.70937 280.33732 114.21094 288.40234 C 118.99839 296.97957 119.28067 298.41115 116.4707 299.8457 C 115.14919 300.52042 115.35238 300.53282 113.74219 299.68359 C 112.2464 298.89473 103.14648 283.15561 103.14648 281.35742 C 103.14648 279.94259 104.85818 278.30859 106.3418 278.30859 z M 219.37891 283.32227 C 219.68442 283.34768 220.0236 283.46835 220.48438 283.67188 C 223.41581 284.96663 235.41031 293.72471 235.875 294.91016 C 236.39582 296.23885 236.1128 297.60649 235.16406 298.3418 L 235.16406 298.33984 C 233.93855 299.28987 232.49273 299.36018 230.96875 298.54297 C 228.02042 296.96207 217.04218 288.9811 216.52344 288.04102 C 215.73646 286.61477 216.16821 285.1475 217.69922 284.04297 C 218.45123 283.50037 218.86972 283.2799 219.37891 283.32227 z M 168.98633 300.90039 C 170.80058 300.90039 172.01367 302.05755 172.01367 303.78906 C 172.01367 305.70778 171.39597 306.29289 165.25586 310.1875 C 159.47844 313.85205 157.63528 314.37531 156.14062 312.77344 C 155.14713 311.70878 155.04989 309.75094 155.93555 308.65234 C 157.25698 307.01324 167.54818 300.90039 168.98633 300.90039 z "
       transform="matrix(0.26458333,0,0,0.26458333,-274.70366,133.30423)"
       id="path88" />
  </g>
</svg>
