<?xml version="1.0" encoding="UTF-8" standalone="no"?>
<!-- Created with Inkscape (http://www.inkscape.org/) -->

<svg
   xmlns:dc="http://purl.org/dc/elements/1.1/"
   xmlns:cc="http://creativecommons.org/ns#"
   xmlns:rdf="http://www.w3.org/1999/02/22-rdf-syntax-ns#"
   xmlns:svg="http://www.w3.org/2000/svg"
   xmlns="http://www.w3.org/2000/svg"
   xmlns:sodipodi="http://sodipodi.sourceforge.net/DTD/sodipodi-0.dtd"
   xmlns:inkscape="http://www.inkscape.org/namespaces/inkscape"
   width="100mm"
   height="100mm"
   viewBox="0 0 100 100"
   version="1.1"
   id="svg8"
   inkscape:version="0.92.3 (2405546, 2018-03-11)"
   sodipodi:docname="BackgroundBug.svg">
  <defs
     id="defs2" />
  <sodipodi:namedview
     id="base"
     pagecolor="#ebebeb"
     bordercolor="#666666"
     borderopacity="1.0"
     inkscape:pageopacity="0"
     inkscape:pageshadow="2"
     inkscape:zoom="1.979899"
     inkscape:cx="28.191324"
     inkscape:cy="188.11699"
     inkscape:document-units="mm"
     inkscape:current-layer="layer1"
     showgrid="false"
     inkscape:window-width="1920"
     inkscape:window-height="1017"
     inkscape:window-x="-8"
     inkscape:window-y="-8"
     inkscape:window-maximized="1"
     fit-margin-top="0"
     fit-margin-left="0"
     fit-margin-right="0"
     fit-margin-bottom="0" />
  <metadata
     id="metadata5">
    <rdf:RDF>
      <cc:Work
         rdf:about="">
        <dc:format>image/svg+xml</dc:format>
        <dc:type
           rdf:resource="http://purl.org/dc/dcmitype/StillImage" />
        <dc:title />
      </cc:Work>
    </rdf:RDF>
  </metadata>
  <g
     inkscape:label="svg"
     inkscape:groupmode="layer"
     id="layer1"
     style="display:inline"
     transform="translate(274.70366,-133.30423)">
    <path
       style="fill:#ffffff;fill-opacity:1;stroke-width:0.43987873"
       d="M 116.07031 47.244141 C 112.34581 47.244141 109.80664 50.060508 109.80664 54.189453 C 109.80664 55.378152 111.19504 64.862652 112.89258 75.267578 C 114.59004 85.672504 115.97852 94.760138 115.97852 95.460938 C 115.97852 96.507974 115.42279 97.188689 112.85547 99.279297 C 108.50826 102.81928 104.05573 107.73541 100.8457 112.54297 L 98.121094 116.62305 L 80.707031 116.27344 C 53.382981 115.72548 51.901044 115.75288 50.425781 116.8418 C 44.848862 120.95816 46.971152 128.32519 53.943359 129.05078 C 55.204248 129.18201 64.078733 129.45316 73.664062 129.65234 C 83.24936 129.85152 91.313812 130.15093 91.585938 130.31836 C 91.941358 130.53712 91.851577 131.51742 91.263672 133.80664 C 86.986456 150.46226 88.113456 169.36511 94.539062 188.68945 C 95.838615 192.59771 97.922047 198.05598 99.167969 200.81836 C 100.41389 203.58074 101.27636 205.99783 101.08398 206.18945 C 100.89161 206.38092 94.031252 209.68553 85.839844 213.5332 C 77.648436 217.38084 70.455103 220.84983 69.853516 221.24219 C 68.152199 222.35174 67.041016 224.52052 67.041016 226.73438 C 67.041016 231.20485 70.81257 233.92166 75.316406 232.69531 C 76.462397 232.38327 84.178608 228.9397 92.464844 225.04297 C 100.75108 221.1462 107.69541 217.95857 107.89648 217.95898 C 108.09771 217.95944 108.85695 218.8969 109.58398 220.04297 C 111.82955 223.58284 118.11733 231.99141 121.63086 236.1543 C 126.10098 241.45059 135.93568 251.14224 141.23242 255.4707 C 143.59005 257.39736 145.51845 259.17621 145.51758 259.42188 C 145.51678 259.66748 143.31471 262.4345 140.62305 265.57227 C 133.72314 273.61593 127.06605 281.43035 124.92188 284.00391 C 123.81674 285.33033 122.88622 287.0272 122.56836 288.29297 C 122.08734 290.20847 122.13031 290.55913 123.08789 292.41016 C 124.89269 295.89885 128.5038 297.01587 131.87695 295.12891 C 132.93137 294.53907 136.51321 290.72066 141.41602 284.96289 C 150.14672 274.70964 155.46995 268.51714 156.33984 267.59766 C 156.82627 267.08356 157.62301 267.3988 161.46875 269.62891 C 175.58884 277.81714 189.50148 282.99615 204.32422 285.58203 C 206.9604 286.04177 209.76304 286.41797 210.55273 286.41797 C 212.11897 286.41797 213.21898 287.35572 212.83203 288.35938 C 212.69744 288.70847 213.33931 297.25064 214.25781 307.34375 C 215.4481 320.42337 216.12488 326.07338 216.61523 327.01172 C 217.35784 328.43271 218.9693 330.04454 220.0332 330.43164 C 220.39694 330.56392 221.62065 330.68813 222.75391 330.70703 C 226.34703 330.76743 228.85156 327.86078 228.85156 323.62695 C 228.85156 322.34452 228.16283 313.71454 227.32227 304.44922 C 226.4817 295.18393 225.88252 287.46059 225.99023 287.28711 C 226.09795 287.11367 227.62909 286.83376 229.39258 286.66406 C 259.40471 283.77556 281.87488 265.17471 289.2832 237.08594 C 289.97799 234.45157 290.70209 232.14746 290.89258 231.9668 C 291.0831 231.78625 298.08496 233.00203 306.45117 234.66797 C 322.6952 237.90268 325.72667 238.21614 327.77344 236.87305 C 331.76224 234.25557 331.66827 228.37485 327.59961 225.91211 C 326.76275 225.40554 320.14041 223.88814 310.07031 221.89648 C 301.1685 220.13587 293.46984 218.54583 292.96289 218.36328 C 292.10509 218.05457 292.02206 217.5955 291.75977 211.74219 C 291.06815 196.30354 286.90337 180.97488 279.04297 164.94141 C 277.58657 161.9707 276.49435 159.27955 276.61719 158.96094 C 276.74006 158.64229 282.92078 154.27235 290.35156 149.25 C 297.78238 144.22761 304.24737 139.57884 304.71875 138.91992 C 308.3059 133.90574 303.76505 127.30919 297.83984 128.92773 C 296.84862 129.1985 290.45795 133.21873 283.09766 138.20117 C 275.95182 143.03848 269.80122 147.07348 269.42969 147.16797 C 268.9899 147.28011 267.8326 146.07003 266.11719 143.70117 C 258.95612 133.8123 246.39352 120.76427 236.82617 113.2793 C 234.05854 111.11404 231.29287 108.92632 230.68164 108.41797 L 229.57031 107.49219 L 238.4082 93.056641 C 243.26868 85.117063 247.69259 77.748003 248.23828 76.679688 C 250.0068 73.217602 248.87737 69.438166 245.57422 67.761719 C 242.54927 66.226437 239.3939 67.11098 237.10547 70.136719 C 236.49662 70.94172 232.19222 77.820742 227.54102 85.423828 C 222.88982 93.026953 218.84445 99.495269 218.55078 99.796875 C 218.12615 100.23326 216.89281 99.768811 212.52148 97.523438 C 199.92504 91.053264 187.04497 86.807237 173.60938 84.695312 C 169.97748 84.124572 166.21135 83.922509 159.4082 83.941406 C 148.5568 83.969224 142.82666 84.808236 134.5332 87.582031 C 131.72456 88.521395 129.27019 89.142859 129.08008 88.964844 C 128.89012 88.786979 127.43985 80.561528 125.85547 70.685547 C 123.90637 58.536218 122.68769 52.131618 122.08984 50.880859 C 120.92681 48.447713 118.93451 47.244141 116.07031 47.244141 z M 194.67969 106.26953 C 199.9863 106.26915 202.22339 107.15493 205.74609 110.65039 C 209.88781 114.76006 211.15827 121.14225 208.98047 126.89258 C 207.63053 130.45705 204.02005 134.07264 200.50195 135.38281 C 197.87726 136.36024 192.83009 136.63032 190.49219 135.91992 C 186.37537 134.66897 182.67791 131.48405 180.85742 127.61914 C 179.86567 125.51357 179.68945 124.54664 179.68945 121.19141 C 179.68945 117.83617 179.86564 116.86729 180.85742 114.76172 C 182.28 111.74165 184.83335 109.12169 187.94141 107.49219 C 190.03942 106.39242 190.70926 106.26983 194.67969 106.26953 z M 244.00781 145.55469 C 244.35522 145.54822 244.7021 145.55032 245.04688 145.5625 C 246.70176 145.62095 248.30337 145.89535 249.63867 146.39648 C 252.41976 147.4402 255.73763 150.12211 257.30273 152.58984 C 262.1863 160.2898 258.88252 170.8646 250.38867 174.7207 C 247.59791 175.98753 243.26678 176.47457 240.64258 175.81641 C 235.82583 174.60828 231.41578 170.75206 229.71484 166.26172 C 228.36291 162.69267 228.63551 157.27142 230.33203 153.98047 C 231.85348 151.02911 234.35903 148.53387 237.32422 147.01953 C 239.12662 146.09902 241.57593 145.59998 244.00781 145.55469 z M 190.05078 169.90625 C 193.79539 169.90814 194.49613 170.03979 196.66406 171.16016 C 203.19958 174.53762 206.59519 181.75986 204.85547 188.58398 C 203.49015 193.93939 199.36466 198.18784 194.04883 199.71484 C 188.32666 201.35856 182.31165 199.52247 178.20508 194.87891 C 175.56553 191.89421 174.50653 188.72226 174.70117 184.38477 C 174.97194 178.34459 177.96486 173.76267 183.36523 171.12305 C 185.5656 170.04743 186.35996 169.90459 190.05078 169.90625 z M 128.32422 173.41406 C 131.45219 173.41406 132.48067 173.6051 134.54883 174.57031 C 138.03438 176.19706 140.42495 178.51854 142.09766 181.90039 C 143.37914 184.49133 143.53516 185.21062 143.53516 188.54492 C 143.53516 191.66832 143.34348 192.69192 142.37305 194.75195 C 140.7514 198.19431 138.40954 200.59789 135.09766 202.2207 C 127.15778 206.11124 118.09028 202.84742 114.25977 194.71875 C 113.30566 192.69394 113.11328 191.65612 113.11328 188.54492 C 113.11328 185.21062 113.26926 184.49133 114.55078 181.90039 C 116.22345 178.51854 118.6121 176.19706 122.09766 174.57031 C 124.16581 173.60513 125.19621 173.41406 128.32422 173.41406 z M 261.03711 206.76953 C 264.23104 206.77127 265.19061 206.958 267.5332 208.0332 C 270.72422 209.49785 273.85376 212.57877 275.28711 215.66797 C 276.66407 218.63558 276.66407 225.17887 275.28711 228.14648 C 273.92807 231.07558 270.62511 234.41584 267.74609 235.77148 C 264.68256 237.21402 259.63749 237.59089 256.56836 236.60742 C 249.48704 234.33838 244.65246 226.60866 245.95508 219.63672 C 246.96051 214.25554 250.06817 210.13653 254.77734 207.93945 C 256.88367 206.95678 257.89421 206.76787 261.03711 206.76953 z M 164.12891 225.48633 C 168.22603 225.57222 170.79742 226.80538 174.03125 230.02148 C 176.39368 232.37099 176.88009 233.14556 177.72852 235.92578 C 179.45992 241.59942 178.17181 247.16142 174.17969 251.25586 C 172.18164 253.30508 168.95043 255.06332 166.4375 255.46875 C 165.48086 255.62311 164.3014 255.80829 163.81641 255.88086 C 162.17749 256.12596 158.29691 255.27109 156.16016 254.19336 C 154.99179 253.60406 153.01495 252.00704 151.76562 250.64648 C 144.98176 243.25838 147.23416 231.48494 156.32227 226.83008 C 158.03605 225.95228 159.35999 225.66044 162.27344 225.51758 C 162.92739 225.48551 163.5436 225.47406 164.12891 225.48633 z M 226.74414 240.45508 C 232.39834 240.49372 238.0548 243.81281 240.60742 249.00586 C 242.31921 252.48835 242.55228 257.52481 241.16992 261.17383 C 239.92022 264.4726 236.65239 267.99606 233.35547 269.60156 C 230.43363 271.02444 224.82789 271.46119 222.16797 270.47266 C 217.66708 268.79991 214.51299 266.00018 212.70898 262.07812 C 208.80228 253.58451 213.61565 243.58396 222.86914 240.96875 C 224.1354 240.61088 225.43933 240.44616 226.74414 240.45508 z "
       transform="matrix(0.26458333,0,0,0.26458333,-274.70366,133.30423)"
       id="path866" />
  </g>
</svg>
