<?xml version="1.0" encoding="UTF-8" standalone="no"?>
<!-- Created with Inkscape (http://www.inkscape.org/) -->

<svg
   xmlns:dc="http://purl.org/dc/elements/1.1/"
   xmlns:cc="http://creativecommons.org/ns#"
   xmlns:rdf="http://www.w3.org/1999/02/22-rdf-syntax-ns#"
   xmlns:svg="http://www.w3.org/2000/svg"
   xmlns="http://www.w3.org/2000/svg"
   xmlns:sodipodi="http://sodipodi.sourceforge.net/DTD/sodipodi-0.dtd"
   xmlns:inkscape="http://www.inkscape.org/namespaces/inkscape"
   width="100mm"
   height="100mm"
   viewBox="0 0 100 100"
   version="1.1"
   id="svg8"
   inkscape:version="0.92.3 (2405546, 2018-03-11)"
   sodipodi:docname="BackgroundMushroom.svg">
  <defs
     id="defs2" />
  <sodipodi:namedview
     id="base"
     pagecolor="#ebebeb"
     bordercolor="#666666"
     borderopacity="1.0"
     inkscape:pageopacity="0"
     inkscape:pageshadow="2"
     inkscape:zoom="0.98994949"
     inkscape:cx="61.83519"
     inkscape:cy="139.23699"
     inkscape:document-units="mm"
     inkscape:current-layer="layer1"
     showgrid="false"
     inkscape:window-width="1920"
     inkscape:window-height="1017"
     inkscape:window-x="-8"
     inkscape:window-y="-8"
     inkscape:window-maximized="1"
     fit-margin-top="0"
     fit-margin-left="0"
     fit-margin-right="0"
     fit-margin-bottom="0"
     inkscape:snap-global="false" />
  <metadata
     id="metadata5">
    <rdf:RDF>
      <cc:Work
         rdf:about="">
        <dc:format>image/svg+xml</dc:format>
        <dc:type
           rdf:resource="http://purl.org/dc/dcmitype/StillImage" />
        <dc:title />
      </cc:Work>
    </rdf:RDF>
  </metadata>
  <g
     inkscape:label="svg"
     inkscape:groupmode="layer"
     id="layer1"
     style="display:inline"
     transform="translate(274.70366,-133.30423)">
    <g
       id="g68">
      <g
         id="g72" />
    </g>
    <g
       id="g76"
       transform="matrix(0.51355924,0,0,0.51355924,7.3658394,90.012124)"
       style="fill:#ffffff">
      <path
         id="path59"
         d="m -458.23455,258.24051 c -8.98698,-1.9913 -14.75716,-6.96529 -17.17595,-14.80593 -1.03879,-3.36727 -1.41392,-6.54908 -1.40507,-11.91732 0.0119,-7.19228 0.58422,-11.63763 3.23623,-25.13541 2.37553,-12.09064 2.65409,-14.23149 2.87464,-22.09271 l 0.16702,-5.95313 2.51354,-0.22376 c 3.74727,-0.3336 32.45411,-0.35585 33.73438,-0.0261 l 1.05833,0.27255 0.16702,5.9418 c 0.22064,7.8497 0.4999,9.99476 2.87465,22.08139 2.652,13.49778 3.22435,17.94313 3.23622,25.13542 0.012,7.26625 -0.791,11.49062 -2.99248,15.7427 -2.72076,5.2551 -7.35686,8.75048 -14.13333,10.65582 -2.48878,0.69978 -11.52684,0.90711 -14.1552,0.32473 z"
         style="fill:#ffffff;stroke-width:0.26458332"
         inkscape:connector-curvature="0" />
      <path
         id="path57"
         transform="matrix(0.26458333,0,0,0.26458333,-274.70366,133.30423)"
         d="m -669.66016,-107.97266 c -22.57304,0 -45.14607,0.66057 -55,1.98047 -74.04582,9.918251 -130.11559,36.658782 -165.66015,79.007815 -19.33542,23.0368234 -32.40082,49.0016 -38.25781,76.035156 -5.99139,27.653632 -4.0227,66.865599 5.1289,102.148439 2.66687,10.28175 4.15722,13.14438 8.08789,15.54101 4.01503,2.44714 7.38014,2.44837 28.95508,0.008 102.18013,-11.55859 225.83246,-15.65846 309.74609,-10.26953 54.50007,3.49999 96.38191,7.01234 128,10.73242 16.70321,1.9652 20.83529,1.88647 24.70118,-0.47071 3.93063,-2.39663 5.42105,-5.25926 8.08789,-15.54101 9.15159,-35.28284 11.12029,-74.494807 5.1289,-102.148439 -5.85706,-27.033556 -18.92243,-52.9983326 -38.25781,-76.035156 -35.5446,-42.349033 -91.61434,-69.089564 -165.66016,-79.007815 -9.85392,-1.3199 -32.42696,-1.98047 -55,-1.98047 z m 2.15039,47.968754 c 8.04019,0.06331 15.95151,4.08303 20.5586,11.683594 1.76519,2.912088 3.50259,7.241352 3.85937,9.621093 1.4894,9.932145 -4.36698,21.185404 -13.26758,25.494141 -2.72137,1.317354 -7.14163,2.442195 -10.2871,2.617187 -22.65404,1.2592634 -34.52962,-26.040694 -18.36133,-42.208984 4.91233,-4.91233 11.24457,-7.256274 17.49804,-7.207031 z m 131.84571,7.103515 c 4.90672,-0.130021 9.94904,1.22043 14.48047,4.384766 15.01081,10.482217 13.44658,34.091953 -2.8086,42.3847656 -4.37994,2.2346079 -13.68382,3.2635501 -17.67383,1.9550782 -11.32939,-3.7152378 -18.19336,-12.8875298 -18.19336,-24.3105468 0,-14.08396 11.6559,-24.081787 24.19532,-24.414063 z m -268.8125,0.04492 c 9.46919,-0.218216 18.54802,5.23861 22.85742,14.140625 2.57216,5.313336 2.88536,14.259766 0.68359,19.529297 -2.06993,4.954091 -7.3173,10.6368486 -12.05664,13.0546876 -4.3799,2.2346079 -13.68378,3.2635503 -17.67383,1.9550782 -24.95217,-8.1825638 -23.41558,-43.1612028 2.11914,-48.2324218 1.35585,-0.269268 2.71758,-0.416092 4.07032,-0.447266 z m -64.41211,65.554688 c 13.94116,0 24.42898,10.724871 24.36133,24.910156 -0.0466,9.755981 -4.65556,17.293462 -13.23047,21.638672 -9.77008,4.950879 -24.24212,2.114376 -30.39844,-5.957031 -8.20619,-10.758804 -7.32599,-24.750601 2.12695,-33.792969 5.06926,-4.849096 9.98466,-6.798828 17.14063,-6.798828 z m 398.67578,0.02148 c 7.67233,0.02785 12.83009,2.345876 18.16992,8.162109 5.14031,5.598993 6.71642,10.247013 6.20313,18.308594 -0.5212,8.185361 -4.41439,14.743392 -11.26758,18.980469 -4.1554,2.569096 -6.04133,3.06588 -12.47461,3.283203 -6.43446,0.217361 -8.27617,-0.115982 -12.20117,-2.205078 -8.43568,-4.490003 -12.96366,-12.022181 -13.00977,-21.640625 -0.0684,-14.303811 10.43554,-24.940073 24.58008,-24.888672 z m -289.74023,26.978516 c 14.4702,0 24.63809,10.191842 24.57421,24.632812 -0.0453,10.225285 -5.88334,18.795812 -15.55273,22.835938 -4.98996,2.084863 -14.27919,1.92088 -19.22852,-0.339844 -5.23479,-2.391118 -12.06915,-9.917639 -13.41796,-14.775391 -4.76323,-17.154177 6.33562,-32.353515 23.625,-32.353515 z m 180.58593,0 c 17.28938,0 28.38819,15.199337 23.625,32.353515 -1.34887,4.857752 -8.18313,12.384273 -13.41797,14.775391 -2.44063,1.114847 -6.359,1.834491 -10.05273,1.849609 -13.96823,0.05068 -24.66767,-10.517875 -24.72852,-24.425781 -0.0628,-14.360844 10.13888,-24.552734 24.57422,-24.552734 z"
         style="fill:#ffffff;stroke-width:0.99999994"
         inkscape:connector-curvature="0" />
    </g>
  </g>
</svg>
