<?xml version="1.0" encoding="UTF-8" standalone="no"?>
<!-- Created with Inkscape (http://www.inkscape.org/) -->

<svg
   xmlns:dc="http://purl.org/dc/elements/1.1/"
   xmlns:cc="http://creativecommons.org/ns#"
   xmlns:rdf="http://www.w3.org/1999/02/22-rdf-syntax-ns#"
   xmlns:svg="http://www.w3.org/2000/svg"
   xmlns="http://www.w3.org/2000/svg"
   xmlns:sodipodi="http://sodipodi.sourceforge.net/DTD/sodipodi-0.dtd"
   xmlns:inkscape="http://www.inkscape.org/namespaces/inkscape"
   width="100mm"
   height="100mm"
   viewBox="0 0 100 100"
   version="1.1"
   id="svg8"
   inkscape:version="0.92.3 (2405546, 2018-03-11)"
   sodipodi:docname="BackgroundBird.svg">
  <defs
     id="defs2" />
  <sodipodi:namedview
     id="base"
     pagecolor="#ebebeb"
     bordercolor="#666666"
     borderopacity="1.0"
     inkscape:pageopacity="0"
     inkscape:pageshadow="2"
     inkscape:zoom="0.7"
     inkscape:cx="-314.61398"
     inkscape:cy="30.488545"
     inkscape:document-units="mm"
     inkscape:current-layer="layer1"
     showgrid="false"
     inkscape:window-width="1920"
     inkscape:window-height="1017"
     inkscape:window-x="-8"
     inkscape:window-y="-8"
     inkscape:window-maximized="1"
     fit-margin-top="0"
     fit-margin-left="0"
     fit-margin-right="0"
     fit-margin-bottom="0"
     inkscape:snap-global="false" />
  <metadata
     id="metadata5">
    <rdf:RDF>
      <cc:Work
         rdf:about="">
        <dc:format>image/svg+xml</dc:format>
        <dc:type
           rdf:resource="http://purl.org/dc/dcmitype/StillImage" />
        <dc:title />
      </cc:Work>
    </rdf:RDF>
  </metadata>
  <g
     inkscape:label="svg"
     inkscape:groupmode="layer"
     id="layer1"
     style="display:inline"
     transform="translate(274.70366,-133.30423)">
    <g
       id="g23">
      <path
         id="path441"
         transform="matrix(0.26458333,0,0,0.26458333,-274.70366,133.30423)"
         d="M 134.91016 56.400391 C 129.69313 56.486906 124.57855 57.370625 119.83594 59.074219 C 111.12556 62.203063 100.51954 68.947288 94.6875 75.064453 C 87.461459 82.643729 79.16323 94.644307 74.824219 103.78906 C 73.245397 107.11656 71.69122 110.35701 71.371094 110.99023 C 70.892341 111.93697 68.051033 113.15279 55.382812 117.83789 C 46.209408 121.23055 39.507656 123.97769 38.814453 124.62891 C 37.194283 126.15096 36.833071 128.50801 37.933594 130.37109 C 38.525052 131.37233 42.785607 134.4726 51.037109 139.90234 C 57.762439 144.32787 63.515368 148.25108 63.822266 148.62109 C 64.224936 149.10631 64.40828 156.26711 64.480469 174.33594 C 64.559952 194.23424 64.746819 200.72029 65.384766 205.91211 C 67.588835 223.84907 71.20485 236.32577 78.128906 249.88672 C 85.759319 264.83108 97.90589 280.2292 110.86914 291.38867 C 132.68631 310.17001 154.69879 318.86948 185.98047 321.07227 C 200.04719 322.06284 224.18842 321.48545 236.80078 319.85742 C 265.26062 316.1838 289.2885 304.32809 307.86133 284.79492 C 316.7727 275.42279 320.23538 270.12215 327.46289 254.79492 C 337.06157 234.43937 342.82015 199.99661 339.88281 180.50781 C 338.45997 171.06769 335.85024 163.2319 333.92578 162.62109 C 332.78353 162.25856 321.12597 165.18254 316.66016 166.95117 C 312.09929 168.75741 303.67755 172.96099 303.23633 173.65234 C 302.49962 174.80669 302.94855 176.01388 305.91797 180.85156 C 310.03871 187.56495 317.08352 200.64621 318.63672 204.46875 C 320.74139 209.64833 321.74219 214.39247 321.74219 219.19727 C 321.74219 224.6196 320.88314 228.15285 318.27148 233.48633 C 316.64379 236.81042 315.43047 238.41988 311.86328 241.98828 C 306.81742 247.0358 302.48096 250.01146 294.89844 253.62695 C 282.60617 259.48813 266.64702 263.56636 248.41602 265.50586 C 239.87084 266.41495 216.64622 266.28153 208.56445 265.27734 C 187.77259 262.69396 174.70312 257.39624 164.89453 247.57227 C 160.41564 243.08638 157.47129 238.97979 154.63086 233.25781 C 150.69675 225.33275 149.04285 218.92456 148.62695 209.99414 C 147.92593 194.94251 152.21484 182.57781 161.75195 172.15625 C 167.92744 165.40802 179.27164 158.43908 190.30469 154.61719 C 195.74256 152.73347 197.68233 152.61556 198.88086 154.0957 C 200.89493 156.58297 199.41653 158.14368 193.07422 160.21875 C 174.25414 166.37628 161.26561 177.90677 156.7832 192.4375 C 155.21375 197.52527 154.68227 201.33489 154.70117 207.3457 C 154.75042 223.23476 161.69549 237.99149 173.3418 246.95312 C 176.59862 249.45918 184.77114 253.82812 186.20312 253.82812 C 186.84576 253.82812 188.55816 251.68841 191.91797 246.68945 C 207.29018 223.8173 215.11475 204.78679 217.70312 183.97656 C 218.80342 175.13024 217.43609 150.29546 215.75586 148.61523 C 215.45006 148.30932 213.58358 148.44062 210.44336 148.99023 C 207.78125 149.45606 205.3885 149.70669 205.12695 149.54492 C 204.23661 148.99466 201.19022 138.55341 197.37305 122.96875 C 192.87923 104.62168 191.02756 98.784585 187.21484 90.962891 C 183.71545 83.783943 179.61934 77.973629 174.45117 72.855469 C 169.49651 67.948848 165.91302 65.269589 160.61133 62.507812 C 152.58645 58.327513 143.6052 56.256198 134.91016 56.400391 z M 119.67188 97.496094 C 121.03533 97.446063 122.34959 97.586239 123.42578 97.941406 C 125.71047 98.695422 128.94062 101.55536 130.12305 103.87305 C 133.33077 110.16078 130.1491 118.16058 123.54688 120.41016 C 118.59086 122.09885 113.98066 120.81953 110.53906 116.79883 C 108.30306 114.18649 107.6631 112.1431 107.90234 108.38867 C 108.15364 104.44224 110.04083 101.2526 113.32422 99.222656 C 114.99186 98.191625 117.39944 97.579479 119.67188 97.496094 z "
         style="fill:#ffffff;stroke-width:0.48399749" />
      <path
         id="path437"
         d="m -217.55676,202.05056 c -3.16358,-0.31141 -5.81116,-0.75821 -5.90244,-0.99608 -0.0306,-0.0798 0.49765,-0.98027 1.17392,-2.00112 1.17437,-1.77277 2.77427,-4.5005 3.39547,-5.78905 0.16001,-0.33191 0.35253,-0.62602 0.42781,-0.65358 0.18228,-0.0667 25.05507,3.33744 25.15689,3.44304 0.14352,0.14887 -1.34837,1.39174 -2.48118,2.06704 -2.89615,1.72649 -7.38023,3.07974 -12.23506,3.69243 -1.51224,0.19085 -8.29308,0.35961 -9.53541,0.23732 z"
         style="fill:#ffffff;stroke-width:0.12805767"
         inkscape:connector-curvature="0" />
      <path
         id="path435"
         d="m -205.29937,192.71961 c -6.78132,-0.93429 -12.36451,-1.73353 -12.40709,-1.77611 -0.0426,-0.0426 0.13343,-0.64099 0.39113,-1.32981 0.84634,-2.26225 1.36417,-4.33389 1.80951,-7.23909 0.0405,-0.26412 0.14304,-0.48186 0.22788,-0.48387 0.0848,-0.002 5.05248,0.8147 11.03918,1.81492 7.05957,1.17946 10.96261,1.88433 11.10602,2.00569 0.30499,0.2581 1.29712,2.33126 1.63586,3.4183 0.3627,1.16396 0.39655,2.88754 0.0779,3.96979 -0.33458,1.13657 -0.50428,1.34708 -1.07348,1.33174 -0.2625,-0.007 -6.02562,-0.77728 -12.80695,-1.71156 z"
         style="fill:#ffffff;stroke-width:0.12805767"
         inkscape:connector-curvature="0" />
      <path
         id="path427"
         d="m -204.88344,181.96966 c -5.49608,-0.93028 -10.08279,-1.72592 -10.19268,-1.76809 -0.16566,-0.0636 -0.21296,-0.44521 -0.27679,-2.2333 -0.0423,-1.18615 -0.17215,-2.83526 -0.28844,-3.6647 -0.11628,-0.82943 -0.17556,-1.60155 -0.13172,-1.7158 0.0701,-0.18259 0.28474,-0.19852 1.77319,-0.13159 3.80477,0.1711 7.58222,1.26751 11.61795,3.37211 3.40017,1.77315 5.2844,3.38727 7.08123,6.06609 0.54328,0.80997 0.98748,1.5447 0.9871,1.63274 -3.9e-4,0.088 -0.13035,0.1542 -0.28882,0.14701 -0.15847,-0.007 -4.78493,-0.77419 -10.28102,-1.70447 z"
         style="fill:#ffffff;stroke-width:0.12805767"
         inkscape:connector-curvature="0" />
    </g>
  </g>
</svg>
