<?xml version="1.0" encoding="UTF-8" standalone="no"?>
<!-- Created with Inkscape (http://www.inkscape.org/) -->

<svg
   xmlns:dc="http://purl.org/dc/elements/1.1/"
   xmlns:cc="http://creativecommons.org/ns#"
   xmlns:rdf="http://www.w3.org/1999/02/22-rdf-syntax-ns#"
   xmlns:svg="http://www.w3.org/2000/svg"
   xmlns="http://www.w3.org/2000/svg"
   xmlns:sodipodi="http://sodipodi.sourceforge.net/DTD/sodipodi-0.dtd"
   xmlns:inkscape="http://www.inkscape.org/namespaces/inkscape"
   width="100mm"
   height="100mm"
   viewBox="0 0 100 100"
   version="1.1"
   id="svg8"
   inkscape:version="0.92.3 (2405546, 2018-03-11)"
   sodipodi:docname="BackgroundPizza.svg">
  <defs
     id="defs2" />
  <sodipodi:namedview
     id="base"
     pagecolor="#ebebeb"
     bordercolor="#666666"
     borderopacity="1.0"
     inkscape:pageopacity="0"
     inkscape:pageshadow="2"
     inkscape:zoom="0.7"
     inkscape:cx="-116.09116"
     inkscape:cy="142.42629"
     inkscape:document-units="mm"
     inkscape:current-layer="layer1"
     showgrid="false"
     inkscape:window-width="1920"
     inkscape:window-height="1017"
     inkscape:window-x="-8"
     inkscape:window-y="-8"
     inkscape:window-maximized="1"
     fit-margin-top="0"
     fit-margin-left="0"
     fit-margin-right="0"
     fit-margin-bottom="0"
     inkscape:snap-global="false" />
  <metadata
     id="metadata5">
    <rdf:RDF>
      <cc:Work
         rdf:about="">
        <dc:format>image/svg+xml</dc:format>
        <dc:type
           rdf:resource="http://purl.org/dc/dcmitype/StillImage" />
        <dc:title />
      </cc:Work>
    </rdf:RDF>
  </metadata>
  <g
     inkscape:label="svg"
     inkscape:groupmode="layer"
     id="layer1"
     style="display:inline"
     transform="translate(274.70366,-133.30423)">
    <g
       id="g68">
      <g
         id="g72" />
    </g>
    <g
       id="g69"
       transform="matrix(0.49114676,0,0,0.49114676,-5.4329995,86.186245)"
       style="fill:#ffffff">
      <path
         id="path51"
         transform="matrix(0.26458333,0,0,0.26458333,-274.70366,133.30423)"
         d="m -653.64258,25.349609 c -3.07808,0 -31.676,29.080884 -88,89.490231 -11.79016,12.64536 -34.48554,36.43171 -50.43554,52.85743 -81.72968,84.16733 -114.15511,119.43896 -144.01954,156.66406 -12.0655,15.03934 -18.54884,24.65307 -22.5,33.36719 -3.01814,6.65639 -5.98046,20.56428 -5.98046,28.07031 0,24.41801 25.68601,37.34755 84.5,42.53711 22.62169,1.99608 95.47865,-0.0432 141.5,-3.96094 6.32498,-0.53847 38.27499,-3.24222 71,-6.00781 104.24966,-8.81012 166.01517,-15.84246 215.5,-24.53711 21.12632,-3.71195 51.77313,-11.49789 52.98632,-13.46094 1.13394,-1.8347 -11.9152,-35.71016 -26.20117,-68.01953 -28.18269,-63.73837 -64.71992,-131.28796 -89.85351,-166.11914 -30.17813,-41.8221 -69.87594,-77.81544 -123.76758,-112.220704 -7.46094,-4.763188 -14.08815,-8.660157 -14.72852,-8.660157 z m -23.55273,88.000001 c 24.35404,0.70889 46.04081,19.35365 48.25195,46.5 1.94631,23.89527 -15.51604,46.97554 -39.36523,52.0293 v 0.002 c -8.18366,1.73363 -12.83714,1.72984 -20.85938,-0.0156 -27.37153,-5.95555 -44.87181,-34.12692 -37.87891,-60.97461 3.37395,-12.95348 13.77869,-26.11878 25.23047,-31.92187 8.08773,-4.09836 16.50308,-5.85544 24.6211,-5.61914 z m 133.82031,91.45703 c 7.53524,0.0194 10.69497,0.5014 15.2832,2.32813 8.09348,3.22223 16.79299,11.50962 20.94922,19.95898 3.0632,6.22768 3.26758,7.30146 3.26758,17.18164 0,9.86434 -0.20847,10.96122 -3.24219,17.12109 -3.98679,8.09503 -11.08171,14.95842 -19.57226,18.93164 -19.18303,8.97684 -42.85248,0.60694 -52.17578,-18.44921 -9.93461,-20.30559 -1.42488,-44.13974 19.24804,-53.91016 6.12242,-2.89338 7.61368,-3.18479 16.24219,-3.16211 z m -195.92578,58.02734 c 14.62261,0.29013 29.0627,9.47501 35.54101,23.29688 2.39774,5.11578 2.68164,6.87739 2.68165,16.71875 -10e-6,10.14727 -0.22978,11.46515 -2.94336,17 -3.77655,7.70298 -11.44386,15.34769 -19.05664,19 -8.00455,3.84023 -22.14012,4.59978 -30.17188,1.62109 -10.48131,-3.88717 -18.00032,-10.7563 -23.11523,-21.12109 -2.45526,-4.97556 -2.71289,-6.55139 -2.71289,-16.52149 0,-10.40702 0.17953,-11.38829 3.24023,-17.60546 5.78857,-11.75827 16.87567,-19.79588 30.2832,-21.95508 2.07372,-0.33397 4.16496,-0.47504 6.25391,-0.4336 z"
         style="fill:#ffffff;stroke-width:0.99999994"
         inkscape:connector-curvature="0" />
      <path
         id="path37"
         d="m -377.69852,229.50535 c -7.83514,-20.08038 -20.76598,-45.73557 -29.01581,-57.56827 -8.61782,-12.3605 -19.0984,-22.20243 -33.75312,-31.6963 -2.34674,-1.52031 -4.23613,-2.92018 -4.23819,-3.14013 -0.009,-0.93606 6.65514,-5.8503 10.43735,-7.69695 3.79353,-1.85218 6.39389,-2.45399 9.90726,-2.29287 3.29145,0.15095 5.88368,0.99033 9.37129,3.03449 5.50134,3.22445 13.35429,9.90002 19.1182,16.25184 9.37448,10.33068 16.59059,21.01991 22.7491,33.69828 4.2997,8.85169 7.27131,17.04787 8.44161,23.28334 0.35505,1.89177 0.88679,4.66419 1.18165,6.16094 0.63931,3.24528 0.69768,7.40806 0.1372,9.78527 -0.79546,3.37389 -2.92826,6.49544 -6.25861,9.16005 -1.98498,1.58818 -5.87796,3.86663 -6.60305,3.86458 -0.21906,-5.3e-4 -0.80994,-1.14012 -1.47488,-2.84427 z"
         style="fill:#ffffff;stroke-width:0.26458332"
         inkscape:connector-curvature="0" />
    </g>
  </g>
</svg>
