<?xml version="1.0" encoding="UTF-8" standalone="no"?>
<!-- Created with Inkscape (http://www.inkscape.org/) -->

<svg
   xmlns:dc="http://purl.org/dc/elements/1.1/"
   xmlns:cc="http://creativecommons.org/ns#"
   xmlns:rdf="http://www.w3.org/1999/02/22-rdf-syntax-ns#"
   xmlns:svg="http://www.w3.org/2000/svg"
   xmlns="http://www.w3.org/2000/svg"
   xmlns:sodipodi="http://sodipodi.sourceforge.net/DTD/sodipodi-0.dtd"
   xmlns:inkscape="http://www.inkscape.org/namespaces/inkscape"
   width="100mm"
   height="100mm"
   viewBox="0 0 100 100"
   version="1.1"
   id="svg8"
   inkscape:version="0.92.3 (2405546, 2018-03-11)"
   sodipodi:docname="BackgroundPeach.svg">
  <defs
     id="defs2" />
  <sodipodi:namedview
     id="base"
     pagecolor="#ebebeb"
     bordercolor="#666666"
     borderopacity="1.0"
     inkscape:pageopacity="0"
     inkscape:pageshadow="2"
     inkscape:zoom="0.9899495"
     inkscape:cx="43.860598"
     inkscape:cy="145.26605"
     inkscape:document-units="mm"
     inkscape:current-layer="layer1"
     showgrid="false"
     inkscape:window-width="1920"
     inkscape:window-height="1017"
     inkscape:window-x="-8"
     inkscape:window-y="-8"
     inkscape:window-maximized="1"
     fit-margin-top="0"
     fit-margin-left="0"
     fit-margin-right="0"
     fit-margin-bottom="0"
     inkscape:snap-global="false" />
  <metadata
     id="metadata5">
    <rdf:RDF>
      <cc:Work
         rdf:about="">
        <dc:format>image/svg+xml</dc:format>
        <dc:type
           rdf:resource="http://purl.org/dc/dcmitype/StillImage" />
        <dc:title />
      </cc:Work>
    </rdf:RDF>
  </metadata>
  <g
     inkscape:label="svg"
     inkscape:groupmode="layer"
     id="layer1"
     style="display:inline"
     transform="translate(274.70366,-133.30423)">
    <g
       id="g68">
      <g
         id="g72" />
    </g>
    <g
       id="g71"
       transform="matrix(0.51118617,0,0,0.51118617,10.863452,86.786357)"
       style="fill:#ffffff">
      <path
         id="path57"
         d="m -459.75816,270.52653 c -15.1472,-1.02569 -29.09356,-7.19534 -39.99233,-17.69195 -8.12488,-7.82508 -13.78011,-17.10976 -17.57414,-28.85295 -7.14175,-22.105 -4.99383,-42.92447 5.9237,-57.41761 3.85794,-5.12146 10.21833,-10.35379 15.72004,-12.93198 7.35267,-3.44557 18.76845,-4.64044 26.41629,-2.76493 3.09528,0.75906 8.30005,2.92697 10.2174,4.25577 2.30276,1.59591 2.61643,2.07801 1.73812,2.67142 -1.71532,1.15891 -5.13139,4.07718 -7.15685,6.11391 -6.51075,6.54699 -10.08115,14.28048 -11.36302,24.61232 -0.35232,2.83974 -0.35698,11.56554 -0.008,14.69131 1.45174,12.99724 5.22728,23.1199 11.23905,30.13323 3.59195,4.19036 13.59671,11.11047 15.30987,10.58956 0.95746,-0.29113 1.49117,-0.94394 1.49117,-1.82392 0,-0.99764 -0.5541,-1.55172 -2.77812,-2.77799 -5.80293,-3.19962 -10.48508,-7.28493 -13.58766,-11.85563 -3.6313,-5.34961 -6.53273,-14.33731 -7.74795,-24.00067 -0.49093,-3.90386 -0.42525,-12.32832 0.12407,-15.91319 0.94602,-6.17377 3.04372,-11.78185 6.04675,-16.16562 2.88229,-4.20752 8.74013,-9.37054 16.48771,-14.53203 5.66966,-3.77718 8.16472,-4.90384 13.07661,-5.90482 7.42356,-1.51282 18.55444,0.15669 26.36387,3.9543 11.74686,5.71233 20.47786,19.06918 22.76813,34.8311 0.6124,4.2146 0.61483,12.73153 0.005,17.3904 -2.3158,17.6909 -10.1474,34.14697 -21.49892,45.17441 -5.04723,4.90313 -9.37239,7.96846 -15.63603,11.08157 -8.50017,4.2247 -17.19416,6.52727 -27.0098,7.15345 -2.28484,0.14576 -4.4519,0.24821 -4.8157,0.22767 -0.36381,-0.0205 -2.05553,-0.13175 -3.75939,-0.24713 z"
         style="fill:#ffffff;stroke-width:0.26458332"
         inkscape:connector-curvature="0" />
      <path
         id="path55"
         d="m -456.54867,152.20711 c -0.491,-0.33089 -1.17558,-1.01549 -1.52129,-1.52136 -0.61218,-0.89576 -0.62497,-1.02668 -0.49047,-5.02078 0.20916,-6.21136 1.31331,-10.96142 4.40256,-18.93986 0.89681,-2.31615 1.88088,-4.86603 2.18682,-5.66639 0.87544,-2.29021 2.83127,-6.15884 3.4446,-6.81343 0.64895,-0.6926 2.04225,-1.14049 2.90617,-0.93421 0.33094,0.079 2.01443,0.74317 3.74108,1.47589 5.24657,2.22644 5.35602,3.04481 1.2335,9.22295 -4.27656,6.40897 -7.1673,12.80745 -8.34433,18.46964 -0.22568,1.08568 -0.50444,3.36951 -0.61945,5.07517 -0.12185,1.80722 -0.34835,3.26898 -0.54283,3.5033 -0.18354,0.22117 -0.94262,0.70554 -1.68683,1.0764 -1.75406,0.87408 -3.48078,0.90073 -4.70953,0.0727 z"
         style="fill:#ffffff;stroke-width:0.26458332"
         inkscape:connector-curvature="0" />
      <path
         id="path53"
         d="m -476.90086,148.67309 c -5.01299,-0.62876 -12.43542,-2.89241 -12.43542,-3.79248 0,-0.19907 13.40071,-8.39529 15.56168,-9.51792 0.55629,-0.28899 1.03138,-0.058 5.15937,2.50868 2.50067,1.55484 4.9285,3.1132 5.3952,3.46301 l 0.84853,0.63602 -0.15338,2.70718 c -0.0844,1.48895 -0.28761,2.84271 -0.45166,3.00835 -0.54504,0.55033 -3.68377,0.93228 -8.36807,1.01829 -2.54661,0.0468 -5.04693,0.0327 -5.55625,-0.0311 z"
         style="fill:#ffffff;stroke-width:0.26458332"
         inkscape:connector-curvature="0" />
      <path
         id="path51"
         d="m -495.95373,141.19082 c -3.05081,-2.29175 -7.40546,-6.89942 -7.40546,-7.83572 0,-0.5024 14.42541,-7.87715 15.01608,-7.67672 0.82858,0.28115 10.73467,6.61651 10.83951,6.93232 0.11593,0.34922 -15.59788,9.88065 -16.28308,9.87672 -0.24441,-10e-4 -1.21959,-0.58487 -2.16705,-1.2966 z"
         style="fill:#ffffff;stroke-width:0.26458332"
         inkscape:connector-curvature="0" />
      <path
         id="path49"
         d="m -466.64923,134.51163 c -3.69069,-2.3005 -4.69682,-3.04802 -4.70211,-3.49348 -0.0127,-1.07211 3.84347,-16.11039 4.16278,-16.23389 1.1758,-0.45477 9.3377,8.0769 9.3377,9.76074 0,0.26848 -0.48409,1.88585 -1.07576,3.59416 -0.59167,1.70831 -1.40952,4.39416 -1.81744,5.96856 -0.40793,1.5744 -0.84701,2.96787 -0.97574,3.0966 -0.13569,0.13569 -2.20745,-0.99601 -4.92943,-2.69269 z"
         style="fill:#ffffff;stroke-width:0.26458332"
         inkscape:connector-curvature="0" />
      <path
         id="path47"
         d="m -506.66822,128.19905 c -2.15714,-4.25692 -3.07546,-9.82852 -2.14658,-13.02374 0.23951,-0.8239 0.53777,-1.56121 0.6628,-1.63849 0.32527,-0.20102 14.96443,8.93452 15.04872,9.39113 0.0738,0.39987 -11.6326,6.59743 -12.46171,6.59743 -0.25172,0 -0.7108,-0.55192 -1.10323,-1.32633 z"
         style="fill:#ffffff;stroke-width:0.26458332"
         inkscape:connector-curvature="0" />
      <path
         id="path45"
         d="m -480.63273,125.80312 c -2.82242,-1.75619 -5.29491,-3.35244 -5.49443,-3.54721 -0.2654,-0.25907 -0.45781,-2.04744 -0.71684,-6.66264 -0.45863,-8.17143 -0.4596,-8.01268 0.0505,-8.20842 0.60098,-0.23063 5.64154,0.82372 8.59703,1.79825 3.77699,1.24541 7.11644,2.85841 7.11644,3.43733 0,0.43217 -3.01625,12.9444 -3.70843,15.3836 -0.15486,0.5457 -0.37854,0.99219 -0.49708,0.99219 -0.11854,0 -2.52478,-1.43689 -5.34719,-3.1931 z"
         style="fill:#ffffff;stroke-width:0.26458332"
         inkscape:connector-curvature="0" />
      <path
         id="path37"
         d="m -498.05926,114.94874 c -3.70624,-2.32029 -6.8614,-4.34442 -7.01146,-4.49807 -0.6738,-0.6899 2.51262,-2.27338 6.0499,-3.00649 2.27327,-0.47114 7.06137,-0.77746 7.49185,-0.4793 0.21025,0.14563 0.41457,1.76938 0.59275,4.71063 0.3675,6.06634 0.35699,7.53586 -0.0537,7.51153 -0.1819,-0.0108 -3.36311,-1.91801 -7.06934,-4.2383 z"
         style="fill:#ffffff;stroke-width:0.26458332"
         inkscape:connector-curvature="0" />
    </g>
  </g>
</svg>
