<?xml version="1.0" encoding="UTF-8" standalone="no"?>
<!-- Created with Inkscape (http://www.inkscape.org/) -->

<svg
   xmlns:dc="http://purl.org/dc/elements/1.1/"
   xmlns:cc="http://creativecommons.org/ns#"
   xmlns:rdf="http://www.w3.org/1999/02/22-rdf-syntax-ns#"
   xmlns:svg="http://www.w3.org/2000/svg"
   xmlns="http://www.w3.org/2000/svg"
   xmlns:sodipodi="http://sodipodi.sourceforge.net/DTD/sodipodi-0.dtd"
   xmlns:inkscape="http://www.inkscape.org/namespaces/inkscape"
   width="100mm"
   height="100mm"
   viewBox="0 0 100 100"
   version="1.1"
   id="svg8"
   inkscape:version="0.92.3 (2405546, 2018-03-11)"
   sodipodi:docname="BackgroundIcecream.svg">
  <defs
     id="defs2" />
  <sodipodi:namedview
     id="base"
     pagecolor="#ebebeb"
     bordercolor="#666666"
     borderopacity="1.0"
     inkscape:pageopacity="0"
     inkscape:pageshadow="2"
     inkscape:zoom="0.7"
     inkscape:cx="-66.827963"
     inkscape:cy="56.801215"
     inkscape:document-units="mm"
     inkscape:current-layer="layer1"
     showgrid="false"
     inkscape:window-width="1920"
     inkscape:window-height="1017"
     inkscape:window-x="-8"
     inkscape:window-y="-8"
     inkscape:window-maximized="1"
     fit-margin-top="0"
     fit-margin-left="0"
     fit-margin-right="0"
     fit-margin-bottom="0"
     inkscape:snap-global="false" />
  <metadata
     id="metadata5">
    <rdf:RDF>
      <cc:Work
         rdf:about="">
        <dc:format>image/svg+xml</dc:format>
        <dc:type
           rdf:resource="http://purl.org/dc/dcmitype/StillImage" />
        <dc:title />
      </cc:Work>
    </rdf:RDF>
  </metadata>
  <g
     inkscape:label="svg"
     inkscape:groupmode="layer"
     id="layer1"
     style="display:inline"
     transform="translate(274.70366,-133.30423)">
    <g
       id="g58"
       transform="matrix(0.49509974,0,0,0.49509974,5.3207035,81.15374)"
       style="fill:#ffffff">
      <path
         id="path49"
         d="m -467.22335,296.40445 c -0.57004,-0.4484 -1.60912,-3.33505 -6.50009,-18.05782 -10.82297,-32.57924 -17.81005,-54.6299 -22.5298,-71.10222 -2.1095,-7.36233 -4.49422,-16.55998 -4.49422,-17.33379 0,-0.232 1.87523,1.47245 4.16719,3.78765 2.29195,2.3152 4.99343,4.8136 6.00327,5.55201 5.23945,3.83111 10.87219,6.126 17.40845,7.09252 2.47846,0.36649 3.8272,0.40259 8.00755,0.21434 7.16022,-0.32245 8.17513,-0.30423 8.73002,0.15672 0.44111,0.36643 0.45906,0.71637 0.24417,4.7625 -0.30076,5.66306 -0.26781,8.60541 0.1114,9.94944 1.19687,4.24203 6.2855,6.37723 9.67053,4.05778 1.07679,-0.73784 1.87411,-1.87926 2.60185,-3.72478 0.64056,-1.6244 0.7717,-5.63891 0.3834,-11.73627 -0.205,-3.21906 -0.18436,-3.4942 0.32198,-4.29148 0.62294,-0.9809 1.72969,-1.79041 4.98476,-3.64602 1.64283,-0.93652 3.04538,-2.04072 4.80196,-3.78049 1.36472,-1.35166 2.54362,-2.39526 2.61978,-2.3191 0.34352,0.34352 -4.64971,18.26313 -8.63193,30.97803 -5.71209,18.23825 -13.21729,39.55719 -21.21144,60.25221 -2.1474,5.55914 -3.4688,8.62493 -3.90585,9.06198 -0.80388,0.80388 -1.86097,0.85204 -2.78298,0.12679 z"
         style="fill:#ffffff;stroke-width:0.26458332"
         inkscape:connector-curvature="0" />
      <path
         id="path47"
         d="m -451.23241,221.92012 c -1.27653,-1.07412 -1.46779,-2.08271 -1.19939,-6.32497 0.41688,-6.58932 0.32685,-9.09107 -0.3787,-10.52358 -0.37628,-0.76396 -0.99106,-1.4812 -1.5875,-1.85208 -0.9669,-0.60124 -1.02676,-0.60471 -8.93867,-0.51844 -6.43337,0.0701 -8.44133,0.005 -10.44069,-0.34034 -10.63251,-1.83487 -19.68543,-8.67774 -27.84254,-21.04547 -1.45106,-2.20009 -1.49651,-2.32658 -2.09137,-5.82083 -0.50167,-2.9469 -0.60806,-4.54407 -0.60806,-9.12813 0,-4.85039 0.0781,-5.90516 0.61493,-8.30276 1.79016,-7.99535 5.1966,-14.18793 11.01711,-20.02797 3.45344,-3.46504 6.3996,-5.59235 10.58015,-7.63954 4.04507,-1.98083 9.74499,-3.60447 12.93368,-3.6842 l 1.32118,-0.033 0.334,1.95249 c 1.52563,8.91869 11.3503,13.57361 19.49084,9.23475 1.00228,-0.53421 2.22365,-1.54826 3.39197,-2.8162 2.16052,-2.34471 1.83206,-2.39095 5.64947,0.79537 7.92224,6.61258 12.91782,16.31547 13.92715,27.0507 0.63781,6.78368 -0.45382,12.9011 -3.66456,20.53602 -2.77726,6.60411 -4.10072,8.79697 -7.20113,11.93162 -2.03795,2.06045 -3.03736,2.83294 -5.28196,4.08266 -3.3596,1.87051 -4.7838,3.13597 -5.58221,4.96002 -0.69637,1.59094 -0.76432,3.3039 -0.39655,9.99568 0.2537,4.61631 0.008,6.36828 -1.05288,7.51318 -0.81648,0.881 -1.951,0.88291 -2.99427,0.005 z"
         style="fill:#ffffff;stroke-width:0.26458332"
         inkscape:connector-curvature="0" />
      <path
         id="path39"
         d="m -457.79795,136.36874 c -4.87451,-1.8088 -7.8285,-6.68709 -7.01652,-11.58721 1.07419,-6.48255 7.32573,-10.46071 13.49427,-8.58708 2.86089,0.86897 4.98932,2.6534 6.39714,5.36322 2.7357,5.26575 0.48183,11.77227 -4.9607,14.32068 -2.31973,1.08619 -5.73782,1.29798 -7.91419,0.49039 z"
         style="fill:#ffffff;stroke-width:0.26458332"
         inkscape:connector-curvature="0" />
    </g>
  </g>
</svg>
