<?xml version="1.0" encoding="UTF-8" standalone="no"?>
<!-- Created with Inkscape (http://www.inkscape.org/) -->

<svg
   xmlns:dc="http://purl.org/dc/elements/1.1/"
   xmlns:cc="http://creativecommons.org/ns#"
   xmlns:rdf="http://www.w3.org/1999/02/22-rdf-syntax-ns#"
   xmlns:svg="http://www.w3.org/2000/svg"
   xmlns="http://www.w3.org/2000/svg"
   xmlns:sodipodi="http://sodipodi.sourceforge.net/DTD/sodipodi-0.dtd"
   xmlns:inkscape="http://www.inkscape.org/namespaces/inkscape"
   width="100mm"
   height="100mm"
   viewBox="0 0 100 100"
   version="1.1"
   id="svg8"
   inkscape:version="0.92.3 (2405546, 2018-03-11)"
   sodipodi:docname="BackgroundGlasses.svg">
  <defs
     id="defs2" />
  <sodipodi:namedview
     id="base"
     pagecolor="#ebebeb"
     bordercolor="#666666"
     borderopacity="1.0"
     inkscape:pageopacity="0"
     inkscape:pageshadow="2"
     inkscape:zoom="0.9899495"
     inkscape:cx="263.63863"
     inkscape:cy="144.33227"
     inkscape:document-units="mm"
     inkscape:current-layer="layer1"
     showgrid="false"
     inkscape:window-width="1920"
     inkscape:window-height="1017"
     inkscape:window-x="-8"
     inkscape:window-y="-8"
     inkscape:window-maximized="1"
     fit-margin-top="0"
     fit-margin-left="0"
     fit-margin-right="0"
     fit-margin-bottom="0"
     inkscape:snap-global="false" />
  <metadata
     id="metadata5">
    <rdf:RDF>
      <cc:Work
         rdf:about="">
        <dc:format>image/svg+xml</dc:format>
        <dc:type
           rdf:resource="http://purl.org/dc/dcmitype/StillImage" />
        <dc:title></dc:title>
      </cc:Work>
    </rdf:RDF>
  </metadata>
  <g
     inkscape:label="svg"
     inkscape:groupmode="layer"
     id="layer1"
     style="display:inline"
     transform="translate(274.70366,-133.30423)">
    <g
       id="g68">
      <g
         id="g72" />
    </g>
    <path
       style="fill:#ffffff;stroke-width:0.12615658"
       d="m -259.83947,163.81806 c -0.20264,0 -1.33515,0.81679 -3.43062,2.47435 -3.86876,3.06027 -3.9483,3.13403 -3.9483,3.66593 0,0.49136 0.45887,0.86887 0.9166,0.75398 0.15817,-0.0397 1.53509,-1.06827 3.06005,-2.2856 1.52494,-1.21733 2.85186,-2.19867 2.9484,-2.18088 0.11758,0.0217 1.02679,2.97305 2.75008,8.92632 l 2.57463,8.89404 -0.29002,1.19848 c -0.25048,1.03467 -0.28883,1.50889 -0.28015,3.46931 0.009,2.03285 0.0447,2.40008 0.34052,3.50429 1.42362,5.31341 5.7955,9.41403 11.05077,10.3653 1.31571,0.23814 4.26296,0.24248 5.60682,0.008 0.59529,-0.10381 1.6305,-0.38486 2.30064,-0.62437 4.35139,-1.55525 7.73698,-5.3241 8.86028,-9.86363 0.3088,-1.24795 0.35117,-1.33482 0.72959,-1.49293 0.47435,-0.1982 0.58275,-0.34923 0.67982,-0.94642 l 0.0724,-0.44574 h 1.1943 1.1943 l 0.0724,0.44574 c 0.0971,0.59719 0.20547,0.74822 0.67982,0.94642 0.37842,0.15811 0.42079,0.24498 0.72958,1.49293 1.23734,5.0004 5.17588,8.97904 10.19183,10.29581 1.4846,0.38973 4.73676,0.49522 6.39234,0.20722 5.40946,-0.941 9.78787,-4.98972 11.23435,-10.38845 0.29585,-1.10421 0.33151,-1.47144 0.34052,-3.5043 0.009,-1.96042 -0.0294,-2.43463 -0.27991,-3.4693 l -0.29026,-1.19849 2.57463,-8.89404 c 1.72329,-5.95327 2.6325,-8.90467 2.75007,-8.92632 0.0966,-0.0178 1.42347,0.96355 2.94842,2.18088 1.52495,1.21733 2.90187,2.24589 3.06004,2.28561 0.45773,0.11488 0.9166,-0.26263 0.9166,-0.75398 0,-0.5319 -0.0795,-0.60567 -3.94831,-3.66594 -2.09547,-1.65756 -3.22797,-2.47434 -3.43062,-2.47434 -0.77111,0 -0.78104,0.0262 -3.28056,8.7048 -2.68128,9.30976 -2.57464,8.95712 -2.70523,8.95712 -0.0543,0 -0.33372,-0.363 -0.62068,-0.80671 -1.59321,-2.46356 -4.44251,-4.63437 -7.27198,-5.5403 -1.73828,-0.55655 -2.41428,-0.65099 -4.6678,-0.65099 -1.28589,0 -2.44776,0.0656 -2.9016,0.16386 -5.31329,1.15001 -9.25263,4.7415 -10.85193,9.89344 -0.29898,0.96315 -0.37929,1.10387 -0.62931,1.10387 -0.46246,0 -0.81524,0.38717 -0.9198,1.00925 l -0.0954,0.5677 h -1.19159 -1.19159 l -0.0954,-0.5677 c -0.10456,-0.62208 -0.45734,-1.00925 -0.9198,-1.00925 -0.25002,0 -0.33033,-0.14072 -0.62931,-1.10387 -1.5993,-5.15194 -5.53864,-8.74343 -10.85193,-9.89344 -1.00255,-0.21699 -4.80066,-0.21699 -5.80321,0 -3.04649,0.65938 -5.58474,2.07466 -7.60142,4.23857 -0.5033,0.54004 -1.1498,1.34515 -1.43676,1.78886 -0.28695,0.44371 -0.56634,0.80671 -0.62067,0.80671 -0.13059,0 -0.0239,0.35264 -2.70523,-8.95712 -2.49952,-8.67863 -2.50946,-8.7048 -3.28057,-8.7048 z m 18.52581,13.16784 c 1.19216,-0.004 2.37739,0.0744 2.96344,0.2363 1.60743,0.44412 3.61715,1.39028 3.61715,1.70287 0,0.0769 -3.20753,4.31587 -7.12785,9.4201 -3.92032,5.10423 -7.18986,9.28115 -7.26558,9.28163 -0.24088,0.002 -1.64175,-1.55407 -2.26146,-2.51205 -1.24322,-1.92181 -1.82705,-3.96064 -1.82705,-6.38076 0,-1.72353 0.23419,-2.98935 0.82396,-4.45195 1.36683,-3.38968 4.42426,-6.05657 8.07205,-7.04112 0.61398,-0.1657 1.81317,-0.25125 3.00534,-0.25502 z m 33.16168,0.002 c 1.17019,0.003 2.36188,0.0885 3.03442,0.2533 0.53787,0.13182 1.04008,0.31467 1.11594,0.40606 0.10598,0.12771 -1.29906,2.33539 -6.06981,9.53739 -3.41425,5.15421 -6.30564,9.47371 -6.42512,9.59899 -0.2083,0.21844 -0.23647,0.20643 -0.68942,-0.29494 -1.20436,-1.33308 -2.26567,-3.46528 -2.64929,-5.32248 -0.26033,-1.26032 -0.26033,-3.6036 0,-4.86392 0.4728,-2.28894 1.72111,-4.4877 3.49839,-6.16172 1.52342,-1.43493 3.14313,-2.32982 5.28009,-2.91712 0.58606,-0.16107 1.73462,-0.23906 2.9048,-0.23556 z m 6.00304,1.4646 c 0.15012,0 1.51776,0.95419 1.95124,1.36136 0.19081,0.17923 0.34409,0.41441 0.34027,0.52285 -0.004,0.10846 -2.88473,4.48056 -6.40244,9.71554 -3.51771,5.23498 -6.45759,9.53693 -6.53329,9.56006 -0.30036,0.0918 -2.44872,-1.21024 -2.44872,-1.48406 0,-0.18684 12.96861,-19.67575 13.09294,-19.67575 z m -31.11657,1.66122 c 0.28962,0.017 1.72156,1.5265 1.82557,1.9409 0.0594,0.2366 -1.11348,1.89781 -6.38002,9.03571 -3.54905,4.81012 -6.54879,8.81312 -6.6661,8.89552 -0.16931,0.11895 -0.35643,0.0992 -0.90724,-0.0959 -0.91392,-0.32354 -1.9569,-0.83712 -2.13432,-1.05089 -0.11187,-0.13481 1.36133,-2.12778 6.9571,-9.41173 3.90447,-5.0824 7.18076,-9.27212 7.28061,-9.31045 0.007,-0.003 0.0151,-0.004 0.0244,-0.003 z m 34.71376,1.68193 c 0.24796,0 1.05713,1.30919 1.52472,2.46695 0.60168,1.48978 0.8348,2.73829 0.8348,4.47166 0,3.21476 -1.05873,5.8618 -3.27021,8.17653 -1.52577,1.59699 -3.30156,2.65472 -5.49767,3.2744 -1.45655,0.41097 -5.46496,0.41808 -5.87269,0.0103 -0.14118,-0.14118 12.04564,-18.39989 12.28105,-18.39989 z m -31.88091,2.27082 c 0.15623,0 0.4358,0.61243 0.71998,1.57696 0.3555,1.20655 0.43973,4.04246 0.1609,5.41857 -0.44537,2.19796 -1.48886,4.17305 -3.08985,5.84879 -1.52727,1.59858 -3.31036,2.65997 -5.49767,3.27243 -1.15269,0.32276 -4.35443,0.47368 -4.3487,0.205 0.005,-0.21546 11.90081,-16.32175 12.05534,-16.32175 z"
       id="path44"
       inkscape:connector-curvature="0" />
  </g>
</svg>
