<?xml version="1.0" encoding="UTF-8" standalone="no"?>
<!-- Created with Inkscape (http://www.inkscape.org/) -->

<svg
   xmlns:dc="http://purl.org/dc/elements/1.1/"
   xmlns:cc="http://creativecommons.org/ns#"
   xmlns:rdf="http://www.w3.org/1999/02/22-rdf-syntax-ns#"
   xmlns:svg="http://www.w3.org/2000/svg"
   xmlns="http://www.w3.org/2000/svg"
   xmlns:sodipodi="http://sodipodi.sourceforge.net/DTD/sodipodi-0.dtd"
   xmlns:inkscape="http://www.inkscape.org/namespaces/inkscape"
   width="100mm"
   height="100mm"
   viewBox="0 0 100 100"
   version="1.1"
   id="svg8"
   inkscape:version="0.92.3 (2405546, 2018-03-11)"
   sodipodi:docname="BackgroundPlant.svg">
  <defs
     id="defs2" />
  <sodipodi:namedview
     id="base"
     pagecolor="#ebebeb"
     bordercolor="#666666"
     borderopacity="1.0"
     inkscape:pageopacity="0"
     inkscape:pageshadow="2"
     inkscape:zoom="0.7"
     inkscape:cx="343.00642"
     inkscape:cy="358.15938"
     inkscape:document-units="mm"
     inkscape:current-layer="layer1"
     showgrid="false"
     inkscape:window-width="1920"
     inkscape:window-height="1017"
     inkscape:window-x="-8"
     inkscape:window-y="-8"
     inkscape:window-maximized="1"
     fit-margin-top="0"
     fit-margin-left="0"
     fit-margin-right="0"
     fit-margin-bottom="0"
     inkscape:snap-global="false" />
  <metadata
     id="metadata5">
    <rdf:RDF>
      <cc:Work
         rdf:about="">
        <dc:format>image/svg+xml</dc:format>
        <dc:type
           rdf:resource="http://purl.org/dc/dcmitype/StillImage" />
        <dc:title></dc:title>
      </cc:Work>
    </rdf:RDF>
  </metadata>
  <g
     inkscape:label="svg"
     inkscape:groupmode="layer"
     id="layer1"
     style="display:inline"
     transform="translate(274.70366,-133.30423)">
    <g
       id="g68">
      <g
         id="g72" />
    </g>
    <g
       id="g98"
       transform="matrix(0.50854315,0,0,0.50854315,-2.4849071,84.65605)"
       style="fill:#ffffff">
      <path
         id="path75"
         d="m -475.04989,276.67205 c -0.40429,-0.33045 -0.68274,-1.06909 -0.97246,-2.57969 -0.67334,-3.51084 -7.78008,-46.64616 -7.78008,-47.22231 0,-0.53491 0.007,-0.53498 46.83125,-0.53498 46.82466,0 46.83125,7e-5 46.83125,0.53498 0,0.57615 -7.10673,43.71147 -7.78007,47.22231 -0.65586,3.41962 4.18152,3.04271 -39.05118,3.04271 -35.33371,0 -37.54511,-0.0269 -38.07871,-0.46302 z"
         style="fill:#ffffff;stroke-width:0.26458332"
         inkscape:connector-curvature="0" />
      <path
         id="path73"
         transform="matrix(0.26458333,0,0,0.26458333,-274.70366,133.30423)"
         d="m -601.60742,178.61328 c -1.75631,0 -17.6875,16.24081 -17.6875,18.03125 0,0.86672 2.24528,6.72604 4.99023,13.02149 2.74496,6.2954 4.99622,12.1345 5,12.9746 0.0189,3.14979 -3.00238,5.97266 -6.39258,5.97266 -4.32083,0 -5.56592,-1.55287 -10.82812,-13.5 -3.69404,-8.38681 -4.79582,-10.04704 -6.83594,-10.28516 -3.55034,-0.41441 -38.2474,7.22657 -38.67773,8.51758 -0.20077,0.60231 1.5718,2.42036 3.93945,4.04102 6.59751,4.51612 25.52441,14.37588 32.27344,16.8125 5.72704,2.06766 6.04814,2.3603 6.34179,5.7793 l 0.3086,3.60156 -86.52344,0.26562 c -80.27879,0.24711 -86.6488,0.39077 -88.24414,1.98633 -3.4004,3.4009 -2.82338,11.3766 3.60352,49.78125 3.35947,20.075 6.34972,37.28751 6.64453,38.25 0.50759,1.65816 9.97091,1.75 180.40039,1.75 170.42948,0 179.89284,-0.0918 180.40039,-1.75 0.29461,-0.96249 3.28502,-18.175 6.64453,-38.25 6.42682,-38.40435 7.00381,-46.38028 3.60352,-49.78125 -1.59085,-1.5911 -8.05239,-1.75613 -86.4336,-2.21875 l -84.71484,-0.5 -0.7168,-15 c -1.16681,-24.42637 -4.7612,-49.5 -7.0957,-49.5 z m -185.56055,83.52149 c 2.45233,0.0764 4.67919,1.61129 5.66992,4.14453 0.94277,2.41066 6.20313,42.85463 6.20313,47.6914 0,0.90354 -0.90001,2.54259 -2,3.64258 -2.84822,2.84822 -7.54975,2.61508 -9.57422,-0.47461 -1.07524,-1.64107 -2.42975,-9.13545 -4.01953,-22.25 -3.34995,-27.63466 -3.23584,-30.63002 1.23047,-32.32812 0.83026,-0.31567 1.67279,-0.45126 2.49023,-0.42578 z m 23.49219,13.0625 c 1.5491,0.11502 3.13843,0.88427 4.48633,2.43359 1.55274,1.78481 2.96156,11.14126 4.5332,30.0957 0.57283,6.90834 0.43333,7.81277 -1.50391,9.75 -3.22522,3.22522 -7.85329,2.39794 -10.10351,-1.80664 -1.04172,-1.94642 -4.03125,-26.47728 -4.03125,-33.08008 0,-4.73248 3.21112,-7.64564 6.61914,-7.39257 z"
         style="fill:#ffffff;stroke-width:0.99999994"
         inkscape:connector-curvature="0" />
      <path
         id="path67"
         d="m -460.28982,183.5233 c -3.09431,-3.21455 -3.9538,-4.38399 -3.51799,-4.78664 0.24043,-0.22214 14.63492,-2.14327 16.05891,-2.14327 0.65837,0 0.86827,0.29634 2.46038,3.47357 1.14211,2.2792 1.65105,3.56314 1.48014,3.73405 -0.27292,0.27292 -11.93062,2.84189 -12.90956,2.84485 -0.37578,0.001 -1.56983,-1.04273 -3.57188,-3.12256 z"
         style="fill:#ffffff;stroke-width:0.26458332"
         inkscape:connector-curvature="0" />
      <path
         id="path65"
         d="m -442.25237,178.1805 -1.56277,-3.17539 1.07696,-2.5793 c 3.49721,-8.37575 4.11473,-9.72304 4.45643,-9.72304 0.4174,0 1.92551,4.93727 3.05931,10.01565 l 0.70026,3.1365 -2.74113,2.75048 c -1.50761,1.51277 -2.89528,2.75049 -3.0837,2.75049 -0.18842,0 -1.04583,-1.42892 -1.90536,-3.17539 z"
         style="fill:#ffffff;stroke-width:0.26458332"
         inkscape:connector-curvature="0" />
      <path
         id="path63"
         d="m -466.8239,174.92805 c -0.1563,-0.18833 -0.97879,-1.77534 -1.82775,-3.5267 -1.69588,-3.4985 -2.93323,-6.84911 -2.63825,-7.14409 0.24088,-0.24089 17.106,0.95273 17.68635,1.25174 0.65094,0.33539 4.56701,7.116 4.27717,7.40585 -0.19227,0.19227 -15.72228,2.35488 -16.91501,2.35548 -0.16408,8e-5 -0.42621,-0.15394 -0.58251,-0.34228 z"
         style="fill:#ffffff;stroke-width:0.26458332"
         inkscape:connector-curvature="0" />
      <path
         id="path61"
         d="m -432.74439,171.15221 c -0.14192,-0.37328 -0.26064,-0.87929 -0.26383,-1.12448 -0.003,-0.24519 -0.36896,-1.81502 -0.81284,-3.48851 -0.44388,-1.67349 -0.86828,-3.2918 -0.94311,-3.59626 -0.0784,-0.31918 0.0484,-0.73796 0.29949,-0.9891 0.37308,-0.37308 0.89813,-0.41583 3.66088,-0.29801 8.10554,0.34564 9.17846,0.43525 9.17846,0.76653 0,0.82498 -9.69813,9.40851 -10.63023,9.40851 -0.12694,0 -0.3469,-0.30541 -0.48882,-0.67868 z"
         style="fill:#ffffff;stroke-width:0.26458332"
         inkscape:connector-curvature="0" />
      <path
         id="path59"
         d="m -446.5916,169.91266 c -2.46372,-3.94051 -4.40671,-7.55675 -4.30032,-8.00365 0.0693,-0.29104 0.8019,-3.86291 1.62802,-7.9375 0.82612,-4.07458 1.61822,-7.52739 1.76022,-7.67291 0.76945,-0.78853 7.08747,8.80622 7.09532,10.77517 0.003,0.73513 -5.28199,13.4342 -5.59086,13.4342 -0.12109,0 -0.38767,-0.26789 -0.59238,-0.59531 z"
         style="fill:#ffffff;stroke-width:0.26458332"
         inkscape:connector-curvature="0" />
      <path
         id="path57"
         d="m -465.67847,160.93491 c -4.15469,-0.32102 -6.7256,-0.62851 -6.91311,-0.82682 -0.37381,-0.39535 -1.02099,-3.69172 -1.43776,-7.32313 -0.57403,-5.00164 0.1481,-9.633 1.81248,-11.62433 l 0.7561,-0.90463 1.37131,1.6478 c 3.76769,4.52734 13.80369,18.52399 13.80369,19.25124 0,0.45617 -0.91854,0.43464 -9.39271,-0.22013 z"
         style="fill:#ffffff;stroke-width:0.26458332"
         inkscape:connector-curvature="0" />
      <path
         id="path55"
         d="m -426.62347,158.31218 c -2.82173,-0.11449 -5.22897,-0.30672 -5.34943,-0.42718 -0.22137,-0.22137 2.51407,-9.27786 2.9284,-9.69533 0.12314,-0.12408 3.65853,-0.68649 7.85642,-1.24981 4.19789,-0.56331 7.96448,-1.0848 8.3702,-1.15886 0.48982,-0.0894 0.78592,-0.009 0.88127,0.23953 0.28848,0.75177 -4.87723,10.68011 -6.294,12.09688 -0.53759,0.53758 -0.15995,0.52882 -8.39286,0.19477 z"
         style="fill:#ffffff;stroke-width:0.26458332"
         inkscape:connector-curvature="0" />
      <path
         id="path53"
         d="m -454.8187,156.70829 c -1.78215,-2.721 -7.19733,-10.20468 -10.19626,-14.09108 -2.95198,-3.82553 -3.20679,-4.24147 -2.7866,-4.54872 1.09506,-0.80072 5.24464,-0.78909 8.47309,0.0237 2.10284,0.52944 6.20842,2.59975 7.59418,3.8295 l 1.10879,0.98397 -1.43445,7.08508 c -0.78894,3.8968 -1.56304,7.26097 -1.72022,7.47593 -0.23557,0.32216 -0.41806,0.18888 -1.03853,-0.75843 z"
         style="fill:#ffffff;stroke-width:0.26458332"
         inkscape:connector-curvature="0" />
      <path
         id="path51"
         d="m -437.42456,154.43358 c -0.84205,-0.85799 -2.16013,-2.56367 -2.92908,-3.79041 -0.76895,-1.22673 -2.42999,-3.41402 -3.6912,-4.86064 l -2.29309,-2.63022 0.7098,-3.45394 c 0.85142,-4.14304 1.20423,-5.43831 1.48132,-5.43831 0.24175,0 11.10591,12.54987 11.2846,13.03554 0.17244,0.46869 -2.37134,8.47796 -2.73068,8.59774 -0.16537,0.0551 -0.98962,-0.60177 -1.83167,-1.45976 z"
         style="fill:#ffffff;stroke-width:0.26458332"
         inkscape:connector-curvature="0" />
      <path
         id="path49"
         d="m -427.71076,143.75317 c 0,-0.63 2.68837,-8.84808 2.98931,-9.13801 0.35262,-0.33973 16.13006,-5.1176 16.8993,-5.1176 0.62283,0 0.61357,0.22402 -0.16823,4.0678 -0.76961,3.78384 -1.86725,7.56121 -2.3323,8.02626 -0.3018,0.3018 -14.89135,2.453 -16.66048,2.45656 -0.40018,7.9e-4 -0.7276,-0.13195 -0.7276,-0.29501 z"
         style="fill:#ffffff;stroke-width:0.26458332"
         inkscape:connector-curvature="0" />
      <path
         id="path47"
         d="m -433.33685,141.09113 c -5.08535,-5.7014 -9.45516,-10.98067 -9.45516,-11.42301 0,-0.79794 1.77508,-5.08135 3.35594,-8.09813 1.61813,-3.08792 2.37165,-4.24327 2.76749,-4.24327 0.28997,0 8.16596,15.87523 8.1611,16.44992 -0.005,0.56359 -2.61351,8.76198 -2.86956,9.01803 -0.13394,0.13394 -0.96594,-0.58927 -1.95981,-1.70354 z"
         style="fill:#ffffff;stroke-width:0.26458332"
         inkscape:connector-curvature="0" />
      <path
         id="path45"
         d="m -423.40999,129.69599 c 0.0682,-0.1819 1.70547,-5.39088 3.63832,-11.57552 1.93285,-6.18463 3.60419,-11.34591 3.71408,-11.46951 0.94189,-1.05931 5.5982,4.1861 7.15537,8.06063 1.00034,2.48905 1.56949,5.04844 1.74087,7.82848 0.16441,2.66691 0.15871,2.70319 -0.46805,2.97812 -1.16815,0.51243 -14.76212,4.50853 -15.33712,4.50853 -0.34379,0 -0.51862,-0.13038 -0.44347,-0.33073 z"
         style="fill:#ffffff;stroke-width:0.26458332"
         inkscape:connector-curvature="0" />
      <path
         id="path37"
         d="m -430.56467,121.15728 c -1.92285,-3.86307 -3.49609,-7.24523 -3.49609,-7.5159 0,-0.6672 5.09315,-5.47343 7.02619,-6.63037 2.83531,-1.69697 7.05842,-2.71802 7.39925,-1.78898 0.15529,0.42333 -6.86984,22.77123 -7.19196,22.8786 -0.13271,0.0442 -1.81454,-3.08027 -3.73739,-6.94335 z"
         style="fill:#ffffff;stroke-width:0.26458332"
         inkscape:connector-curvature="0" />
    </g>
  </g>
</svg>
