<?xml version="1.0" encoding="UTF-8" standalone="no"?>
<!-- Created with Inkscape (http://www.inkscape.org/) -->

<svg
   xmlns:dc="http://purl.org/dc/elements/1.1/"
   xmlns:cc="http://creativecommons.org/ns#"
   xmlns:rdf="http://www.w3.org/1999/02/22-rdf-syntax-ns#"
   xmlns:svg="http://www.w3.org/2000/svg"
   xmlns="http://www.w3.org/2000/svg"
   xmlns:sodipodi="http://sodipodi.sourceforge.net/DTD/sodipodi-0.dtd"
   xmlns:inkscape="http://www.inkscape.org/namespaces/inkscape"
   width="100mm"
   height="100mm"
   viewBox="0 0 100 100"
   version="1.1"
   id="svg8"
   inkscape:version="0.92.3 (2405546, 2018-03-11)"
   sodipodi:docname="BackgroundCloud.svg">
  <defs
     id="defs2" />
  <sodipodi:namedview
     id="base"
     pagecolor="#ebebeb"
     bordercolor="#666666"
     borderopacity="1.0"
     inkscape:pageopacity="0"
     inkscape:pageshadow="2"
     inkscape:zoom="0.7"
     inkscape:cx="139.6858"
     inkscape:cy="92.099398"
     inkscape:document-units="mm"
     inkscape:current-layer="layer1"
     showgrid="false"
     inkscape:window-width="1920"
     inkscape:window-height="1017"
     inkscape:window-x="-8"
     inkscape:window-y="-8"
     inkscape:window-maximized="1"
     fit-margin-top="0"
     fit-margin-left="0"
     fit-margin-right="0"
     fit-margin-bottom="0"
     inkscape:snap-global="false" />
  <metadata
     id="metadata5">
    <rdf:RDF>
      <cc:Work
         rdf:about="">
        <dc:format>image/svg+xml</dc:format>
        <dc:type
           rdf:resource="http://purl.org/dc/dcmitype/StillImage" />
        <dc:title />
      </cc:Work>
    </rdf:RDF>
  </metadata>
  <g
     inkscape:label="svg"
     inkscape:groupmode="layer"
     id="layer1"
     style="display:inline"
     transform="translate(274.70366,-133.30423)">
    <g
       id="g63"
       style="fill:#ffffff">
      <g
         id="g68"
         style="fill:#ffffff">
        <g
           id="g72"
           style="fill:#ffffff" />
        <g
           id="g60"
           transform="matrix(0.52130275,0,0,0.52130275,4.764183,82.504643)"
           style="fill:#ffffff">
          <path
             id="path49"
             d="m -464.52334,203.43953 c 1.53216,-0.66003 3.03942,-2.12286 3.90932,-3.79408 0.92182,-1.77098 0.9897,-4.68948 0.15152,-6.51468 -2.35122,-5.11997 -8.78566,-6.33292 -12.84188,-2.42082 -2.90225,2.79914 -3.0236,7.62248 -0.26886,10.68641 2.43574,2.70913 5.76117,3.45991 9.0499,2.04317 z"
             style="fill:#ffffff;stroke-width:0.26458332"
             inkscape:connector-curvature="0" />
          <path
             id="path40"
             d="m -411.75528,202.8386 c 2.71441,-0.81692 4.59105,-2.82716 5.32926,-5.70865 0.9128,-3.56303 -0.92335,-7.37356 -4.34899,-9.02536 -1.69494,-0.81728 -4.70229,-0.8497 -6.40136,-0.069 -2.79891,1.28608 -4.46852,3.6881 -4.68891,6.74581 -0.16297,2.26091 0.41202,4.02733 1.83844,5.64782 2.14831,2.44061 5.20719,3.33161 8.27156,2.40937 z"
             style="fill:#ffffff;stroke-width:0.26458332"
             inkscape:connector-curvature="0" />
        </g>
      </g>
      <path
         inkscape:connector-curvature="0"
         id="path44"
         d="m -235.66326,204.60965 c -10.49771,-0.38911 -17.48255,-1.68159 -22.74538,-4.20886 -4.09463,-1.96629 -7.30433,-4.9121 -8.3334,-7.64828 -1.28635,-3.42026 -0.2551,-7.9055 2.9287,-12.73784 2.51397,-3.81569 6.72775,-6.08358 12.54051,-6.74939 1.52321,-0.17448 3.70038,-0.0842 4.96957,0.20601 1.76545,0.40372 1.62317,0.4242 1.91796,-0.27601 1.18862,-2.8234 2.33897,-4.57605 4.07614,-6.21025 3.70619,-3.48652 8.6532,-5.09714 15.66817,-5.10117 6.8787,-0.004 11.84784,1.62716 15.54074,5.10117 1.73716,1.6342 2.88752,3.38685 4.07614,6.21025 0.29478,0.70021 0.1525,0.67973 1.91795,0.27601 1.26919,-0.29023 3.44637,-0.38049 4.96958,-0.20601 5.81276,0.66581 10.02653,2.9337 12.54051,6.74939 1.62737,2.47003 2.54461,4.47064 3.06959,6.69519 0.57497,2.43636 0.53263,4.25182 -0.14089,6.04265 -1.02907,2.73618 -4.23878,5.68199 -8.3334,7.64828 -5.37598,2.5816 -12.15191,3.81096 -23.25508,4.21917 -3.92716,0.14438 -17.40902,0.13789 -21.40741,-0.0103 z"
         style="fill:#ffffff;stroke-width:0.12742506" />
    </g>
  </g>
</svg>
