<?xml version="1.0" encoding="UTF-8" standalone="no"?>
<!-- Created with Inkscape (http://www.inkscape.org/) -->

<svg
   xmlns:dc="http://purl.org/dc/elements/1.1/"
   xmlns:cc="http://creativecommons.org/ns#"
   xmlns:rdf="http://www.w3.org/1999/02/22-rdf-syntax-ns#"
   xmlns:svg="http://www.w3.org/2000/svg"
   xmlns="http://www.w3.org/2000/svg"
   xmlns:sodipodi="http://sodipodi.sourceforge.net/DTD/sodipodi-0.dtd"
   xmlns:inkscape="http://www.inkscape.org/namespaces/inkscape"
   width="100mm"
   height="100mm"
   viewBox="0 0 100 100"
   version="1.1"
   id="svg8"
   inkscape:version="0.92.3 (2405546, 2018-03-11)"
   sodipodi:docname="BackgroundFlower.svg">
  <defs
     id="defs2" />
  <sodipodi:namedview
     id="base"
     pagecolor="#ebebeb"
     bordercolor="#666666"
     borderopacity="1.0"
     inkscape:pageopacity="0"
     inkscape:pageshadow="2"
     inkscape:zoom="0.7"
     inkscape:cx="-148.36541"
     inkscape:cy="108.20854"
     inkscape:document-units="mm"
     inkscape:current-layer="layer1"
     showgrid="false"
     inkscape:window-width="1920"
     inkscape:window-height="1017"
     inkscape:window-x="-8"
     inkscape:window-y="-8"
     inkscape:window-maximized="1"
     fit-margin-top="0"
     fit-margin-left="0"
     fit-margin-right="0"
     fit-margin-bottom="0" />
  <metadata
     id="metadata5">
    <rdf:RDF>
      <cc:Work
         rdf:about="">
        <dc:format>image/svg+xml</dc:format>
        <dc:type
           rdf:resource="http://purl.org/dc/dcmitype/StillImage" />
        <dc:title />
      </cc:Work>
    </rdf:RDF>
  </metadata>
  <g
     inkscape:label="svg"
     inkscape:groupmode="layer"
     id="layer1"
     style="display:inline"
     transform="translate(274.70366,-132.13525)">
    <path
       style="fill:#ffffff;stroke-width:0.42280403"
       d="M 188.97852 47.244141 C 185.31526 47.244141 181.65326 47.44825 178.78711 47.857422 C 159.83164 50.563488 142.59176 61.696957 132.73438 77.597656 C 125.9666 88.514595 122.58932 102.37161 123.77148 114.37305 C 124.02925 116.99184 124.16978 119.20043 124.08398 119.2832 C 123.99804 119.36597 121.14786 119.20465 117.75195 118.92383 C 102.44657 117.65806 87.960994 121.35921 74.925781 129.86719 C 69.938732 133.12219 62.297659 140.469 58.912109 145.26367 C 43.354213 167.29688 43.354213 194.53714 58.912109 216.57031 C 63.84152 223.55144 73.699737 232.0186 81.041016 235.57812 C 82.269324 236.1737 83.398908 236.85646 83.552734 237.0957 C 83.706486 237.33487 83.361976 238.31707 82.787109 239.2793 C 79.213717 245.26089 76.377686 254.51963 75.523438 262.99023 C 74.322757 274.89571 77.300806 288.26421 83.496094 298.77734 C 93.801467 316.26503 112.38262 328.12605 132.92383 330.33008 C 151.8528 332.36116 170.72475 326.16916 184.88672 313.2832 L 188.97852 309.56055 L 193.04492 313.25977 C 209.57994 328.30486 232.06314 334.02482 253.85938 328.73242 C 265.31554 325.95073 275.04309 320.59446 283.63086 312.33789 C 294.72982 301.66704 300.96366 288.84235 302.44531 273.63281 C 303.55313 262.26093 300.61584 248.39529 295.16992 239.2793 C 294.59513 238.31707 294.25047 237.33495 294.4043 237.0957 C 294.55805 236.85653 295.6897 236.1737 296.91797 235.57812 C 304.25929 232.0186 314.11743 223.55144 319.04688 216.57031 C 337.009 191.1322 333.97357 158.41769 311.66211 136.9668 C 297.92081 123.7555 279.57289 117.3221 260.20508 118.92383 C 256.80917 119.20465 253.9608 119.36597 253.875 119.2832 C 253.78894 119.20054 253.92974 116.99184 254.1875 114.37305 C 255.36966 102.37161 251.99234 88.514595 245.22461 77.597656 C 235.36722 61.696957 218.12738 50.563488 199.17188 47.857422 C 196.30573 47.44825 192.64178 47.244141 188.97852 47.244141 z M 188.97852 143.60547 C 196.20652 143.60547 198.01557 143.74011 201.86328 144.56836 C 214.6741 147.32609 224.98206 152.75557 234.26953 161.63867 C 243.38484 170.35717 249.44056 181.28587 252.01562 193.66016 C 253.26763 199.6769 253.3717 210.36069 252.23633 216.27539 C 250.59341 224.83409 246.53657 234.15805 241.35352 241.28711 C 239.96477 243.19721 236.68383 246.82486 234.0625 249.34766 C 223.13332 259.86597 210.06002 265.76316 194.1543 267.34766 C 189.52528 267.80831 188.03317 267.80259 183.19727 267.3125 C 167.9604 265.76826 154.62562 259.67344 143.89648 249.34766 C 136.26789 242.00581 131.1413 234.04658 127.97266 224.62305 C 125.63872 217.68191 124.98412 213.46968 124.97656 205.37695 C 124.97021 197.40412 125.88095 191.81599 128.23828 185.36914 C 135.88831 164.44798 153.50074 149.43223 176.0957 144.56836 C 179.94338 143.74015 181.75055 143.60547 188.97852 143.60547 z "
       transform="matrix(0.26458333,0,0,0.26458333,-274.70366,132.13525)"
       id="path3435" />
  </g>
</svg>
