<?xml version="1.0" encoding="UTF-8" standalone="no"?>
<!-- Created with Inkscape (http://www.inkscape.org/) -->

<svg
   xmlns:dc="http://purl.org/dc/elements/1.1/"
   xmlns:cc="http://creativecommons.org/ns#"
   xmlns:rdf="http://www.w3.org/1999/02/22-rdf-syntax-ns#"
   xmlns:svg="http://www.w3.org/2000/svg"
   xmlns="http://www.w3.org/2000/svg"
   xmlns:sodipodi="http://sodipodi.sourceforge.net/DTD/sodipodi-0.dtd"
   xmlns:inkscape="http://www.inkscape.org/namespaces/inkscape"
   width="100mm"
   height="100mm"
   viewBox="0 0 100 100"
   version="1.1"
   id="svg8"
   inkscape:version="0.92.3 (2405546, 2018-03-11)"
   sodipodi:docname="BackgroundTree.svg">
  <defs
     id="defs2" />
  <sodipodi:namedview
     id="base"
     pagecolor="#ebebeb"
     bordercolor="#666666"
     borderopacity="1.0"
     inkscape:pageopacity="0"
     inkscape:pageshadow="2"
     inkscape:zoom="1.4"
     inkscape:cx="100.18046"
     inkscape:cy="146.88942"
     inkscape:document-units="mm"
     inkscape:current-layer="layer1"
     showgrid="false"
     inkscape:window-width="1920"
     inkscape:window-height="1017"
     inkscape:window-x="-8"
     inkscape:window-y="-8"
     inkscape:window-maximized="1"
     fit-margin-top="0"
     fit-margin-left="0"
     fit-margin-right="0"
     fit-margin-bottom="0"
     inkscape:snap-global="false" />
  <metadata
     id="metadata5">
    <rdf:RDF>
      <cc:Work
         rdf:about="">
        <dc:format>image/svg+xml</dc:format>
        <dc:type
           rdf:resource="http://purl.org/dc/dcmitype/StillImage" />
        <dc:title></dc:title>
      </cc:Work>
    </rdf:RDF>
  </metadata>
  <g
     inkscape:label="svg"
     inkscape:groupmode="layer"
     id="layer1"
     style="display:inline"
     transform="translate(274.70366,-133.30423)">
    <g
       id="g42"
       transform="matrix(0.50547166,0,0,0.50547166,0.19462349,91.186533)"
       style="fill:#ffffff">
      <path
         id="path34"
         d="m -446.17891,269.19268 c -6.96386,-0.57262 -15.47623,-2.81571 -17.6606,-4.65373 -1.49473,-1.25774 -1.51832,-2.0316 -0.18649,-6.11842 2.30335,-7.068 4.00026,-14.46375 4.8102,-20.9645 0.53828,-4.32037 0.76172,-11.10321 0.47366,-14.37845 -0.15342,-1.74439 -0.13805,-2.7226 0.0465,-2.96212 0.15159,-0.1967 0.90308,-0.60146 1.66997,-0.89947 3.86547,-1.50209 7.33036,-3.79967 10.3796,-6.88275 3.48412,-3.52278 5.48245,-6.8026 7.26514,-11.92414 0.52618,-1.51168 1.00814,-2.79996 1.07101,-2.86283 0.0629,-0.0629 0.83983,0.55737 1.72655,1.37832 2.25169,2.08466 4.22639,3.36913 8.97539,5.83814 l 4.11296,2.13833 -0.0357,0.92384 c -0.0196,0.50811 -0.23653,2.53118 -0.48202,4.49571 -0.60362,4.83053 -0.82697,14.79833 -0.43278,19.31458 0.75178,8.61329 2.74538,18.41256 5.54843,27.27253 1.13613,3.59116 1.15527,4.31014 0.14666,5.50881 -0.51954,0.61744 -1.28165,1.0003 -3.2397,1.62751 -8.31739,2.6643 -16.74225,3.76096 -24.18884,3.14864 z"
         style="fill:#ffffff;stroke-width:0.26458332"
         inkscape:connector-curvature="0" />
      <path
         id="path26"
         d="m -478.66061,218.39189 c -8.1292,-0.87496 -14.90451,-3.37353 -19.82632,-7.31147 -8.16419,-6.53215 -14.66043,-20.13039 -16.72414,-35.00773 -0.5604,-4.03995 -0.42656,-12.95893 0.25014,-16.66875 0.98829,-5.41804 2.82529,-9.94834 5.3737,-13.25231 2.39013,-3.09875 2.27983,-2.79342 1.35846,-3.76038 -2.38129,-2.49914 -3.62526,-5.85557 -3.59881,-9.71022 0.0293,-4.27118 1.47994,-7.52074 4.85547,-10.87666 4.13323,-4.10923 9.93245,-5.73513 14.93966,-4.18856 0.97083,0.29986 1.91947,0.50822 2.10809,0.46302 0.18862,-0.0452 1.47052,-1.33233 2.84867,-2.8603 10.13624,-11.23817 22.27712,-17.967978 35.55509,-19.708568 13.0519,-1.71096 29.36364,2.38666 39.55805,9.937248 2.14107,1.5858 5.53358,5.09273 7.12466,7.36494 l 1.18666,1.69467 3.0427,0.0614 c 4.61077,0.0931 7.77603,1.2736 11.86416,4.42496 1.91463,1.4759 3.77321,3.57562 5.59596,6.32203 5.44497,8.20409 5.62777,18.20801 0.45782,25.05416 l -1.26948,1.68106 2.07873,2.16524 c 3.38524,3.52615 5.49452,7.05061 6.85965,11.46198 0.68718,2.22059 0.71991,2.58126 0.7273,8.01378 0.006,4.42496 -0.0965,6.20269 -0.46164,8.0032 -1.12524,5.54878 -2.81341,9.86486 -5.12623,13.10598 -5.94538,8.33171 -18.05909,13.16332 -30.61352,12.21037 -4.83097,-0.3667 -8.29044,-1.50531 -15.64504,-5.14923 -4.89075,-2.42318 -8.09146,-4.75888 -9.84888,-7.18718 -1.7603,-2.43228 -2.0815,-2.72689 -2.9731,-2.72689 -1.17832,0 -1.66814,0.75522 -2.34609,3.61726 -1.89301,7.99162 -5.95754,14.14792 -11.89674,18.01929 -2.63381,1.7168 -5.34493,2.90591 -9.25744,4.06034 -2.73142,0.80595 -3.04113,0.83964 -8.39233,0.9131 -3.05594,0.042 -6.56828,-0.0327 -7.80521,-0.16579 z"
         style="fill:#ffffff;stroke-width:0.26458332"
         inkscape:connector-curvature="0" />
    </g>
  </g>
</svg>
