<?xml version="1.0" encoding="UTF-8" standalone="no"?>
<!-- Created with Inkscape (http://www.inkscape.org/) -->

<svg
   xmlns:dc="http://purl.org/dc/elements/1.1/"
   xmlns:cc="http://creativecommons.org/ns#"
   xmlns:rdf="http://www.w3.org/1999/02/22-rdf-syntax-ns#"
   xmlns:svg="http://www.w3.org/2000/svg"
   xmlns="http://www.w3.org/2000/svg"
   xmlns:sodipodi="http://sodipodi.sourceforge.net/DTD/sodipodi-0.dtd"
   xmlns:inkscape="http://www.inkscape.org/namespaces/inkscape"
   width="100mm"
   height="100mm"
   viewBox="0 0 100 100"
   version="1.1"
   id="svg8"
   inkscape:version="0.92.3 (2405546, 2018-03-11)"
   sodipodi:docname="ForegroundShell.svg">
  <defs
     id="defs2" />
  <sodipodi:namedview
     id="base"
     pagecolor="#ebebeb"
     bordercolor="#666666"
     borderopacity="1.0"
     inkscape:pageopacity="0"
     inkscape:pageshadow="2"
     inkscape:zoom="0.49497475"
     inkscape:cx="-90.601329"
     inkscape:cy="-3.1606428"
     inkscape:document-units="mm"
     inkscape:current-layer="layer1"
     showgrid="false"
     inkscape:window-width="1920"
     inkscape:window-height="1017"
     inkscape:window-x="-8"
     inkscape:window-y="-8"
     inkscape:window-maximized="1"
     fit-margin-top="0"
     fit-margin-left="0"
     fit-margin-right="0"
     fit-margin-bottom="0"
     inkscape:snap-global="false" />
  <metadata
     id="metadata5">
    <rdf:RDF>
      <cc:Work
         rdf:about="">
        <dc:format>image/svg+xml</dc:format>
        <dc:type
           rdf:resource="http://purl.org/dc/dcmitype/StillImage" />
        <dc:title></dc:title>
      </cc:Work>
    </rdf:RDF>
  </metadata>
  <g
     inkscape:label="svg"
     inkscape:groupmode="layer"
     id="layer1"
     style="display:inline"
     transform="translate(274.70366,-133.30423)">
    <g
       id="g68">
      <g
         id="g72">
        <circle
           style="fill:#ffffff;fill-opacity:1;stroke:none;stroke-width:0.13229166"
           id="path1439"
           cx="-224.70366"
           cy="183.30423"
           r="50" />
      </g>
    </g>
    <path
       style="fill:#48bcda;stroke-width:0.17616606"
       d="m -222.1009,153.4832 c -1.98309,0 -3.96624,0.0878 -5.32008,0.26356 -5.84725,0.75917 -11.80771,2.94022 -16.34835,5.98208 -7.11814,4.76858 -10.52756,10.499 -12.17095,20.45626 -0.21728,1.31651 -0.31535,3.57384 -0.4005,9.22979 l -0.11251,7.48706 -0.55052,1.14507 c -0.62301,1.29577 -1.31073,2.25228 -3.30552,4.59993 -0.76423,0.89942 -1.53516,1.95672 -1.71349,2.34934 -0.39183,0.86265 -0.42447,2.04963 -0.075,2.72542 0.71331,1.37939 3.54173,3.13305 6.26112,3.88185 1.7614,0.48501 5.45667,1.00345 8.80831,1.23557 1.50181,0.10401 3.04767,0.21867 3.43523,0.25496 1.06932,0.1002 18.55193,-0.0629 19.519,-0.18202 0.46493,-0.0573 0.81799,-0.18543 0.78483,-0.28489 -0.0332,-0.0995 -0.88926,-0.43277 -1.90239,-0.74079 -4.19026,-1.27396 -6.92248,-2.83195 -9.59519,-5.47148 -4.10722,-4.05622 -6.32555,-9.21751 -6.54946,-15.23836 -0.2285,-6.14428 1.75268,-11.65613 5.69615,-15.84806 6.07904,-6.46206 14.90594,-8.15575 22.43709,-4.30507 2.73386,1.39784 5.16577,3.66165 6.94823,6.46757 4.57255,7.19804 2.51334,17.15143 -4.21732,20.38365 -2.32366,1.11588 -3.30569,1.31325 -6.51986,1.31058 -2.72437,-0.002 -2.87424,-0.0214 -4.4826,-0.57838 -4.16628,-1.44286 -6.55294,-4.00607 -7.05387,-7.57583 -0.55929,-3.9856 1.55382,-7.29504 5.42055,-8.48935 1.38095,-0.42653 3.80361,-0.46791 5.08611,-0.0871 2.17939,0.64721 3.75046,2.67519 4.28372,5.52962 0.26851,1.43728 -0.46556,2.39475 -1.48124,1.93197 -0.45746,-0.20842 -0.65564,-0.61159 -0.97408,-1.98152 -0.59448,-2.55756 -2.0073,-3.58516 -4.69179,-3.41288 -2.37529,0.15245 -4.43504,1.54997 -5.08164,3.44763 -0.3541,1.03929 -0.34971,2.7564 0.0103,3.87118 1.47527,4.5679 8.89219,6.5831 14.42876,3.92039 3.23619,-1.5564 5.13161,-4.78605 5.32662,-9.07668 0.1869,-4.11229 -1.27665,-7.75268 -4.35771,-10.84007 -2.00041,-2.0045 -4.1846,-3.24732 -7.01774,-3.99298 -2.30665,-0.60709 -5.74395,-0.63854 -7.87139,-0.0722 -1.76334,0.46937 -3.94863,1.50567 -5.63937,2.67449 -1.50551,1.04075 -3.75258,3.32117 -4.72793,4.79811 -2.39407,3.62523 -3.61461,8.72665 -3.12626,13.06657 0.83355,7.40765 4.78353,13.16701 10.99902,16.038 1.33065,0.61462 5.18984,1.86151 8.10984,2.62011 2.65306,0.68927 4.48043,0.89375 7.94949,0.88909 2.562,-0.003 3.55099,-0.08 5.15011,-0.39809 3.56425,-0.70908 5.13208,-1.40009 7.89512,-3.47962 5.79451,-4.36107 9.86827,-10.71417 11.38921,-17.76181 0.31557,-1.46248 0.3839,-2.34554 0.38123,-4.95088 -0.003,-2.7434 -0.0662,-3.46936 -0.46863,-5.38339 -2.13256,-10.14337 -8.86748,-18.76453 -17.91526,-22.93221 -3.30542,-1.52258 -7.52148,-2.71824 -11.32933,-3.21263 -1.35384,-0.17577 -3.337,-0.26356 -5.32008,-0.26356 z m -29.85465,18.48161 c 0.18561,0.003 0.38325,0.0854 0.59869,0.24292 0.40553,0.29654 0.33211,1.03467 -0.3193,3.20195 -0.2621,0.87203 -0.57733,2.51049 -0.70019,3.64134 -0.12286,1.13085 -0.32723,2.18124 -0.45418,2.33421 -0.32763,0.39475 -1.19013,0.35659 -1.41449,-0.0626 -0.4539,-0.84813 -0.0698,-4.23489 0.80272,-7.07933 0.48309,-1.57482 0.92994,-2.28672 1.48675,-2.27846 z m 1.56072,4.50187 c 0.87668,0 1.01871,0.3436 0.76144,1.84389 -0.11747,0.68504 -0.21367,1.58299 -0.21367,1.99564 0,0.41266 -0.1234,0.92664 -0.27423,1.14198 -0.33992,0.48534 -0.97802,0.50481 -1.39625,0.0427 -0.27114,-0.2996 -0.30342,-0.58266 -0.22915,-2.00251 0.11379,-2.17556 0.49229,-3.02167 1.35186,-3.02167 z"
       id="path36"
       inkscape:connector-curvature="0" />
  </g>
</svg>
