<?xml version="1.0" encoding="UTF-8" standalone="no"?>
<!-- Created with Inkscape (http://www.inkscape.org/) -->

<svg
   xmlns:dc="http://purl.org/dc/elements/1.1/"
   xmlns:cc="http://creativecommons.org/ns#"
   xmlns:rdf="http://www.w3.org/1999/02/22-rdf-syntax-ns#"
   xmlns:svg="http://www.w3.org/2000/svg"
   xmlns="http://www.w3.org/2000/svg"
   xmlns:sodipodi="http://sodipodi.sourceforge.net/DTD/sodipodi-0.dtd"
   xmlns:inkscape="http://www.inkscape.org/namespaces/inkscape"
   width="100mm"
   height="100mm"
   viewBox="0 0 100 100"
   version="1.1"
   id="svg8"
   inkscape:version="0.92.3 (2405546, 2018-03-11)"
   sodipodi:docname="ForegroundCandy.svg">
  <defs
     id="defs2" />
  <sodipodi:namedview
     id="base"
     pagecolor="#ebebeb"
     bordercolor="#666666"
     borderopacity="1.0"
     inkscape:pageopacity="0"
     inkscape:pageshadow="2"
     inkscape:zoom="0.7"
     inkscape:cx="50.101742"
     inkscape:cy="39.829197"
     inkscape:document-units="mm"
     inkscape:current-layer="layer1"
     showgrid="false"
     inkscape:window-width="1920"
     inkscape:window-height="1017"
     inkscape:window-x="-8"
     inkscape:window-y="-8"
     inkscape:window-maximized="1"
     fit-margin-top="0"
     fit-margin-left="0"
     fit-margin-right="0"
     fit-margin-bottom="0"
     inkscape:snap-global="false" />
  <metadata
     id="metadata5">
    <rdf:RDF>
      <cc:Work
         rdf:about="">
        <dc:format>image/svg+xml</dc:format>
        <dc:type
           rdf:resource="http://purl.org/dc/dcmitype/StillImage" />
        <dc:title></dc:title>
      </cc:Work>
    </rdf:RDF>
  </metadata>
  <g
     inkscape:label="svg"
     inkscape:groupmode="layer"
     id="layer1"
     style="display:inline"
     transform="translate(274.70366,-133.30423)">
    <g
       id="g68">
      <g
         id="g72">
        <circle
           style="fill:#ffffff;fill-opacity:1;stroke:none;stroke-width:0.13229166"
           id="path1439"
           cx="-224.70366"
           cy="183.30423"
           r="50" />
      </g>
    </g>
    <g
       id="g65"
       transform="matrix(0.43789337,0,0,0.43789337,-9.9052945,93.030217)">
      <path
         id="path53"
         d="m -431.52292,293.21887 c -2.22973,-3.00076 -57.41584,-84.27858 -57.43737,-84.59346 -0.0148,-0.21713 0.61801,-0.73022 1.42856,-1.15823 2.29373,-1.21119 5.26405,-3.08247 7.10687,-4.4773 0.93094,-0.70462 1.83293,-1.22729 2.00443,-1.16148 0.60419,0.23185 57.82829,84.50355 57.82829,85.16147 0,0.73747 -1.26945,2.86013 -2.47349,4.13595 -1.01492,1.07544 -2.82641,2.03023 -4.8537,2.55827 -2.30255,0.59974 -2.86634,0.52696 -3.60359,-0.46522 z"
         style="fill:#48bcda;stroke-width:0.26458332"
         inkscape:connector-curvature="0" />
      <path
         id="path51"
         d="m -518.08141,209.2569 c -4.88127,-0.75852 -9.96985,-2.36242 -14.11025,-4.44749 -3.82605,-1.92677 -8.25673,-4.90991 -8.25673,-5.55918 0,-0.21151 1.68848,-1.03688 4.16718,-2.03701 5.26144,-2.12293 14.91219,-6.92597 19.9099,-9.90887 14.67767,-8.76042 27.74818,-19.13399 41.89382,-33.24953 3.76009,-3.75209 6.94085,-6.75751 7.06835,-6.67871 0.34512,0.21329 1.72918,4.69644 2.41679,7.82825 0.53179,2.42208 0.60231,3.46465 0.59737,8.83169 -0.005,5.28153 -0.083,6.44068 -0.59136,8.77474 -2.32152,10.65851 -7.65196,19.34395 -16.03263,26.12364 -4.12278,3.33519 -7.60631,5.34263 -13.3491,7.69263 -5.42761,2.22103 -10.09503,3.05854 -16.84387,3.02243 -2.47385,-0.0132 -5.56511,-0.1899 -6.86947,-0.39259 z"
         style="fill:#48bcda;stroke-width:0.26458332"
         inkscape:connector-curvature="0" />
      <path
         id="path49"
         transform="matrix(0.26458333,0,0,0.26458333,-274.70366,133.30423)"
         d="m -770.50391,-39.347656 c -0.91986,0 -6.33298,4.356437 -12.02929,9.68164 -69.43257,64.909191 -134.20589,111.65107 -266.5957,192.378906 -17.5444,10.69814 -30.4991,19.22505 -30.8574,20.3125 -1.1699,3.55166 22.4072,48.45282 32.2285,61.37695 1.3583,1.78749 2.6117,3.25 2.7851,3.25 0.1736,0 7.0133,-2.27637 15.1993,-5.05859 90.63696,-30.80527 172.42124,-83.0926 254.44137,-162.671875 25.86697,-25.097197 58.94336,-60.86361 58.94336,-63.738281 0,-1.6848 -12.10229,-16.45967131 -22.41016,-27.359375 -10.27079,-10.860473 -29.75393,-28.171875 -31.70508,-28.171875 z M -1048.0918,182.08008 c 1.0701,5.1e-4 2.1551,0.29245 3.1426,0.93945 2.1977,1.44004 18.3622,28.99996 20.8047,35.4707 0.9136,2.4206 0.8077,3.43351 -0.586,5.56055 -2.5861,3.94689 -7.7854,3.63997 -10.9726,-0.64844 -4.6705,-6.2841 -18.6856,-32.60509 -18.6856,-35.09179 0,-3.601 3.0865,-6.23201 6.2969,-6.23047 z"
         style="fill:#48bcda;stroke-width:0.99999994"
         inkscape:connector-curvature="0" />
      <path
         id="path45"
         transform="matrix(0.26458333,0,0,0.26458333,-274.70366,133.30423)"
         d="m -895.70703,-56.896484 c -32.13049,0.483466 -64.10152,9.338331 -91.49414,26.361328 -41.01853,25.4907966 -69.85883,66.308615 -79.15043,112.023437 -2.8092,13.821468 -4.255,31.152669 -3.5195,42.164059 0.6129,9.17681 2.9681,26.65847 4.0762,30.25 0.2969,0.96254 1.0383,1.75 1.6465,1.75 0.6081,0 11.4893,-6.38089 24.1816,-14.17968 91.13163,-55.995934 151.39571,-97.552282 198.97071,-137.2050819 21.04467,-17.5402961 39.76204,-34.6420311 39.34765,-35.9492191 -0.20353,-0.642066 -5.45665,-3.702425 -11.67383,-6.802734 -25.56063,-12.746427 -54.03433,-18.838697 -82.38476,-18.412109 z M -1043.0234,50.765625 c 2.953,0.149291 5.6347,2.360484 5.6347,5.808594 0,1.245732 -1.3313,6.61092 -2.957,11.921875 -5.9721,19.510261 -7.2588,33.391556 -4.8848,52.708986 1.0482,8.52911 0.9942,9.61954 -0.5644,11.3418 -3.9733,4.39041 -9.3206,2.793 -11.4649,-3.42383 -2.323,-6.73493 -2.708,-33.547245 -0.6484,-45.156253 2.2423,-12.638627 7.1448,-28.186419 9.7949,-31.064453 1.4483,-1.57286 3.3181,-2.226294 5.0899,-2.136719 z"
         style="fill:#48bcda;stroke-width:0.99999994"
         inkscape:connector-curvature="0" />
    </g>
  </g>
</svg>
