<?xml version="1.0" encoding="UTF-8" standalone="no"?>
<!-- Created with Inkscape (http://www.inkscape.org/) -->

<svg
   xmlns:dc="http://purl.org/dc/elements/1.1/"
   xmlns:cc="http://creativecommons.org/ns#"
   xmlns:rdf="http://www.w3.org/1999/02/22-rdf-syntax-ns#"
   xmlns:svg="http://www.w3.org/2000/svg"
   xmlns="http://www.w3.org/2000/svg"
   xmlns:sodipodi="http://sodipodi.sourceforge.net/DTD/sodipodi-0.dtd"
   xmlns:inkscape="http://www.inkscape.org/namespaces/inkscape"
   width="100mm"
   height="100mm"
   viewBox="0 0 100 100"
   version="1.1"
   id="svg8"
   inkscape:version="0.92.3 (2405546, 2018-03-11)"
   sodipodi:docname="ForegroundFlower.svg">
  <defs
     id="defs2" />
  <sodipodi:namedview
     id="base"
     pagecolor="#ebebeb"
     bordercolor="#666666"
     borderopacity="1.0"
     inkscape:pageopacity="0"
     inkscape:pageshadow="2"
     inkscape:zoom="0.7"
     inkscape:cx="-93.365413"
     inkscape:cy="21.065684"
     inkscape:document-units="mm"
     inkscape:current-layer="layer1"
     showgrid="false"
     inkscape:window-width="1920"
     inkscape:window-height="1017"
     inkscape:window-x="-8"
     inkscape:window-y="-8"
     inkscape:window-maximized="1"
     fit-margin-top="0"
     fit-margin-left="0"
     fit-margin-right="0"
     fit-margin-bottom="0" />
  <metadata
     id="metadata5">
    <rdf:RDF>
      <cc:Work
         rdf:about="">
        <dc:format>image/svg+xml</dc:format>
        <dc:type
           rdf:resource="http://purl.org/dc/dcmitype/StillImage" />
        <dc:title />
      </cc:Work>
    </rdf:RDF>
  </metadata>
  <g
     inkscape:label="svg"
     inkscape:groupmode="layer"
     id="layer1"
     style="display:inline"
     transform="translate(274.70366,-132.13525)">
    <g
       id="g3480">
      <circle
         r="50"
         cy="182.13525"
         cx="-224.70366"
         id="path1439"
         style="fill:#ffffff;fill-opacity:1;stroke:none;stroke-width:0.13229166" />
      <g
         transform="matrix(0.43120141,0,0,0.4145702,-24.921347,105.7288)"
         id="g3443"
         style="display:inline">
        <path
           inkscape:connector-curvature="0"
           style="fill:#48bcda;stroke-width:0.26458332"
           d="m -497.70967,274.5159 c -12.60399,-1.40665 -24.00449,-8.97645 -30.32782,-20.1373 -3.80141,-6.7096 -5.62886,-15.24128 -4.89213,-22.83949 0.52417,-5.40601 2.2645,-11.31443 4.45714,-15.13195 0.35273,-0.61411 0.56413,-1.24146 0.4698,-1.3941 -0.0943,-0.15264 -0.78818,-0.58851 -1.54186,-0.9686 -4.50459,-2.27173 -10.55295,-7.67573 -13.57763,-12.13115 -9.54625,-14.06183 -9.54625,-31.44651 0,-45.50833 2.07737,-3.06002 6.76602,-7.74867 9.82604,-9.82604 7.99834,-5.42989 16.88682,-7.7924 26.27813,-6.98459 2.08371,0.17923 3.83172,0.28272 3.88446,0.22997 0.0527,-0.0527 -0.0336,-1.46336 -0.19186,-3.13471 -0.72536,-7.65946 1.3467,-16.50239 5.49937,-23.46969 6.04845,-10.14802 16.62701,-17.2535 28.25802,-18.98054 3.5173,-0.52227 8.99104,-0.52227 12.50834,0 11.63101,1.72704 22.20957,8.83252 28.25802,18.98054 4.15267,6.9673 6.22473,15.81023 5.49937,23.46969 -0.15827,1.67135 -0.24461,3.08197 -0.19186,3.13471 0.0527,0.0528 1.80075,-0.0507 3.88446,-0.22997 11.88402,-1.02223 23.14189,3.08367 31.57349,11.51527 13.69021,13.69021 15.55217,34.56881 4.53068,50.80369 -3.02468,4.45542 -9.07304,9.85942 -13.57763,12.13115 -0.75368,0.38009 -1.44752,0.81596 -1.54186,0.9686 -0.0943,0.15264 0.11707,0.77999 0.4698,1.3941 3.3416,5.81794 5.14291,14.66637 4.46316,21.92403 -0.90914,9.70689 -4.73438,17.89171 -11.54465,24.70198 -5.26941,5.26942 -11.23808,8.68824 -18.26755,10.46355 -13.37406,3.37766 -27.16877,-0.27297 -37.31457,-9.87493 l -2.49503,-2.36129 -2.51128,2.37667 c -8.68974,8.22395 -20.26983,12.17498 -31.88455,10.87873 z"
           id="path3435" />
        <path
           inkscape:connector-curvature="0"
           style="fill:#ffffff;stroke-width:0.26458332"
           d="m -460.13884,234.31974 c 9.7597,-1.01125 17.78186,-4.77447 24.48796,-11.48738 1.60843,-1.61006 3.62159,-3.92479 4.4737,-5.14383 3.18031,-4.54985 5.66989,-10.50104 6.67798,-15.9633 0.69667,-3.77482 0.63255,-10.59359 -0.13572,-14.43355 -1.58004,-7.89741 -5.29622,-14.87143 -10.88934,-20.43566 -5.69875,-5.66931 -12.02304,-9.13444 -19.8837,-10.89444 -2.36093,-0.52861 -3.47082,-0.61494 -7.90588,-0.61494 -4.43506,0 -5.54495,0.0863 -7.90588,0.61494 -13.86415,3.10417 -24.67014,12.6863 -29.36415,26.03843 -1.44646,4.11446 -2.00555,7.6812 -2.00165,12.76955 0.004,5.16489 0.40638,7.8536 1.83847,12.28351 1.94426,6.01421 5.08936,11.09365 9.77025,15.77929 6.58335,6.59003 14.76547,10.48043 24.11476,11.46597 2.96728,0.3128 3.88287,0.31571 6.7232,0.0214 z"
           id="path3427" />
      </g>
    </g>
  </g>
</svg>
