<?xml version="1.0" encoding="UTF-8" standalone="no"?>
<!-- Created with Inkscape (http://www.inkscape.org/) -->

<svg
   xmlns:dc="http://purl.org/dc/elements/1.1/"
   xmlns:cc="http://creativecommons.org/ns#"
   xmlns:rdf="http://www.w3.org/1999/02/22-rdf-syntax-ns#"
   xmlns:svg="http://www.w3.org/2000/svg"
   xmlns="http://www.w3.org/2000/svg"
   xmlns:sodipodi="http://sodipodi.sourceforge.net/DTD/sodipodi-0.dtd"
   xmlns:inkscape="http://www.inkscape.org/namespaces/inkscape"
   width="100mm"
   height="100mm"
   viewBox="0 0 100 100"
   version="1.1"
   id="svg8"
   inkscape:version="0.92.3 (2405546, 2018-03-11)"
   sodipodi:docname="ForegroundStrawberry.svg">
  <defs
     id="defs2" />
  <sodipodi:namedview
     id="base"
     pagecolor="#ebebeb"
     bordercolor="#666666"
     borderopacity="1.0"
     inkscape:pageopacity="0"
     inkscape:pageshadow="2"
     inkscape:zoom="0.7"
     inkscape:cx="187.95214"
     inkscape:cy="74.534568"
     inkscape:document-units="mm"
     inkscape:current-layer="layer1"
     showgrid="false"
     inkscape:window-width="1920"
     inkscape:window-height="1017"
     inkscape:window-x="-8"
     inkscape:window-y="-8"
     inkscape:window-maximized="1"
     fit-margin-top="0"
     fit-margin-left="0"
     fit-margin-right="0"
     fit-margin-bottom="0"
     inkscape:snap-global="false" />
  <metadata
     id="metadata5">
    <rdf:RDF>
      <cc:Work
         rdf:about="">
        <dc:format>image/svg+xml</dc:format>
        <dc:type
           rdf:resource="http://purl.org/dc/dcmitype/StillImage" />
        <dc:title></dc:title>
      </cc:Work>
    </rdf:RDF>
  </metadata>
  <g
     inkscape:label="svg"
     inkscape:groupmode="layer"
     id="layer1"
     style="display:inline"
     transform="translate(274.70366,-133.30423)">
    <g
       id="g68">
      <g
         id="g72">
        <circle
           style="fill:#ffffff;fill-opacity:1;stroke:none;stroke-width:0.13229166"
           id="path1439"
           cx="-224.70366"
           cy="183.30423"
           r="50" />
      </g>
    </g>
    <path
       style="fill:#48bcda;stroke-width:0.16085376"
       d="m -212.43147,145.20728 c -0.19543,-0.008 -0.40142,0.0185 -0.6142,0.0823 -1.03226,0.30927 -2.90691,1.66987 -4.29939,3.12031 -1.35909,1.41566 -2.15512,2.61927 -2.79169,4.22147 -0.59785,1.50476 -0.66018,1.52512 -1.33238,0.43606 -0.73082,-1.18401 -2.38884,-2.98535 -3.73106,-4.05339 -3.89714,-3.10105 -5.23026,-2.53668 -5.23026,2.21489 0,1.53122 0.20757,2.6261 0.76311,4.02322 0.22139,0.55675 0.36327,1.05175 0.31512,1.0999 -0.0481,0.0481 -0.50095,0.002 -1.00628,-0.10336 -1.27719,-0.26513 -3.82117,-0.22418 -4.96322,0.0798 -1.86116,0.49539 -3.08787,1.2873 -5.0515,3.26169 -5.30859,5.33764 -9.02384,14.15537 -10.25035,24.32725 -0.5853,4.85403 -0.47905,12.34487 0.25794,18.17647 1.5206,12.03216 3.87233,17.72286 7.84916,18.99488 2.57051,0.82221 5.53745,0.0867 11.68389,-2.89662 9.22891,-4.47955 15.60178,-8.21479 19.94586,-11.69049 2.21048,-1.76858 6.07789,-5.60758 7.68109,-7.62484 3.7816,-4.75828 6.34615,-10.07565 7.1228,-14.76776 0.34133,-2.06203 0.25553,-6.0074 -0.16336,-7.51049 -0.40636,-1.45815 -1.53779,-3.72875 -2.46905,-4.95474 -0.45716,-0.60185 -0.83128,-1.11723 -0.83128,-1.14514 0,-0.0279 0.48538,-0.33173 1.07885,-0.67515 2.48328,-1.43701 5.33871,-4.91923 5.35184,-6.52682 0.002,-0.23836 -0.15941,-0.61868 -0.35846,-0.84543 -0.32711,-0.37261 -0.59224,-0.44325 -2.75619,-0.73295 -2.69027,-0.36018 -5.58704,-0.41384 -7.11684,-0.13195 -0.56267,0.10367 -1.06787,0.14357 -1.12252,0.0889 -0.0547,-0.0546 0.17023,-0.72708 0.49984,-1.4945 0.32961,-0.76742 0.89118,-2.52678 1.24787,-3.9095 0.57352,-2.22323 0.65045,-2.74038 0.66541,-4.47123 0.0151,-1.75029 -0.0187,-2.00546 -0.32014,-2.41281 -0.18539,-0.25054 -0.59906,-0.54335 -0.91925,-0.65064 -1.26466,-0.42372 -2.96598,0.53033 -5.55668,3.11655 -0.91608,0.91448 -1.69967,1.66288 -1.74144,1.66288 -0.0417,0 -0.0283,-0.88671 0.0298,-1.97046 0.11963,-2.23036 -0.0929,-4.50315 -0.50141,-5.36409 -0.28898,-0.60897 -0.77942,-0.94955 -1.36568,-0.97424 z m -0.65913,2.56141 c 0.32785,0.022 0.35384,0.665 0.35344,2.40464 -0.002,5.74946 -1.52463,9.69275 -4.71848,12.21735 -0.78702,0.6221 -1.35499,0.7833 -1.46182,0.4147 -0.032,-0.11059 -0.13598,-1.19607 -0.23123,-2.41218 -0.14532,-1.85518 -0.13236,-2.45072 0.0811,-3.69964 0.30379,-1.77781 0.98154,-3.71396 1.69651,-4.84634 0.64159,-1.01619 2.54508,-3.02546 3.47721,-3.67042 0.37704,-0.26089 0.63159,-0.41964 0.80332,-0.40811 z m -14.82525,2.00282 c 0.15974,0.008 0.42013,0.19363 1.03173,0.65661 1.68168,1.27307 3.2402,3.05943 4.06061,4.65376 0.93655,1.82003 1.24002,2.88044 1.24002,4.33457 0,0.64747 -0.0543,1.17136 -0.12064,1.16431 -0.0663,-0.007 -0.87392,-0.57678 -1.79452,-1.26578 -2.28266,-1.7084 -3.67742,-3.43328 -4.3839,-5.42128 -0.42529,-1.19676 -0.58304,-3.54787 -0.2661,-3.96574 0.0774,-0.10205 0.13695,-0.16119 0.2328,-0.15645 z m 23.56382,1.22808 c 0.0603,-0.005 0.11065,0.004 0.15017,0.0289 0.57555,0.35571 -0.84061,6.44709 -2.09864,9.02666 -1.20169,2.46404 -2.47308,3.61809 -4.94908,4.49197 -1.12739,0.3979 -2.13509,0.46145 -3.4172,0.21552 -1.17446,-0.22528 -1.44768,-0.30787 -1.44768,-0.43669 0,-0.067 0.566,-0.69895 1.25792,-1.40433 0.69193,-0.7054 1.46796,-1.64435 1.72447,-2.08671 2.20152,-3.79649 7.5532,-9.73782 8.78004,-9.83532 z m -34.13587,11.27862 c 0.20489,-0.005 0.42282,0.0435 0.63996,0.15582 0.77001,0.39819 0.91605,1.40338 0.28935,1.99214 -0.77493,0.728 -2.04052,0.18746 -2.04052,-0.8715 0,-0.75367 0.49652,-1.25999 1.11121,-1.27646 z m 37.74188,1.24379 c 1.6621,-0.007 4.39508,0.23724 4.74676,0.45459 0.89926,0.55577 -3.68136,4.58693 -6.23748,5.48914 -0.77641,0.27404 -2.20573,0.36426 -3.02009,0.1907 -1.24319,-0.26494 -4.72242,-1.44067 -4.97861,-1.68237 -0.74896,-0.70658 0.5335,-1.86842 3.37007,-3.05339 2.05192,-0.85719 3.64458,-1.25777 5.48285,-1.37919 0.18368,-0.0122 0.39906,-0.0184 0.6365,-0.0195 z m -28.93168,3.18408 c 0.51149,0 1.1775,0.68232 1.1775,1.20641 0,0.22921 -0.17776,0.59434 -0.39491,0.81149 -0.77956,0.77956 -2.0179,0.25766 -2.0179,-0.85045 0,-0.58259 0.61883,-1.16745 1.23531,-1.16745 z m -10.28082,1.44768 c 1.08979,0 1.59137,1.40969 0.73986,2.07948 -0.79125,0.62241 -1.73276,0.25984 -1.92616,-0.74175 -0.0798,-0.41309 -0.0188,-0.59193 0.31417,-0.92491 0.25051,-0.2505 0.59326,-0.41282 0.87213,-0.41282 z m 5.23403,6.76498 c 0.32797,-0.0157 0.6651,0.11036 0.90449,0.4147 0.18336,0.2331 0.33333,0.54908 0.33333,0.70216 0,0.15308 -0.14997,0.46906 -0.33333,0.70216 -0.67449,0.85748 -1.97235,0.37741 -1.97235,-0.72949 0,-0.64378 0.52124,-1.06339 1.06786,-1.08953 z m 20.9446,25.46233 c 0.0772,-0.004 0.15502,0.004 0.23218,0.0217 0.97301,0.22922 1.29706,1.41221 0.54822,2.00124 -0.23311,0.18337 -0.54908,0.33334 -0.70216,0.33334 -0.53951,0 -1.12598,-0.62837 -1.12598,-1.20641 0,-0.60331 0.50742,-1.12603 1.04774,-1.14985 z m -30.19809,4.11119 c 0.27495,5.1e-4 0.54144,0.0948 0.73484,0.30852 0.36626,0.40473 0.33774,1.24284 -0.0556,1.63619 -0.6799,0.67989 -1.93025,0.12616 -1.93025,-0.85486 0,-0.63755 0.64614,-1.09094 1.25102,-1.08985 z m 27.30053,0.97958 c 0.22922,0 0.59435,0.17744 0.8115,0.39459 0.21715,0.21716 0.3949,0.5826 0.3949,0.81181 0,0.22922 -0.17775,0.59434 -0.3949,0.8115 -0.48251,0.48251 -1.03187,0.50382 -1.59409,0.0616 -0.55404,-0.43581 -0.5662,-1.1476 -0.0289,-1.68489 0.21716,-0.21715 0.58229,-0.39459 0.8115,-0.39459 z m -30.05672,2.33207 c 0.14346,0.001 0.287,0.0314 0.42224,0.093 0.83323,0.37964 0.91685,1.65123 0.13604,2.06911 -0.51074,0.27334 -0.96896,0.19944 -1.39271,-0.22432 -0.43911,-0.4391 -0.48095,-0.68844 -0.21332,-1.27583 0.18917,-0.41518 0.61736,-0.66629 1.04775,-0.66195 z"
       id="path67"
       inkscape:connector-curvature="0" />
  </g>
</svg>
