<?xml version="1.0" encoding="UTF-8" standalone="no"?>
<!-- Created with Inkscape (http://www.inkscape.org/) -->

<svg
   xmlns:dc="http://purl.org/dc/elements/1.1/"
   xmlns:cc="http://creativecommons.org/ns#"
   xmlns:rdf="http://www.w3.org/1999/02/22-rdf-syntax-ns#"
   xmlns:svg="http://www.w3.org/2000/svg"
   xmlns="http://www.w3.org/2000/svg"
   xmlns:sodipodi="http://sodipodi.sourceforge.net/DTD/sodipodi-0.dtd"
   xmlns:inkscape="http://www.inkscape.org/namespaces/inkscape"
   width="100mm"
   height="100mm"
   viewBox="0 0 100 100"
   version="1.1"
   id="svg8"
   inkscape:version="0.92.3 (2405546, 2018-03-11)"
   sodipodi:docname="ForegroundLeaf.svg">
  <defs
     id="defs2" />
  <sodipodi:namedview
     id="base"
     pagecolor="#ebebeb"
     bordercolor="#666666"
     borderopacity="1.0"
     inkscape:pageopacity="0"
     inkscape:pageshadow="2"
     inkscape:zoom="0.49497475"
     inkscape:cx="-229.82689"
     inkscape:cy="16.654238"
     inkscape:document-units="mm"
     inkscape:current-layer="layer1"
     showgrid="false"
     inkscape:window-width="1920"
     inkscape:window-height="1017"
     inkscape:window-x="-8"
     inkscape:window-y="-8"
     inkscape:window-maximized="1"
     fit-margin-top="0"
     fit-margin-left="0"
     fit-margin-right="0"
     fit-margin-bottom="0"
     inkscape:snap-global="false" />
  <metadata
     id="metadata5">
    <rdf:RDF>
      <cc:Work
         rdf:about="">
        <dc:format>image/svg+xml</dc:format>
        <dc:type
           rdf:resource="http://purl.org/dc/dcmitype/StillImage" />
        <dc:title />
      </cc:Work>
    </rdf:RDF>
  </metadata>
  <g
     inkscape:label="svg"
     inkscape:groupmode="layer"
     id="layer1"
     style="display:inline"
     transform="translate(274.70366,-133.30423)">
    <g
       id="g68">
      <g
         id="g72">
        <circle
           style="fill:#ffffff;fill-opacity:1;stroke:none;stroke-width:0.13229166"
           id="path1439"
           cx="-224.70366"
           cy="183.30423"
           r="50" />
      </g>
    </g>
    <path
       style="fill:#48bcda;stroke-width:0.13769366"
       d="m -225.39374,227.90273 c -1.00689,-0.13618 -2.60113,-0.65439 -2.97125,-0.96582 -0.54686,-0.46015 -0.52391,-0.91622 0.13432,-2.67053 1.29447,-3.44994 1.99236,-6.71828 1.99601,-9.34743 0.002,-1.61531 -0.0385,-1.96273 -0.31146,-2.65173 -0.48148,-1.21566 -0.9889,-1.66375 -2.22112,-1.9614 -4.71353,-1.13863 -10.11872,-3.62855 -13.79086,-6.35284 -6.67946,-4.95535 -10.0807,-13.02514 -9.19876,-21.82495 0.25238,-2.51818 0.71703,-4.93713 0.94834,-4.93713 0.0643,0 4.87941,2.5707 10.70038,5.71266 7.24751,3.91197 10.71379,5.71251 10.99667,5.71219 0.49521,-5.3e-4 0.66146,-0.0991 0.88593,-0.52513 0.21024,-0.39897 0.009,-0.97117 -0.43972,-1.25153 -0.16669,-0.10412 -4.95146,-2.69507 -10.63281,-5.75774 -5.68136,-3.06265 -10.46917,-5.65705 -10.63957,-5.76533 -0.1704,-0.10827 -0.30981,-0.31967 -0.30981,-0.46976 0,-0.83771 2.18724,-5.85284 3.74294,-8.5822 1.35087,-2.37002 3.02267,-4.90794 3.23299,-4.90794 0.11476,0 2.92637,1.58003 6.24801,3.51119 4.3041,2.50233 6.16005,3.51119 6.45936,3.51119 0.86438,0 1.27007,-0.95617 0.66094,-1.55773 -0.17039,-0.16828 -2.95896,-1.84479 -6.19681,-3.7256 -3.23786,-1.88079 -5.91823,-3.47013 -5.95638,-3.53186 -0.195,-0.31551 7.43244,-10.43383 12.81683,-17.00238 3.02772,-3.6936 3.31335,-4.01568 3.44601,-3.88578 0.0603,0.059 -0.003,14.09888 -0.14076,31.19967 -0.18918,23.49327 -0.21164,31.1647 -0.0919,31.38847 0.29165,0.54494 1.29764,0.57033 1.62449,0.041 0.20394,-0.33028 0.2571,-4.08331 0.53367,-37.66959 0.11285,-13.70376 0.24016,-24.94989 0.28293,-24.9914 0.19782,-0.19202 7.2878,8.57573 11.63019,14.38236 3.4078,4.55689 4.58954,6.27889 4.45115,6.48614 -0.0701,0.10499 -2.8538,1.7722 -6.18599,3.70492 -3.3322,1.93271 -6.16697,3.64379 -6.2995,3.80238 -0.51752,0.61932 -0.0894,1.4971 0.73024,1.4971 0.30035,0 2.21499,-1.04355 6.70376,-3.65379 3.45584,-2.00959 6.35711,-3.62548 6.44724,-3.59089 0.18317,0.0703 2.09916,3.05767 3.20201,4.99254 1.53885,2.6998 3.74293,7.74323 3.74293,8.56467 0,0.19672 -2.18888,1.43504 -9.53529,5.39441 -13.10447,7.06267 -12.7234,6.84721 -12.91083,7.29971 -0.1636,0.39496 -0.0159,0.89629 0.33247,1.12894 0.48387,0.32308 1.2512,-0.0499 11.68152,-5.67775 5.89495,-3.18073 10.80626,-5.78315 10.91404,-5.78315 0.45779,0 1.17338,4.71188 1.16802,7.69101 -0.0115,6.3628 -2.41807,12.48712 -6.53291,16.62472 -3.95851,3.98037 -9.33831,6.80075 -17.03013,8.9281 -0.68529,0.18953 -0.82721,0.29298 -1.20085,0.87527 -0.77787,1.21218 -0.89657,1.70834 -0.89641,3.74666 2.8e-4,2.62611 0.69634,5.89007 1.99359,9.34743 0.80774,2.15276 0.74758,2.43821 -0.63383,3.00678 -1.23466,0.50815 -2.33838,0.65979 -3.58004,0.49187 z"
       id="path50"
       inkscape:connector-curvature="0" />
  </g>
</svg>
