<?xml version="1.0" encoding="UTF-8" standalone="no"?>
<!-- Created with Inkscape (http://www.inkscape.org/) -->

<svg
   xmlns:dc="http://purl.org/dc/elements/1.1/"
   xmlns:cc="http://creativecommons.org/ns#"
   xmlns:rdf="http://www.w3.org/1999/02/22-rdf-syntax-ns#"
   xmlns:svg="http://www.w3.org/2000/svg"
   xmlns="http://www.w3.org/2000/svg"
   xmlns:sodipodi="http://sodipodi.sourceforge.net/DTD/sodipodi-0.dtd"
   xmlns:inkscape="http://www.inkscape.org/namespaces/inkscape"
   width="100mm"
   height="100mm"
   viewBox="0 0 100 100"
   version="1.1"
   id="svg8"
   inkscape:version="0.92.3 (2405546, 2018-03-11)"
   sodipodi:docname="ForegroundBird.svg">
  <defs
     id="defs2" />
  <sodipodi:namedview
     id="base"
     pagecolor="#ebebeb"
     bordercolor="#666666"
     borderopacity="1.0"
     inkscape:pageopacity="0"
     inkscape:pageshadow="2"
     inkscape:zoom="0.7"
     inkscape:cx="-96.756833"
     inkscape:cy="30.488545"
     inkscape:document-units="mm"
     inkscape:current-layer="layer1"
     showgrid="false"
     inkscape:window-width="1920"
     inkscape:window-height="1017"
     inkscape:window-x="-8"
     inkscape:window-y="-8"
     inkscape:window-maximized="1"
     fit-margin-top="0"
     fit-margin-left="0"
     fit-margin-right="0"
     fit-margin-bottom="0"
     inkscape:snap-global="false" />
  <metadata
     id="metadata5">
    <rdf:RDF>
      <cc:Work
         rdf:about="">
        <dc:format>image/svg+xml</dc:format>
        <dc:type
           rdf:resource="http://purl.org/dc/dcmitype/StillImage" />
        <dc:title />
      </cc:Work>
    </rdf:RDF>
  </metadata>
  <g
     inkscape:label="svg"
     inkscape:groupmode="layer"
     id="layer1"
     style="display:inline"
     transform="translate(274.70366,-133.30423)">
    <g
       id="g471">
      <circle
         r="50"
         cy="183.30423"
         cx="-224.70366"
         id="path1439"
         style="fill:#ffffff;fill-opacity:1;stroke:none;stroke-width:0.13229166" />
      <g
         transform="matrix(0.48399755,0,0,0.48399755,-6.6960675,94.239657)"
         id="g452">
        <path
           inkscape:connector-curvature="0"
           style="fill:#48bcda;stroke-width:0.26458332"
           d="m -452.06896,256.23044 c -17.10052,-1.20418 -29.13355,-5.95951 -41.06017,-16.22658 -7.08653,-6.10045 -13.72735,-14.51813 -17.89861,-22.68765 -3.78512,-7.41327 -5.76182,-14.23418 -6.9667,-24.03965 -0.34875,-2.83818 -0.45014,-6.38389 -0.49359,-17.26155 -0.0394,-9.87755 -0.13964,-13.79205 -0.35978,-14.0573 -0.1678,-0.20219 -3.31314,-2.34702 -6.98964,-4.76629 -4.51078,-2.96824 -6.84036,-4.66242 -7.16368,-5.20975 -0.60162,-1.01848 -0.40382,-2.30712 0.48186,-3.13917 0.37895,-0.356 4.04318,-1.85779 9.05793,-3.71241 6.92525,-2.56118 8.47809,-3.22638 8.73981,-3.74394 0.17506,-0.34616 1.02443,-2.11767 1.88751,-3.93668 2.37197,-4.99911 6.90848,-11.55931 10.85869,-15.70261 3.18816,-3.34402 8.98621,-7.03038 13.74785,-8.74081 6.91363,-2.48343 15.27101,-1.77987 22.29005,1.87649 2.89824,1.50975 4.85764,2.97474 7.56615,5.65701 2.82524,2.79789 5.06391,5.97399 6.97691,9.89846 2.08426,4.27582 3.09714,7.46682 5.55374,17.49649 2.08671,8.51955 3.75197,14.22716 4.23868,14.52797 0.14303,0.0884 1.45073,-0.0477 2.906,-0.30238 1.71665,-0.30046 2.73645,-0.37261 2.90362,-0.20544 0.91851,0.91851 1.66646,14.49523 1.06497,19.3312 -1.41496,11.37616 -5.69203,21.77852 -14.09544,34.28185 -1.83667,2.73275 -2.7733,3.90261 -3.1246,3.90261 -0.7828,0 -5.25053,-2.38792 -7.03091,-3.75789 -6.36662,-4.899 -10.16343,-12.96644 -10.19036,-21.65241 -0.0102,-3.28587 0.28077,-5.36814 1.13874,-8.14944 2.45036,-7.94341 9.55036,-14.24689 19.83858,-17.61298 3.4671,-1.13436 4.27584,-1.98685 3.17482,-3.34655 -0.65519,-0.80912 -1.71551,-0.74464 -4.68819,0.28511 -6.03136,2.08928 -12.23264,5.89834 -15.60855,9.58734 -5.21357,5.69708 -7.55828,12.45658 -7.17506,20.68473 0.22737,4.88194 1.13141,8.38494 3.28205,12.71729 1.55276,3.12798 3.16254,5.37305 5.61097,7.82532 5.362,5.37041 12.50569,8.26692 23.87181,9.67917 4.418,0.54895 17.11445,0.62155 21.78579,0.12458 9.96619,-1.06026 18.69011,-3.28981 25.40983,-6.4939 4.14508,-1.97645 6.51643,-3.60319 9.27481,-6.36249 1.95007,-1.95071 2.6133,-2.83066 3.50311,-4.64781 1.42769,-2.91561 1.89662,-4.84686 1.89662,-7.81105 0,-2.6266 -0.54682,-5.2207 -1.69736,-8.05218 -0.84909,-2.08963 -4.69977,-9.23987 -6.95242,-12.90982 -1.62328,-2.64458 -1.8692,-3.30454 -1.46648,-3.93557 0.2412,-0.37793 4.84489,-2.67662 7.33814,-3.66403 2.4413,-0.96684 8.81472,-2.56483 9.43914,-2.36664 1.05203,0.3339 2.47845,4.61704 3.25625,9.77761 1.60573,10.65379 -1.54222,29.48315 -6.78944,40.61077 -3.95101,8.37882 -5.84416,11.27614 -10.71568,16.39955 -10.15306,10.67805 -23.2886,17.15938 -38.84652,19.16762 -6.8947,0.88997 -20.09151,1.2053 -27.78125,0.6638 z"
           id="path441" />
        <path
           inkscape:connector-curvature="0"
           style="fill:#ffffff;stroke-width:0.26458332"
           d="m -486.19906,146.53627 c 3.60919,-1.22977 5.34801,-5.60301 3.59446,-9.04027 -0.64638,-1.267 -2.41133,-2.83068 -3.66028,-3.24287 -1.56884,-0.51776 -4.06412,-0.20124 -5.52274,0.70055 -1.7949,1.1097 -2.82644,2.85381 -2.96381,5.01116 -0.13068,2.05241 0.21947,3.16877 1.44183,4.59683 1.88139,2.19797 4.40127,2.89774 7.11054,1.9746 z"
           id="path439" />
        <path
           inkscape:connector-curvature="0"
           style="fill:#48bcda;stroke-width:0.26458332"
           d="m -435.6648,222.75093 c -6.53634,-0.64342 -12.00658,-1.56656 -12.19517,-2.05803 -0.0632,-0.16481 1.0282,-2.02537 2.42545,-4.13457 2.42641,-3.66277 5.73201,-9.29859 7.01548,-11.96091 0.33059,-0.68576 0.72836,-1.29343 0.88391,-1.35037 0.37662,-0.13786 51.76694,6.89557 51.97731,7.11376 0.29653,0.30757 -2.7859,2.8755 -5.12643,4.27076 -5.98381,3.56714 -15.24849,6.36313 -25.27919,7.62902 -3.12448,0.39432 -17.13455,0.74301 -19.70136,0.49034 z"
           id="path437" />
        <path
           inkscape:connector-curvature="0"
           style="fill:#48bcda;stroke-width:0.26458332"
           d="m -410.33947,203.472 c -14.01107,-1.93035 -25.54665,-3.58169 -25.63462,-3.66966 -0.088,-0.088 0.27569,-1.32437 0.80812,-2.74755 1.74864,-4.6741 2.81855,-8.95436 3.73868,-14.95688 0.0836,-0.5457 0.29553,-0.99559 0.47083,-0.99974 0.17531,-0.004 10.43906,1.68328 22.80833,3.74985 14.58596,2.43693 22.65014,3.89328 22.94644,4.14402 0.63015,0.53327 2.68001,4.81668 3.37989,7.06264 0.74939,2.40489 0.81932,5.96601 0.16105,8.20208 -0.6913,2.34829 -1.04191,2.78325 -2.21796,2.75154 -0.54235,-0.0146 -12.44969,-1.60596 -26.46076,-3.5363 z"
           id="path435" />
        <path
           inkscape:connector-curvature="0"
           style="fill:#48bcda;stroke-width:0.26458332"
           d="m -409.48011,181.26125 c -11.3556,-1.92207 -20.83232,-3.56597 -21.05937,-3.65309 -0.34227,-0.13135 -0.44,-0.91987 -0.57189,-4.61428 -0.0875,-2.45073 -0.35567,-5.858 -0.59594,-7.57173 -0.24026,-1.71372 -0.36273,-3.30901 -0.27215,-3.54507 0.14477,-0.37725 0.5883,-0.41016 3.66364,-0.27187 7.86113,0.35351 15.66581,2.61882 24.00415,6.96719 7.02516,3.66357 10.91822,6.99854 14.6307,12.53332 1.1225,1.67349 2.04027,3.19154 2.03948,3.37344 -8e-4,0.1819 -0.26932,0.31859 -0.59675,0.30375 -0.32742,-0.0148 -9.88626,-1.59958 -21.24187,-3.52166 z"
           id="path427" />
      </g>
    </g>
  </g>
</svg>
