<?xml version="1.0" encoding="UTF-8" standalone="no"?>
<!-- Created with Inkscape (http://www.inkscape.org/) -->

<svg
   xmlns:dc="http://purl.org/dc/elements/1.1/"
   xmlns:cc="http://creativecommons.org/ns#"
   xmlns:rdf="http://www.w3.org/1999/02/22-rdf-syntax-ns#"
   xmlns:svg="http://www.w3.org/2000/svg"
   xmlns="http://www.w3.org/2000/svg"
   xmlns:sodipodi="http://sodipodi.sourceforge.net/DTD/sodipodi-0.dtd"
   xmlns:inkscape="http://www.inkscape.org/namespaces/inkscape"
   width="100mm"
   height="100mm"
   viewBox="0 0 100 100"
   version="1.1"
   id="svg8"
   inkscape:version="0.92.3 (2405546, 2018-03-11)"
   sodipodi:docname="ForegroundSoda.svg">
  <defs
     id="defs2" />
  <sodipodi:namedview
     id="base"
     pagecolor="#ebebeb"
     bordercolor="#666666"
     borderopacity="1.0"
     inkscape:pageopacity="0"
     inkscape:pageshadow="2"
     inkscape:zoom="0.9899495"
     inkscape:cx="-149.71232"
     inkscape:cy="134.73678"
     inkscape:document-units="mm"
     inkscape:current-layer="layer1"
     showgrid="false"
     inkscape:window-width="1920"
     inkscape:window-height="1017"
     inkscape:window-x="-8"
     inkscape:window-y="-8"
     inkscape:window-maximized="1"
     fit-margin-top="0"
     fit-margin-left="0"
     fit-margin-right="0"
     fit-margin-bottom="0"
     inkscape:snap-global="false" />
  <metadata
     id="metadata5">
    <rdf:RDF>
      <cc:Work
         rdf:about="">
        <dc:format>image/svg+xml</dc:format>
        <dc:type
           rdf:resource="http://purl.org/dc/dcmitype/StillImage" />
        <dc:title />
      </cc:Work>
    </rdf:RDF>
  </metadata>
  <g
     inkscape:label="svg"
     inkscape:groupmode="layer"
     id="layer1"
     style="display:inline"
     transform="translate(274.70366,-133.30423)">
    <g
       style="display:inline"
       id="g68">
      <g
         id="g72">
        <circle
           style="fill:#ffffff;fill-opacity:1;stroke:none;stroke-width:0.13229166"
           id="path1439"
           cx="-224.70366"
           cy="183.30423"
           r="50" />
      </g>
    </g>
    <g
       id="g62"
       transform="matrix(0.48482054,0,0,0.48482054,-11.689883,92.41407)"
       style="fill:#49bcda;fill-opacity:1">
      <path
         id="path51"
         d="m -451.1425,266.95556 c -5.99541,-0.3737 -14.11388,-1.71204 -19.05,-3.1404 -10.21794,-2.95676 -16.55,-7.8779 -17.86959,-13.88785 -0.42979,-1.95747 -0.695,-37.57084 -0.27978,-37.57084 0.15437,0 1.08644,0.49496 2.07127,1.0999 2.9352,1.803 7.69271,4.08786 10.61504,5.09804 11.32993,3.91648 25.11528,2.89555 36.94847,-2.73636 1.74625,-0.83112 5.11802,-2.54834 7.49281,-3.81606 8.23597,-4.39653 12.67454,-5.93911 17.79037,-6.18286 3.45497,-0.16461 5.87862,0.21054 9.90641,1.5334 3.04379,0.99968 8.09511,3.51454 10.9802,5.46664 l 2.24896,1.52168 v 16.66875 c 0,12.70189 -0.0832,17.10879 -0.34946,18.51779 -1.42193,7.52357 -9.54108,12.82284 -24.1245,15.74577 -7.19844,1.44277 -9.89842,1.64524 -22.88645,1.71625 -6.54844,0.0358 -12.62063,0.0206 -13.49375,-0.0338 z"
         style="fill:#49bcda;fill-opacity:1;stroke-width:0.26458332"
         inkscape:connector-curvature="0" />
      <path
         id="path49"
         d="m -465.5623,217.22807 c -0.3638,-0.0645 -1.79255,-0.30821 -3.175,-0.54169 -3.17748,-0.53663 -7.08913,-1.80635 -10.31875,-3.34946 -2.7752,-1.32599 -7.99857,-4.41534 -8.92968,-5.28144 l -0.59532,-0.55375 v -15.16742 c 0,-11.95851 0.07,-15.16704 0.33073,-15.16561 0.1819,0.001 0.61528,0.41962 0.96306,0.93028 1.02044,1.49837 4.55475,4.95755 6.43897,6.3021 3.50438,2.50068 8.09485,4.38734 13.07037,5.37188 3.30655,0.65429 10.96503,0.65653 14.25417,0.004 6.22483,-1.23461 12.90416,-4.17483 22.26498,-9.80097 8.31238,-4.99599 11.58166,-6.14006 18.3763,-6.43071 5.8619,-0.25075 10.79179,0.82053 16.1637,3.51242 2.60303,1.30439 6.03403,3.41543 6.36024,3.91335 0.32224,0.49186 0.24675,28.73941 -0.0768,28.73941 -0.15361,0 -1.40247,-0.66103 -2.77525,-1.46895 -5.90092,-3.47288 -11.65463,-5.44546 -17.71525,-6.07344 -3.02514,-0.31345 -8.92683,0.78215 -13.04666,2.42202 -2.27354,0.90497 -4.38372,1.9346 -11.69188,5.70484 -7.72041,3.98292 -11.26361,5.28654 -17.59479,6.47347 -2.02496,0.37963 -10.88588,0.71056 -12.30313,0.45949 z"
         style="fill:#49bcda;fill-opacity:1;stroke-width:0.26458332"
         inkscape:connector-curvature="0" />
      <path
         id="path47"
         transform="matrix(0.26458333,0,0,0.26458333,-274.70366,133.30423)"
         d="m -622.35547,-95.884766 c -26.68092,0 -53.36184,0.65435 -64,1.964844 -72.19566,8.893758 -113.94025,31.197445 -120.17969,64.210938 -1.02599,5.428875 -1.32031,25.0721546 -1.32031,88.017578 v 81.029296 l 6.66992,9.9707 c 12.28747,18.37149 23.40806,29.61555 37.38086,37.79297 12.60507,7.377 30.42694,12.91726 46.94922,14.59571 10.77196,1.09428 26.83298,0.44528 38.48828,-1.55469 19.91339,-3.41696 46.0784,-14.8471 77.43555,-33.83008 29.03826,-17.57915 40.49475,-22.53524 60.31641,-26.08984 11.65046,-2.08933 34.9693,-2.06973 46.75976,0.0391 16.03366,2.86772 37.74963,11.33848 51.78906,20.20117 2.45118,1.54779 4.29573,2.13396 4.87891,1.55078 1.49514,-1.49514 0.44293,-186.383412 -1.09961,-193.234373 -7.21092,-32.026091 -49.24024,-53.973953 -120.06836,-62.699219 -10.63816,-1.310494 -37.31908,-1.964844 -64,-1.964844 z m 134.23633,36.832032 c 0.38121,0.01799 0.77236,0.05985 1.17383,0.125 5.76056,0.934828 18.17505,7.283288 23.07812,11.802734 12.3224,11.358387 11.33624,24.357146 -2.85547,37.6328125 -16.65475,15.5797037 -50.60408,24.2134885 -107.13281,27.2441405 -21.41408,1.147994 -68.43478,1.118162 -94,-0.05859 -40.58948,-1.868296 -70.88741,-8.1996137 -93.57422,-19.5566402 -8.49097,-4.2505701 -18.11429,-11.1079968 -22.19531,-15.8144528 -7.8373,-9.0384 -6.5542,-19.402869 3.4668,-27.980469 5.44989,-4.66492 18.90297,-11.5625 22.55078,-11.5625 5.81,0 8.34009,6.759942 4.00195,10.691406 -1.23749,1.121462 -5.52475,3.737048 -9.52734,5.8125 -6.98922,3.624076 -12.22266,8.285131 -12.22266,10.884766 0,3.083565 10.0552,11.11033 20.5,16.365234 23.87773,12.0131529 53.77918,16.9921167 109,18.1503908 81.83154,1.7164723 131.70416,-3.353343 158.42383,-16.1054688 7.34506,-3.505474 17.58535,-12.887079 18.61523,-17.054687 1.3245,-5.360013 -5.45948,-11.628474 -17.61523,-16.273438 -3.82386,-1.461165 -7.39552,-3.48536 -7.9375,-4.498047 -2.78306,-5.200228 0.53185,-10.074579 6.25,-9.804687 z m -45.49805,13.925781 c 4.59531,0.03378 6.24224,0.539743 9.25391,2.091797 12.09906,6.235238 11.78142,19.872705 -0.60156,25.867187 -3.15784,1.528668 -6.99306,2.374664 -11.78516,2.597657 -9.48896,0.441599 -15.33711,-1.504425 -19.98438,-6.648438 -3.04259,-3.367786 -3.62109,-4.732123 -3.62109,-8.552734 0,-5.880567 2.03334,-9.686474 6.72656,-12.591797 3.20395,-1.983383 5.36011,-2.386204 14.27344,-2.66211 2.34663,-0.07263 4.20651,-0.112823 5.73828,-0.101562 z"
         style="fill:#49bcda;fill-opacity:1;stroke-width:0.99999994"
         inkscape:connector-curvature="0" />
    </g>
  </g>
</svg>
