<?xml version="1.0" encoding="UTF-8" standalone="no"?>
<!-- Created with Inkscape (http://www.inkscape.org/) -->

<svg
   xmlns:dc="http://purl.org/dc/elements/1.1/"
   xmlns:cc="http://creativecommons.org/ns#"
   xmlns:rdf="http://www.w3.org/1999/02/22-rdf-syntax-ns#"
   xmlns:svg="http://www.w3.org/2000/svg"
   xmlns="http://www.w3.org/2000/svg"
   xmlns:sodipodi="http://sodipodi.sourceforge.net/DTD/sodipodi-0.dtd"
   xmlns:inkscape="http://www.inkscape.org/namespaces/inkscape"
   width="100mm"
   height="100mm"
   viewBox="0 0 100 100"
   version="1.1"
   id="svg8"
   inkscape:version="0.92.3 (2405546, 2018-03-11)"
   sodipodi:docname="ForegroundCandle.svg">
  <defs
     id="defs2" />
  <sodipodi:namedview
     id="base"
     pagecolor="#ebebeb"
     bordercolor="#666666"
     borderopacity="1.0"
     inkscape:pageopacity="0"
     inkscape:pageshadow="2"
     inkscape:zoom="0.49497475"
     inkscape:cx="-62.283033"
     inkscape:cy="-117.63797"
     inkscape:document-units="mm"
     inkscape:current-layer="layer1"
     showgrid="false"
     inkscape:window-width="1920"
     inkscape:window-height="1017"
     inkscape:window-x="-8"
     inkscape:window-y="-8"
     inkscape:window-maximized="1"
     fit-margin-top="0"
     fit-margin-left="0"
     fit-margin-right="0"
     fit-margin-bottom="0"
     inkscape:snap-global="false" />
  <metadata
     id="metadata5">
    <rdf:RDF>
      <cc:Work
         rdf:about="">
        <dc:format>image/svg+xml</dc:format>
        <dc:type
           rdf:resource="http://purl.org/dc/dcmitype/StillImage" />
        <dc:title></dc:title>
      </cc:Work>
    </rdf:RDF>
  </metadata>
  <g
     inkscape:label="svg"
     inkscape:groupmode="layer"
     id="layer1"
     style="display:inline"
     transform="translate(274.70366,-133.30423)">
    <g
       id="g68">
      <g
         id="g72">
        <circle
           style="fill:#ffffff;fill-opacity:1;stroke:none;stroke-width:0.13229166"
           id="path1439"
           cx="-224.70366"
           cy="183.30423"
           r="50" />
      </g>
    </g>
    <g
       id="g71"
       transform="matrix(0.46014744,0,0,0.46014744,15.429883,97.254115)">
      <path
         id="path57"
         transform="matrix(0.26458333,0,0,0.26458333,-274.70366,133.30423)"
         d="m -934.17578,395.20117 c -310.39382,0.0155 -300.15432,-0.12692 -300.98442,4.1836 -0.1745,0.90648 1.6511,4.26991 4.0567,7.47461 2.4055,3.20468 7.5643,10.10116 11.4648,15.32617 9.7199,13.02047 25.3222,30.0879 35.1953,38.5 43.6961,37.22982 92.4297,49.30209 213.58207,52.90625 18.56202,0.55222 89.84531,-0.38103 111,-1.45313 51.86309,-2.62836 91.50006,-8.90351 119.99414,-18.99609 35.10705,-12.43487 64.77672,-35.80623 91.78125,-72.30078 3.72586,-5.03524 8.77606,-11.73791 11.22266,-14.89453 4.7678,-6.15137 4.93921,-8.26445 0.80078,-9.83789 -1.46529,-0.55715 -119.72438,-0.91577 -298.11328,-0.90821 z m -264.12112,30.79688 c 2.8362,-0.0769 6.6119,2.66152 13.5274,9.17187 13.7869,12.97924 25.2542,21.21537 38.9082,27.94531 15.0129,7.39983 22.9589,10.23525 42.5,15.16602 9.8102,2.4754 15.9588,4.53136 16.75,5.59961 1.8425,2.48787 1.5224,6.03228 -0.75,8.30469 -2.7386,2.7386 -6.2059,2.50612 -21.5,-1.44141 -38.1041,-9.83497 -66.2583,-25.57643 -89.2832,-49.92187 -5.595,-5.91587 -6.7284,-9.98067 -3.6446,-13.06446 1.1079,-1.10787 2.2031,-1.7248 3.4922,-1.75976 z m 65.3399,16.48828 c 2.2823,-0.14296 5.3355,1.31636 12.1015,5.17578 14.7677,8.42351 28.4712,12.38983 45.4942,13.16992 6.325,0.28985 12.897,0.95257 14.6035,1.4707 6.2884,1.90931 6.3596,9.65513 0.1094,11.83399 -4.9223,1.7159 -21.8853,0.51234 -35.7129,-2.5332 -12.4996,-2.75301 -29.999,-10.46033 -38.75,-17.06641 -4.2286,-3.19211 -4.5896,-8.42555 -0.7559,-10.9375 0.9958,-0.65247 1.8728,-1.0483 2.9102,-1.11328 z"
         style="fill:#48bcda;stroke-width:0.99999994"
         inkscape:connector-curvature="0" />
      <path
         id="path51"
         transform="matrix(0.26458333,0,0,0.26458333,-274.70366,133.30423)"
         d="m -934.36133,35.222656 c -7.38486,0 -14.76857,0.51214 -19.79101,1.53711 -25.47958,5.199836 -39.44841,21.35734 -47.48046,54.925781 -2.1448,8.964203 -2.1542,9.572653 -2.4668,152.960933 -0.1727,79.17831 -0.09,144.54485 0.1836,145.25782 0.4021,1.04696 13.77391,1.24656 69.77733,1.03906 l 69.27734,-0.25781 v -144 c 0,-134.62077 -0.1151,-144.55362 -1.79101,-152.500003 -7.31006,-34.661027 -21.87126,-52.110594 -47.91602,-57.425781 -5.02244,-1.02497 -12.4081,-1.53711 -19.79297,-1.53711 z m -43.69336,69.230464 c 0.79271,-0.0422 1.58653,0.23024 2.32813,0.84571 1.73941,1.44355 1.64236,2.4981 -1.61914,17.38672 -2.83514,12.94227 -2.58469,28.12104 0.55273,33.50781 2.40582,4.13068 6.87305,6.70071 8.82813,5.07812 0.90345,-0.74982 1.47665,-5.76999 1.90234,-16.66992 0.6531,-16.72376 1.27009,-18.72212 5.61719,-18.21679 l 2.58398,0.30078 0.69531,24.3164 c 0.3817,13.37341 1.18259,25.79352 1.7793,27.60157 2.07326,6.2821 9.6933,7.00844 12.7461,1.21484 1.2554,-2.3825 1.66608,-6.0068 1.71484,-15.13281 0.0614,-11.4505 0.16339,-12.0136 2.1914,-12.30274 3.42445,-0.48854 5.15694,2.2655 5.92188,9.40821 1.51136,14.11305 -1.06889,23.75154 -7.5332,28.14453 -6.21974,4.22679 -16.68251,2.25709 -21.37305,-4.02539 -1.09175,-1.4623 -2.13154,-4.87365 -2.4082,-7.89844 -0.60087,-6.57158 -1.54687,-7.82617 -5.90625,-7.82617 -6.5449,0 -11.69673,-4.15761 -15.50196,-12.51172 -1.94808,-4.27646 -2.26694,-6.62784 -2.24804,-16.48828 0.0241,-11.58138 2.10082,-24.61957 5.1289,-32.21094 1.12304,-2.8155 2.85565,-4.42859 4.59961,-4.52149 z"
         style="fill:#48bcda;stroke-width:0.99999994"
         inkscape:connector-curvature="0" />
      <path
         id="path47"
         transform="matrix(0.26458333,0,0,0.26458333,-274.70366,133.30423)"
         d="m -942.31445,-156.11523 c -3.05713,-0.17856 -2.84833,3.84083 -2.38477,14.63476 0.86873,20.22736 0.61822,20.7154 -22.14062,43.177736 -19.40285,19.150109 -25.97292,27.656262 -30.93555,40.052734 -3.17741,7.936932 -4.52321,17.42791 -3.51951,24.824219 1.87906,13.84713 14.13192,28.3654633 31.43357,37.2441404 9.98015,5.1214487 19.18959,8.5766966 27.57031,10.3457026 6.0965,1.286892 23.16468,0.45538 30.42969,-1.482421 8.55602,-2.28223 26.82378,-11.5018023 34.8086,-17.5683598 3.74418,-2.8446613 9.61723,-7.9410122 13.05078,-11.3242192 5.13634,-5.06105 6.73072,-7.47021 9.00195,-13.597656 3.26064,-8.796737 3.67456,-19.222092 1.14844,-28.970703 -3.22349,-12.439899 -4.74163,-13.374057 -10.17383,-6.251953 -1.79297,2.350715 -3.61002,4.279424 -4.03711,4.283203 -0.42709,0.0046 -1.32239,-3.512507 -1.99023,-7.816406 -2.29588,-14.79515 -10.41557,-34.079477 -20.15821,-47.878907 -11.10954,-15.73554 -20.97108,-23.95842 -42.42383,-35.37305 -4.83472,-2.57247 -7.8454,-4.19169 -9.67968,-4.29882 z m 5.2539,34.47461 c 3.33361,-0.0341 6.69922,2.44783 6.69922,6.08789 0,2.35551 -7.38419,14.22157 -11.8164,18.988277 -4.50384,4.843729 -11.1836,2.680184 -11.1836,-3.623047 0,-2.61933 7.93994,-15.56689 12.09375,-19.7207 1.18246,-1.18248 2.69176,-1.71695 4.20703,-1.73242 z m -31.85156,34.789058 c 1.65938,0.05494 3.06736,0.896193 4.13867,2.53125 2.29191,3.497877 1.26072,6.421688 -4.64453,13.169921 -2.7747,3.170835 -6.64826,9.008575 -8.60742,12.972657 -3.29787,6.672907 -3.53484,7.757587 -3.1875,14.632812 0.47025,9.31234 3.9119,15.467118 11.35156,20.298828 10.45746,6.791622 12.56417,10.367477 8.5,14.4316409 -2.77179,2.7717921 -6.61849,2.4885928 -12.57812,-0.9296875 -18.3792,-10.5417824 -25.57426,-30.2222214 -18.22852,-49.8554684 2.5674,-6.861997 10.66057,-18.945585 15.79688,-23.585938 2.77742,-2.509214 5.32549,-3.736657 7.45898,-3.666015 z"
         style="fill:#48bcda;stroke-width:0.99999994"
         inkscape:connector-curvature="0" />
    </g>
  </g>
</svg>
