<?xml version="1.0" encoding="UTF-8" standalone="no"?>
<!-- Created with Inkscape (http://www.inkscape.org/) -->

<svg
   xmlns:dc="http://purl.org/dc/elements/1.1/"
   xmlns:cc="http://creativecommons.org/ns#"
   xmlns:rdf="http://www.w3.org/1999/02/22-rdf-syntax-ns#"
   xmlns:svg="http://www.w3.org/2000/svg"
   xmlns="http://www.w3.org/2000/svg"
   xmlns:sodipodi="http://sodipodi.sourceforge.net/DTD/sodipodi-0.dtd"
   xmlns:inkscape="http://www.inkscape.org/namespaces/inkscape"
   width="100mm"
   height="100mm"
   viewBox="0 0 100 100"
   version="1.1"
   id="svg8"
   inkscape:version="0.92.3 (2405546, 2018-03-11)"
   sodipodi:docname="ForegroundCactus.svg">
  <defs
     id="defs2" />
  <sodipodi:namedview
     id="base"
     pagecolor="#ebebeb"
     bordercolor="#666666"
     borderopacity="1.0"
     inkscape:pageopacity="0"
     inkscape:pageshadow="2"
     inkscape:zoom="0.175"
     inkscape:cx="-1787.7903"
     inkscape:cy="-727.3707"
     inkscape:document-units="mm"
     inkscape:current-layer="layer1"
     showgrid="false"
     inkscape:window-width="1920"
     inkscape:window-height="1017"
     inkscape:window-x="-8"
     inkscape:window-y="-8"
     inkscape:window-maximized="1"
     fit-margin-top="0"
     fit-margin-left="0"
     fit-margin-right="0"
     fit-margin-bottom="0"
     inkscape:snap-global="false" />
  <metadata
     id="metadata5">
    <rdf:RDF>
      <cc:Work
         rdf:about="">
        <dc:format>image/svg+xml</dc:format>
        <dc:type
           rdf:resource="http://purl.org/dc/dcmitype/StillImage" />
        <dc:title />
      </cc:Work>
    </rdf:RDF>
  </metadata>
  <g
     inkscape:label="svg"
     inkscape:groupmode="layer"
     id="layer1"
     style="display:inline"
     transform="translate(274.70366,-133.30423)">
    <g
       id="g72">
      <circle
         r="50"
         cy="183.30423"
         cx="-224.70366"
         id="path1439"
         style="fill:#ffffff;fill-opacity:1;stroke:none;stroke-width:0.13229166" />
      <path
         inkscape:connector-curvature="0"
         id="path48"
         d="m -224.36852,220.87758 c -1.96128,-0.52746 -3.52742,-2.05651 -4.12876,-4.03101 -0.19372,-0.63605 -0.20788,-1.12363 -0.17342,-5.96924 l 0.0375,-5.27662 -0.26948,-0.0614 c -0.14822,-0.0337 -1.74998,-0.0749 -3.55945,-0.0912 l -3.28997,-0.0298 -0.67157,-0.32977 c -0.4656,-0.22862 -0.79095,-0.49417 -1.06075,-0.86578 -0.4597,-0.63315 -0.59708,-1.11825 -0.69016,-2.43688 -0.04,-0.56706 -0.12756,-1.01458 -0.2085,-1.06602 -0.0767,-0.0488 -0.75388,-0.0895 -1.50478,-0.0904 -1.35406,-0.001 -1.36804,-0.005 -1.70271,-0.3392 -0.46057,-0.46057 -0.46086,-1.02136 -7.5e-4,-1.5366 l 0.33661,-0.37699 1.48152,-0.0577 1.48152,-0.0577 7.5e-4,-3.28996 c 7.6e-4,-3.64797 0.0289,-3.8109 0.78408,-4.59875 1.42046,-1.48187 3.70941,-1.13098 4.62941,0.70968 l 0.33523,0.6707 0.0459,3.71591 c 0.0252,2.04376 0.0705,3.83411 0.1006,3.97857 0.0544,0.26146 0.0629,0.26251 1.8699,0.23088 l 1.81516,-0.0318 0.0861,-3.4054 c 0.0473,-1.87298 0.0734,-4.3924 0.0577,-5.59872 l -0.0283,-2.19331 -7.38799,-0.0669 c -8.12876,-0.0736 -7.87839,-0.0517 -9.39383,-0.82092 -0.83709,-0.42488 -1.89101,-1.40368 -2.34434,-2.17723 -0.16836,-0.28728 -0.42494,-0.858 -0.57019,-1.26827 -0.24304,-0.68651 -0.26908,-0.99882 -0.32692,-3.92046 l -0.0628,-3.17452 -1.67384,-0.0602 c -0.92062,-0.0331 -1.76667,-0.10434 -1.88013,-0.15828 -0.26266,-0.12487 -0.54406,-0.66473 -0.54406,-1.04376 0,-0.16087 0.15146,-0.46215 0.33656,-0.6695 l 0.33657,-0.37699 1.48157,-0.0314 c 0.81487,-0.0174 1.59906,-0.0574 1.74263,-0.0891 l 0.26106,-0.0576 -0.0302,-4.5861 -0.0302,-4.5861 -1.9439,-0.0577 -1.94391,-0.0577 -0.27826,-0.32389 c -0.30673,-0.35701 -0.37364,-1.05031 -0.1303,-1.34995 0.39155,-0.48212 0.54477,-0.5184 2.43785,-0.57718 l 1.85852,-0.0577 0.0627,-6.40676 c 0.0664,-6.78148 0.0619,-6.72631 0.64258,-7.87392 0.40158,-0.79362 1.54335,-1.95872 2.33076,-2.3784 1.31436,-0.70055 2.85486,-0.89611 4.23249,-0.53727 2.0771,0.541 3.82766,2.40921 4.20783,4.49059 0.0841,0.4604 0.12511,4.23156 0.12511,11.50253 0,9.7577 0.0179,10.82442 0.18259,10.88763 0.10043,0.0386 2.07604,0.0701 4.39025,0.0701 3.44537,0 4.21858,-0.0285 4.26801,-0.15732 0.0332,-0.0865 0.0705,-1.55402 0.083,-3.26111 l 0.0226,-3.10378 -1.78927,-0.0577 c -2.20707,-0.0712 -2.53962,-0.22235 -2.53962,-1.15437 0,-0.96 0.43522,-1.15437 2.58479,-1.15437 0.92002,0 1.70042,-0.0448 1.73424,-0.0995 0.0338,-0.0547 0.1134,-0.56119 0.17686,-1.12551 0.33448,-2.97412 2.72121,-5.12406 5.6884,-5.12406 3.60589,0 6.15665,2.01925 6.56388,5.19613 0.0843,0.65731 0.11281,3.9811 0.0868,10.09931 l -0.0388,9.11955 1.6288,0.0319 1.62879,0.0319 0.0801,-6.20783 c 0.0858,-6.64676 0.10005,-6.80797 0.70974,-8.01114 1.02654,-2.02579 3.61919,-3.34854 5.86126,-2.99036 1.43957,0.22997 2.46309,0.7695 3.42801,1.80699 0.6761,0.72694 0.95783,1.19838 1.26747,2.12091 0.24273,0.72317 0.25131,0.91196 0.23713,5.21452 -0.0103,3.11627 0.0234,4.48769 0.1113,4.54206 0.0693,0.0428 0.8631,0.10546 1.76398,0.13916 0.95754,0.0359 1.79555,0.12536 2.0173,0.21557 0.78248,0.3183 0.88321,1.49221 0.16824,1.96068 -0.2571,0.16846 -0.60529,0.20257 -2.15863,0.21147 l -1.85206,0.0106 -0.062,3.75172 c -0.0613,3.70598 -0.0658,3.76264 -0.37507,4.64849 -0.68875,1.97297 -1.97937,3.27713 -3.88349,3.92424 -0.73869,0.25103 -0.88938,0.25783 -5.72248,0.25802 l -4.9638,2.4e-4 -0.10093,3.88865 c -0.0556,2.13876 -0.0689,4.01623 -0.0298,4.17215 l 0.0712,0.28351 2.04994,0.0755 c 1.12747,0.0415 2.17129,0.10115 2.31962,0.13257 0.79009,0.16737 1.10003,1.21782 0.54863,1.85944 l -0.27834,0.32386 -2.34786,0.0577 -2.34785,0.0577 -0.0652,5.88731 c -0.0483,4.36433 -0.10396,6.00675 -0.21518,6.34905 -0.74655,2.29738 -2.38402,3.67278 -5.01365,4.21126 -1.32081,0.27048 -2.30212,0.2861 -3.17772,0.0507 z"
         style="fill:#48bcda;stroke-width:0.11543735" />
    </g>
  </g>
</svg>
