<?xml version="1.0" encoding="UTF-8" standalone="no"?>
<!-- Created with Inkscape (http://www.inkscape.org/) -->

<svg
   xmlns:dc="http://purl.org/dc/elements/1.1/"
   xmlns:cc="http://creativecommons.org/ns#"
   xmlns:rdf="http://www.w3.org/1999/02/22-rdf-syntax-ns#"
   xmlns:svg="http://www.w3.org/2000/svg"
   xmlns="http://www.w3.org/2000/svg"
   xmlns:sodipodi="http://sodipodi.sourceforge.net/DTD/sodipodi-0.dtd"
   xmlns:inkscape="http://www.inkscape.org/namespaces/inkscape"
   width="100mm"
   height="100mm"
   viewBox="0 0 100 100"
   version="1.1"
   id="svg8"
   inkscape:version="0.92.3 (2405546, 2018-03-11)"
   sodipodi:docname="ForegroundBagel.svg">
  <defs
     id="defs2" />
  <sodipodi:namedview
     id="base"
     pagecolor="#ebebeb"
     bordercolor="#666666"
     borderopacity="1.0"
     inkscape:pageopacity="0"
     inkscape:pageshadow="2"
     inkscape:zoom="0.49497475"
     inkscape:cx="-212.70166"
     inkscape:cy="182.78635"
     inkscape:document-units="mm"
     inkscape:current-layer="layer1"
     showgrid="false"
     inkscape:window-width="1920"
     inkscape:window-height="1017"
     inkscape:window-x="-8"
     inkscape:window-y="-8"
     inkscape:window-maximized="1"
     fit-margin-top="0"
     fit-margin-left="0"
     fit-margin-right="0"
     fit-margin-bottom="0"
     inkscape:snap-global="false" />
  <metadata
     id="metadata5">
    <rdf:RDF>
      <cc:Work
         rdf:about="">
        <dc:format>image/svg+xml</dc:format>
        <dc:type
           rdf:resource="http://purl.org/dc/dcmitype/StillImage" />
        <dc:title />
      </cc:Work>
    </rdf:RDF>
  </metadata>
  <g
     inkscape:label="svg"
     inkscape:groupmode="layer"
     id="layer1"
     style="display:inline"
     transform="translate(274.70366,-133.30423)">
    <g
       id="g144">
      <circle
         r="50"
         cy="183.30423"
         cx="-224.70366"
         id="path1439"
         style="fill:#ffffff;fill-opacity:1;stroke:none;stroke-width:0.13229166" />
      <g
         transform="matrix(0.50637414,0,0,0.49113931,-5.2234774,98.778281)"
         id="g112">
        <path
           inkscape:connector-curvature="0"
           style="fill:#48bcda;stroke-width:0.26458332"
           d="m -438.32956,248.38015 c -0.50933,-0.0603 -2.11667,-0.23507 -3.57188,-0.38832 -15.54468,-1.637 -31.25415,-9.26092 -42.91761,-20.82824 -10.70569,-10.61743 -18.29491,-24.68735 -21.22448,-39.34879 -1.14422,-5.72645 -1.4472,-9.0222 -1.4472,-15.74271 0,-8.50328 0.74031,-14.03576 2.89281,-21.61879 0.99045,-3.48924 3.04179,-9.01519 3.69033,-9.94111 0.48678,-0.69498 0.48717,-0.53435 0.004,1.66198 -1.00689,4.57761 -0.11302,7.50784 2.71611,8.90374 2.38076,1.17467 5.96845,0.76469 7.79809,-0.89111 0.4511,-0.40823 0.55313,-0.35399 1.73043,0.91991 2.1084,2.28142 4.18212,2.8876 6.88836,2.01359 1.29459,-0.41811 1.35574,-0.41416 2.05044,0.13229 1.8872,1.48447 3.82862,-0.24877 2.62907,-2.34717 -0.20797,-0.3638 -0.38235,-1.33288 -0.3875,-2.1535 -0.0111,-1.75905 -0.58575,-2.67515 -1.6782,-2.67515 -0.92555,0 -1.4039,0.42065 -1.99543,1.75475 -0.79697,1.79745 -2.18191,2.50254 -3.67903,1.87305 -1.0779,-0.45323 -1.67025,-1.40637 -2.18421,-3.51457 -0.31201,-1.27982 -0.60752,-1.86889 -1.13517,-2.26284 -1.08068,-0.80685 -1.95365,-0.37 -3.11642,1.55949 -0.52445,0.87027 -1.34725,1.8502 -1.82844,2.17762 -1.21422,0.8262 -2.90331,0.80669 -3.89075,-0.0449 -0.6884,-0.59372 -0.73936,-0.77159 -0.70121,-2.44739 0.0254,-1.1182 0.30156,-2.6141 0.72422,-3.92381 0.3757,-1.16417 0.68461,-2.42564 0.68647,-2.80326 0.005,-1.0292 -0.84333,-1.66595 -1.97502,-1.4823 -0.63031,0.10228 -0.93203,0.049 -0.93203,-0.16462 0,-0.53338 2.86188,-5.44339 4.96277,-8.5144 12.1472,-17.75644 30.39592,-29.139874 51.39348,-32.058916 4.56513,-0.634637 14.22029,-0.634637 18.78542,0 20.99675,2.918931 39.28393,14.327256 51.38941,32.058916 1.97497,2.89286 4.17309,6.58976 4.17309,7.01851 0,0.12334 -0.40039,0.15928 -0.88976,0.0799 -1.93412,-0.31386 -2.61679,0.90443 -1.74546,3.115 0.58187,1.47622 0.43056,2.00084 -0.49257,1.70785 -0.95122,-0.3019 -2.3311,-2.1302 -3.07292,-4.07153 -1.03365,-2.70502 -2.39169,-3.62293 -3.58888,-2.42575 -0.69173,0.69174 -0.66746,1.33259 0.12552,3.31474 0.97862,2.44614 1.11974,4.25618 0.44991,5.77044 -0.73449,1.66043 -1.35698,1.64162 -2.95668,-0.0893 -1.3572,-1.46857 -1.94172,-1.61251 -3.04,-0.74861 -0.69123,0.54372 -0.72143,0.65738 -0.56708,2.13412 0.2107,2.01584 -0.21916,2.89206 -1.7118,3.4893 -1.99509,0.79827 -2.93921,0.2169 -4.15454,-2.55832 -0.72046,-1.64518 -1.61848,-2.10257 -2.63891,-1.34409 -0.92413,0.6869 -1.00878,1.50003 -0.34167,3.28185 1.08951,2.90996 3.14786,4.477 5.8807,4.477 1.97189,0 4.45332,-1.22225 5.54721,-2.73234 l 0.78431,-1.0827 1.81591,-0.0107 c 1.61656,-0.01 1.92285,-0.0978 2.7902,-0.80446 0.53587,-0.43656 1.30375,-1.38906 1.70642,-2.11666 0.76682,-1.38561 0.82108,-1.40479 2.53888,-0.89747 1.53785,0.45418 2.94272,0.11366 4.03421,-0.97783 0.89727,-0.89726 0.90638,-0.92996 0.80714,-2.89523 -0.0976,-1.93206 -0.0875,-1.97089 0.3586,-1.38672 0.73043,0.95644 3.52267,8.22864 4.54833,11.84579 2.17591,7.67369 2.91367,13.16724 2.91367,21.69583 0,6.72052 -0.30297,10.01627 -1.4472,15.74271 -1.87443,9.38085 -5.93426,19.18361 -11.2488,27.16106 -12.14424,18.22923 -30.68573,30.02728 -51.70266,32.89867 -2.91266,0.39794 -12.61506,0.73506 -14.55208,0.50563 z"
           id="path88" />
        <path
           inkscape:connector-curvature="0"
           style="fill:#ffffff;stroke-width:0.26458332"
           d="m -445.82929,237.39968 c 3.20825,-2.09808 3.53098,-2.41312 3.53098,-3.44676 0,-0.93278 -0.6332,-1.55583 -1.58116,-1.55583 -0.75144,0 -6.1289,3.29309 -6.81936,4.1761 -0.46277,0.59182 -0.41189,1.64568 0.10715,2.21921 0.78097,0.86297 1.74365,0.58144 4.76239,-1.39272 z"
           id="path86" />
        <path
           inkscape:connector-curvature="0"
           style="fill:#ffffff;stroke-width:0.26458332"
           d="m -471.31894,231.82831 c 1.46823,-0.77281 1.32048,-1.54408 -1.18099,-6.16474 -2.35209,-4.34474 -3.17825,-5.43732 -4.11143,-5.43732 -0.77518,0 -1.67029,0.88011 -1.67029,1.6423 0,0.96871 4.75463,9.4472 5.53619,9.87218 0.84134,0.45749 0.73603,0.45103 1.42652,0.0876 z"
           id="path84" />
        <path
           inkscape:connector-curvature="0"
           style="fill:#ffffff;stroke-width:0.26458332"
           d="m -409.30179,231.0179 c 0.49571,-0.39612 0.64366,-1.13198 0.37152,-1.84778 -0.2428,-0.63861 -6.51012,-5.3576 -8.04183,-6.05512 -0.64203,-0.29237 -0.82653,-0.26692 -1.45521,0.2007 -0.79997,0.59503 -1.02516,1.38476 -0.61396,2.15309 0.27104,0.50645 6.00682,4.80649 7.54734,5.65814 0.7963,0.44023 1.5518,0.40265 2.19214,-0.10903 z"
           id="path82" />
        <path
           inkscape:connector-curvature="0"
           style="fill:#ffffff;stroke-width:0.26458332"
           d="m -426.75808,217.69741 c 16.23147,-2.41014 29.83721,-13.02373 36.07756,-28.14344 4.61021,-11.17007 4.61021,-24.05828 0,-35.22835 -6.24035,-15.11971 -19.84609,-25.7333 -36.07756,-28.14344 -3.56506,-0.52936 -9.78832,-0.52936 -13.35339,0 -16.23146,2.41014 -29.8372,13.02373 -36.07755,28.14344 -4.61021,11.17007 -4.61021,24.05828 0,35.22835 6.20065,15.02352 19.74417,25.64563 35.87508,28.13664 3.30711,0.5107 10.13921,0.51413 13.55586,0.007 z"
           id="path80" />
        <path
           inkscape:connector-curvature="0"
           style="fill:#ffffff;stroke-width:0.26458332"
           d="m -388.32331,217.31584 c 0.77713,-0.77714 0.66124,-1.64705 -0.66836,-5.01683 -1.27544,-3.23252 -1.97364,-4.24359 -2.93043,-4.24359 -0.62801,0 -1.69288,1.12161 -1.69288,1.78308 0,0.88585 2.71354,7.23017 3.25449,7.60907 0.77134,0.54027 1.40623,0.49921 2.03718,-0.13173 z"
           id="path78" />
        <path
           inkscape:connector-curvature="0"
           style="fill:#ffffff;stroke-width:0.26458332"
           d="m -489.65146,208.40438 c 0.87712,-0.59636 4.77095,-4.02194 5.34466,-4.70193 0.9467,-1.12208 0.28407,-2.79078 -1.1082,-2.79078 -0.84901,0 -1.7875,0.67284 -4.82923,3.46226 -1.78038,1.6327 -2.32492,2.29315 -2.32492,2.8198 0,1.48017 1.56575,2.12986 2.91769,1.21065 z"
           id="path76" />
        <path
           inkscape:connector-curvature="0"
           style="fill:#ffffff;stroke-width:0.26458332"
           d="m -375.38078,199.17608 c 0.76344,-0.72485 0.42392,-1.80875 -1.37459,-4.38835 -0.96218,-1.38005 -2.05311,-2.64756 -2.4243,-2.81668 -1.42755,-0.65044 -2.68622,0.68692 -2.10405,2.23558 0.39121,1.04069 3.35209,5.06783 3.93077,5.34632 0.6163,0.29659 1.42579,0.1419 1.97217,-0.37687 z"
           id="path74" />
        <path
           inkscape:connector-curvature="0"
           style="fill:#ffffff;stroke-width:0.26458332"
           d="m -485.4254,183.97834 c 0.82865,-0.82865 0.66386,-1.66883 -0.54081,-2.75718 -0.58849,-0.53166 -1.46519,-1.15512 -1.94823,-1.38546 -0.76025,-0.36254 -0.98084,-0.36986 -1.64199,-0.0545 -0.57953,0.27645 -0.7842,0.57728 -0.84851,1.24713 -0.0982,1.02302 0.29227,1.5411 2.02824,2.69096 1.39055,0.92106 2.21675,0.99357 2.9513,0.25902 z"
           id="path72" />
        <path
           inkscape:connector-curvature="0"
           style="fill:#ffffff;stroke-width:0.26458332"
           d="m -380.6504,179.92074 c 0.36381,-0.30646 1.5842,-1.45084 2.71198,-2.54307 1.4996,-1.45232 2.04944,-2.16526 2.04647,-2.65354 -0.005,-0.82376 -0.21852,-1.15808 -1.00391,-1.57185 -0.88153,-0.46443 -1.9432,0.18071 -4.67189,2.83894 -1.75191,1.70666 -2.25765,2.36211 -2.25765,2.92599 0,1.80096 1.62037,2.31311 3.175,1.00353 z"
           id="path70" />
        <path
           inkscape:connector-curvature="0"
           style="fill:#ffffff;stroke-width:0.26458332"
           d="m -391.32042,135.22886 c 0.2941,-0.32742 1.08876,-1.62567 1.76591,-2.885 1.4548,-2.70552 1.60614,-3.93474 0.56818,-4.61483 -1.17257,-0.7683 -1.98843,-0.16097 -3.52539,2.62432 -1.97919,3.5867 -2.10617,4.09095 -1.29437,5.14009 0.42732,0.55227 1.892,0.39637 2.48567,-0.26458 z"
           id="path68" />
        <path
           inkscape:connector-curvature="0"
           style="fill:#ffffff;stroke-width:0.26458332"
           d="m -480.05591,134.3347 c 1.77238,-0.42138 3.3441,-0.9502 3.63802,-1.22402 1.10319,-1.02779 0.34802,-2.84775 -1.17716,-2.83697 -0.98329,0.007 -6.39551,1.36065 -7.23191,1.80883 -1.56854,0.8405 -0.49539,3.4805 1.25365,3.08402 0.21828,-0.0495 1.80111,-0.42382 3.5174,-0.83186 z"
           id="path66" />
        <path
           inkscape:connector-curvature="0"
           style="fill:#ffffff;stroke-width:0.26458332"
           d="m -402.08165,125.77 c 0.69646,-0.69645 0.67061,-1.66597 -0.0661,-2.48167 -0.67608,-0.74851 -6.05492,-5.29362 -6.98883,-5.90554 -0.79565,-0.52133 -1.80572,-0.26708 -2.37192,0.59704 -0.56432,0.86127 -0.20262,1.73494 1.2237,2.95581 6.65256,5.69434 7.08711,5.95044 8.20319,4.83436 z"
           id="path64" />
        <path
           inkscape:connector-curvature="0"
           style="fill:#ffffff;stroke-width:0.26458332"
           d="m -463.45328,123.50695 c 0.8604,-1.03672 0.45735,-1.79713 -2.77327,-5.23212 -3.43963,-3.65722 -4.25653,-4.19846 -5.30246,-3.51314 -0.85791,0.56212 -1.10984,1.57785 -0.58167,2.34514 0.22466,0.32636 1.75583,1.99403 3.4026,3.70592 2.74817,2.85685 3.07299,3.11224 3.95393,3.10886 0.54107,-0.002 1.10859,-0.18298 1.30087,-0.41466 z"
           id="path62" />
        <path
           inkscape:connector-curvature="0"
           style="fill:#ffffff;stroke-width:0.26458332"
           d="m -435.1333,121.20594 c 3.6303,-1.82403 4.38618,-2.3047 4.59879,-2.92438 0.29966,-0.87343 0.0158,-1.45652 -0.98613,-2.02556 -0.64617,-0.36698 -0.88936,-0.28277 -4.9664,1.71979 -4.03654,1.98267 -5.28211,2.8648 -5.28211,3.74088 0,0.54113 1.21421,1.67208 1.79518,1.67208 0.27297,0 2.45127,-0.98226 4.84067,-2.18281 z"
           id="path60" />
        <path
           inkscape:connector-curvature="0"
           style="fill:#ffffff;stroke-width:0.26458332"
           d="m -388.94309,119.06951 c 1.48732,-1.4091 1.7663,-1.81201 1.7663,-2.55099 0,-1.02895 -0.62394,-1.59643 -1.75526,-1.59643 -0.59066,0 -1.17999,0.39597 -2.50707,1.68454 -1.44068,1.39887 -1.73489,1.83147 -1.73489,2.55099 0,1.00822 0.62751,1.5853 1.72385,1.5853 0.54704,0 1.2027,-0.43764 2.50707,-1.67341 z"
           id="path58" />
        <path
           inkscape:connector-curvature="0"
           style="fill:#ffffff;stroke-width:0.26458332"
           d="m -447.99714,114.04888 c 0.53513,-0.81671 2.52383,-7.59881 2.52383,-8.60706 0,-0.44037 -0.1871,-0.98778 -0.41578,-1.21646 -0.57645,-0.57645 -1.78915,-0.51998 -2.35914,0.10985 -0.48166,0.53223 -2.76806,7.62182 -2.77666,8.60978 -0.0139,1.59396 2.18205,2.39458 3.02775,1.10389 z"
           id="path56" />
        <path
           inkscape:connector-curvature="0"
           style="fill:#ffffff;stroke-width:0.26458332"
           d="m -420.48519,110.62988 c 0.59004,-0.84239 0.52282,-1.32318 -0.49206,-3.51975 -0.71487,-1.54724 -1.05098,-1.99336 -1.60701,-2.13291 -0.96106,-0.24121 -1.93634,0.2583 -2.14758,1.09995 -0.18868,0.75178 0.91473,3.82512 1.67943,4.67773 0.60558,0.67521 2.0562,0.60456 2.56722,-0.12502 z"
           id="path48" />
      </g>
    </g>
  </g>
</svg>
