<?xml version="1.0" encoding="UTF-8" standalone="no"?>
<!-- Created with Inkscape (http://www.inkscape.org/) -->

<svg
   xmlns:dc="http://purl.org/dc/elements/1.1/"
   xmlns:cc="http://creativecommons.org/ns#"
   xmlns:rdf="http://www.w3.org/1999/02/22-rdf-syntax-ns#"
   xmlns:svg="http://www.w3.org/2000/svg"
   xmlns="http://www.w3.org/2000/svg"
   xmlns:sodipodi="http://sodipodi.sourceforge.net/DTD/sodipodi-0.dtd"
   xmlns:inkscape="http://www.inkscape.org/namespaces/inkscape"
   width="100mm"
   height="100mm"
   viewBox="0 0 100 100"
   version="1.1"
   id="svg8"
   inkscape:version="0.92.3 (2405546, 2018-03-11)"
   sodipodi:docname="ForegroundBug.svg">
  <defs
     id="defs2" />
  <sodipodi:namedview
     id="base"
     pagecolor="#ebebeb"
     bordercolor="#666666"
     borderopacity="1.0"
     inkscape:pageopacity="0"
     inkscape:pageshadow="2"
     inkscape:zoom="0.7"
     inkscape:cx="-251.18101"
     inkscape:cy="160.23315"
     inkscape:document-units="mm"
     inkscape:current-layer="layer1"
     showgrid="false"
     inkscape:window-width="1920"
     inkscape:window-height="1017"
     inkscape:window-x="-8"
     inkscape:window-y="-8"
     inkscape:window-maximized="1"
     fit-margin-top="0"
     fit-margin-left="0"
     fit-margin-right="0"
     fit-margin-bottom="0" />
  <metadata
     id="metadata5">
    <rdf:RDF>
      <cc:Work
         rdf:about="">
        <dc:format>image/svg+xml</dc:format>
        <dc:type
           rdf:resource="http://purl.org/dc/dcmitype/StillImage" />
        <dc:title />
      </cc:Work>
    </rdf:RDF>
  </metadata>
  <g
     inkscape:label="svg"
     inkscape:groupmode="layer"
     id="layer1"
     style="display:inline"
     transform="translate(274.70366,-133.30423)">
    <g
       id="g2028">
      <circle
         r="50"
         cy="183.30423"
         cx="-224.70366"
         id="path1439"
         style="fill:#ffffff;fill-opacity:1;stroke:none;stroke-width:0.13229166" />
      <g
         transform="matrix(0.44090806,0,0,0.43885185,-141.0846,118.41824)"
         id="g880">
        <path
           inkscape:connector-curvature="0"
           style="fill:#49bddb;fill-opacity:1;stroke-width:0.26458332"
           d="m -171.01534,233.13771 c -0.63842,-0.23338 -1.60503,-1.2054 -2.05065,-2.06211 -0.29426,-0.56573 -0.70075,-3.97197 -1.41503,-11.85765 -0.55119,-6.08514 -0.93608,-11.23611 -0.85531,-11.4466 0.2322,-0.60511 -0.42808,-1.1697 -1.36796,-1.1697 -0.4739,0 -2.15596,-0.22686 -3.73791,-0.50413 -8.89493,-1.55902 -17.24374,-4.68146 -25.71701,-9.61813 -2.30778,-1.34455 -2.78612,-1.53491 -3.07801,-1.22495 -0.52203,0.55435 -3.7159,4.2886 -8.9551,10.47026 -2.94211,3.47136 -5.09183,5.77271 -5.72456,6.12832 -2.02419,1.13765 -4.19045,0.46441 -5.27348,-1.63892 -0.57463,-1.11597 -0.60127,-1.32746 -0.31261,-2.48232 0.19074,-0.76312 0.74946,-1.78566 1.41263,-2.58534 1.28673,-1.55161 5.28134,-6.26299 9.4219,-11.1125 1.61522,-1.89177 2.93715,-3.56077 2.93763,-3.70888 5.3e-4,-0.1481 -1.15667,-1.21967 -2.57146,-2.38125 -3.17851,-2.60963 -9.08042,-8.45293 -11.76288,-11.64606 -2.10842,-2.50981 -5.8813,-7.57967 -7.22884,-9.71386 -0.43627,-0.69096 -0.89203,-1.25651 -1.01278,-1.25677 -0.12076,-2.6e-4 -4.28795,1.92172 -9.26042,4.27106 -4.97247,2.34934 -9.60351,4.42545 -10.2912,4.61358 -2.70268,0.73936 -4.96539,-0.89816 -4.96539,-3.59345 0,-1.33473 0.66649,-2.64277 1.68744,-3.31172 0.361,-0.23653 4.67818,-2.32804 9.59375,-4.64778 4.91556,-2.31975 9.03185,-4.31218 9.14729,-4.42762 0.11544,-0.11545 -0.40183,-1.57252 -1.14949,-3.23795 -0.74767,-1.66543 -1.99745,-4.95592 -2.77729,-7.3122 -3.85592,-11.65062 -4.53326,-23.04752 -1.96655,-33.08919 0.35278,-1.38016 0.4072,-1.97068 0.19379,-2.10257 -0.16322,-0.10088 -5.00296,-0.28167 -10.75498,-0.40176 -5.75203,-0.12009 -11.0773,-0.28308 -11.83394,-0.36219 -4.18393,-0.43746 -5.45787,-4.87907 -2.11124,-7.36082 0.8853,-0.6565 1.77451,-0.67329 18.17132,-0.34293 l 10.45105,0.21056 1.63457,-2.45952 c 1.92629,-2.898468 4.59762,-5.862978 7.20633,-7.997248 1.5406,-1.26041 1.87472,-1.67068 1.87472,-2.30196 0,-0.42251 -0.83344,-5.90074 -1.85208,-12.17386 -1.01865,-6.27311 -1.85209,-11.992013 -1.85209,-12.708671 0,-2.489343 1.52436,-4.187153 3.75939,-4.187153 1.71878,0 2.91455,0.725839 3.61248,2.19279 0.35876,0.754076 1.08928,4.615537 2.2589,11.940354 0.95076,5.95422 1.82192,10.91359 1.93592,11.02083 0.114,0.10724 1.58625,-0.26839 3.27168,-0.83473 4.9768,-1.67231 8.41546,-2.17787 14.92726,-2.19464 4.08248,-0.0105 6.34302,0.10995 8.52247,0.45414 8.06258,1.27329 15.79136,3.83321 23.35032,7.73409 2.62317,1.35372 3.36332,1.63419 3.61815,1.37108 0.17621,-0.18194 2.60402,-4.08126 5.39515,-8.66516 2.79113,-4.58391 5.3737,-8.73147 5.73905,-9.2168 1.37325,-1.824219 3.26685,-2.357886 5.08209,-1.432273 1.98218,1.010733 2.65962,3.289653 1.59836,5.376943 -0.32748,0.64409 -2.98181,5.08751 -5.89851,9.87426 l -5.30308,8.70317 0.66687,0.55724 c 0.36679,0.30649 2.02573,1.625318 3.68655,2.930748 5.74124,4.51269 13.28048,12.37953 17.57774,18.34151 1.02941,1.4282 1.72305,2.15793 1.98697,2.09034 0.223,-0.0571 3.91394,-2.48997 8.20208,-5.40637 4.41682,-3.00391 8.25179,-5.42746 8.84661,-5.59071 3.55563,-0.97581 6.28116,3.00113 4.12856,6.02418 -0.28287,0.39726 -4.16269,3.19973 -8.62181,6.22772 -4.45912,3.02799 -8.16782,5.66263 -8.24154,5.85475 -0.0737,0.19212 0.58102,1.8147 1.45498,3.60574 4.71694,9.66657 7.21645,18.90802 7.63148,28.21598 0.15736,3.52896 0.20762,3.80681 0.72228,3.99293 0.30423,0.11002 4.92375,1.06852 10.26561,2.12999 6.04294,1.20078 10.01741,2.11539 10.5196,2.42079 2.44155,1.48479 2.49705,5.03006 0.10347,6.60813 -1.22824,0.80976 -3.04709,0.62078 -12.79491,-1.32941 -5.02047,-1.00441 -9.22167,-1.73715 -9.336,-1.62831 -0.11433,0.10885 -0.54901,1.49739 -0.96595,3.08565 -4.44564,16.93469 -17.92996,28.14954 -35.93986,29.89103 -1.05825,0.10233 -1.97697,0.27159 -2.04159,0.37615 -0.0646,0.10455 0.29521,4.76051 0.79962,10.34656 0.50441,5.58605 0.91711,10.78905 0.91711,11.56223 0,2.55256 -1.50213,4.30545 -3.65832,4.26902 -0.68006,-0.0115 -1.41506,-0.0862 -1.63334,-0.16596 z"
           id="path866" />
        <path
           inkscape:connector-curvature="0"
           style="fill:#ffffff;stroke-width:0.26458332"
           d="m -163.02024,196.46332 c 1.97843,-0.96796 3.93937,-3.09308 4.68929,-5.0819 0.82954,-2.19999 0.68995,-5.23584 -0.33728,-7.33544 -1.88529,-3.85339 -6.59298,-5.99611 -10.6456,-4.84539 -5.5529,1.57671 -8.4411,7.6056 -6.09672,12.7264 1.08255,2.3646 2.97599,4.05266 5.6769,5.06114 1.5962,0.59599 4.96004,0.33303 6.71341,-0.52481 z"
           id="path864" />
        <path
           inkscape:connector-curvature="0"
           style="fill:#ffffff;stroke-width:0.26458332"
           d="m -203.17683,187.94211 c 1.50799,-0.24445 3.44715,-1.30461 4.64614,-2.5401 2.39562,-2.46852 3.16803,-5.8215 2.12904,-9.24212 -0.50913,-1.67621 -0.80047,-2.14384 -2.21813,-3.56034 -2.21781,-2.21598 -3.91658,-2.86962 -7.05598,-2.71495 -1.74832,0.0861 -2.54345,0.26234 -3.57187,0.79156 -5.45367,2.80641 -6.80551,9.90497 -2.73456,14.35925 0.74969,0.82028 1.93672,1.7821 2.63784,2.13739 1.28224,0.64976 3.61114,1.16576 4.59463,1.018 0.29104,-0.0437 0.99884,-0.15564 1.57289,-0.24869 z"
           id="path862" />
        <path
           inkscape:connector-curvature="0"
           style="fill:#ffffff;stroke-width:0.26458332"
           d="m -142.38344,176.06647 c 1.72765,-0.81731 3.71012,-2.83099 4.52568,-4.59693 0.82628,-1.78918 0.82628,-5.73411 0,-7.52329 -0.86014,-1.86246 -2.738,-3.72035 -4.65288,-4.60338 -1.40575,-0.64824 -1.98182,-0.76082 -3.89845,-0.76187 -1.88602,-10e-4 -2.49219,0.11278 -3.75616,0.70526 -2.82593,1.32462 -4.69066,3.80906 -5.294,7.05335 -0.7817,4.20339 2.11871,8.86334 6.36812,10.23135 1.84174,0.59292 4.86929,0.36521 6.70769,-0.50449 z"
           id="path860" />
        <path
           inkscape:connector-curvature="0"
           style="fill:#ffffff;stroke-width:0.26458332"
           d="m -221.98409,155.83933 c 1.98742,-0.9784 3.39318,-2.42844 4.36632,-4.50385 0.58235,-1.24198 0.69722,-1.85839 0.69722,-3.74148 0,-2.01025 -0.0934,-2.44434 -0.86246,-4.00642 -1.00375,-2.03891 -2.43811,-3.43817 -4.52975,-4.41892 -1.24108,-0.58193 -1.85884,-0.69722 -3.73592,-0.69722 -1.87707,0 -2.49483,0.11529 -3.73592,0.69722 -2.09163,0.98075 -3.52599,2.38001 -4.52974,4.41892 -0.76902,1.56208 -0.86246,1.99617 -0.86246,4.00642 0,1.87574 0.11562,2.50104 0.68821,3.7218 2.29864,4.90076 7.7399,6.86914 12.5045,4.52353 z"
           id="path858" />
        <path
           inkscape:connector-curvature="0"
           style="fill:#ffffff;stroke-width:0.26458332"
           d="m -186.60764,154.32857 c 3.18996,-0.92063 5.66523,-3.48242 6.48453,-6.71118 1.04399,-4.11427 -0.99327,-8.46824 -4.91515,-10.50452 -1.30095,-0.67546 -1.72165,-0.75569 -3.96875,-0.75683 -2.21481,-0.001 -2.69164,0.0862 -4.01205,0.73462 -3.24069,1.59143 -5.0371,4.35375 -5.1996,7.99536 -0.1167,2.61507 0.51894,4.52749 2.10289,6.32696 2.46432,2.7996 6.07433,3.90659 9.50813,2.91559 z"
           id="path856" />
        <path
           inkscape:connector-curvature="0"
           style="fill:#ffffff;stroke-width:0.26458332"
           d="m -152.79933,139.25963 c 5.09704,-2.32483 7.07978,-8.70102 4.14922,-13.34332 -0.93919,-1.48778 -2.93034,-3.10404 -4.59923,-3.73331 -2.13679,-0.80568 -5.41236,-0.63921 -7.39014,0.3756 -1.77937,0.913 -3.28299,2.41662 -4.19599,4.19599 -1.01806,1.98412 -1.18148,5.2528 -0.3702,7.40457 1.02071,2.70723 3.66804,5.03265 6.55852,5.76101 1.57474,0.39681 4.1731,0.10331 5.84782,-0.66054 z"
           id="path854" />
        <path
           inkscape:connector-curvature="0"
           style="fill:#ffffff;stroke-width:0.26458332"
           d="m -182.73503,115.54195 c 2.11117,-0.78989 4.27748,-2.96928 5.08756,-5.1183 1.30687,-3.46688 0.54402,-7.3148 -1.94138,-9.79252 -2.11392,-2.107398 -3.4556,-2.640988 -6.64003,-2.640738 -2.38259,1.8e-4 -2.78494,0.0735 -4.04394,0.73664 -1.86511,0.98243 -3.39763,2.562568 -4.25129,4.383378 -0.59516,1.26945 -0.70061,1.85274 -0.70061,3.87561 0,2.02286 0.10545,2.60615 0.70061,3.87561 1.09245,2.33014 3.31123,4.2509 5.78168,5.0051 1.40294,0.4283 4.43236,0.26452 6.0074,-0.32478 z"
           id="path830" />
      </g>
    </g>
  </g>
</svg>
