<?xml version="1.0" encoding="UTF-8" standalone="no"?>
<!-- Created with Inkscape (http://www.inkscape.org/) -->

<svg
   xmlns:dc="http://purl.org/dc/elements/1.1/"
   xmlns:cc="http://creativecommons.org/ns#"
   xmlns:rdf="http://www.w3.org/1999/02/22-rdf-syntax-ns#"
   xmlns:svg="http://www.w3.org/2000/svg"
   xmlns="http://www.w3.org/2000/svg"
   xmlns:sodipodi="http://sodipodi.sourceforge.net/DTD/sodipodi-0.dtd"
   xmlns:inkscape="http://www.inkscape.org/namespaces/inkscape"
   width="100mm"
   height="100mm"
   viewBox="0 0 100 100"
   version="1.1"
   id="svg8"
   inkscape:version="0.92.3 (2405546, 2018-03-11)"
   sodipodi:docname="ForegroundPawprint.svg">
  <defs
     id="defs2" />
  <sodipodi:namedview
     id="base"
     pagecolor="#ebebeb"
     bordercolor="#666666"
     borderopacity="1.0"
     inkscape:pageopacity="0"
     inkscape:pageshadow="2"
     inkscape:zoom="1.4"
     inkscape:cx="29.940273"
     inkscape:cy="138.4365"
     inkscape:document-units="mm"
     inkscape:current-layer="layer1"
     showgrid="false"
     inkscape:window-width="1920"
     inkscape:window-height="1017"
     inkscape:window-x="-8"
     inkscape:window-y="-8"
     inkscape:window-maximized="1"
     fit-margin-top="0"
     fit-margin-left="0"
     fit-margin-right="0"
     fit-margin-bottom="0"
     inkscape:snap-global="false" />
  <metadata
     id="metadata5">
    <rdf:RDF>
      <cc:Work
         rdf:about="">
        <dc:format>image/svg+xml</dc:format>
        <dc:type
           rdf:resource="http://purl.org/dc/dcmitype/StillImage" />
        <dc:title></dc:title>
      </cc:Work>
    </rdf:RDF>
  </metadata>
  <g
     inkscape:label="svg"
     inkscape:groupmode="layer"
     id="layer1"
     style="display:inline"
     transform="translate(274.70366,-133.30423)">
    <g
       id="g68">
      <g
         id="g72">
        <circle
           style="fill:#ffffff;fill-opacity:1;stroke:none;stroke-width:0.13229166"
           id="path1439"
           cx="-224.70366"
           cy="183.30423"
           r="50" />
      </g>
    </g>
    <g
       id="g71"
       transform="matrix(0.68940945,0,0,0.68940945,115.62934,46.415738)">
      <path
         id="path57"
         transform="matrix(0.26458333,0,0,0.26458333,-274.70366,133.30423)"
         d="m -827.32422,208.65234 c -5.36038,0 -10.72188,0.48906 -14.54101,1.4668 -18.73342,4.79603 -35.36398,17.14079 -54.97852,40.8125 -30.12454,36.35562 -49.89225,73.4078 -56.56055,106.01367 -2.60027,12.71471 -2.84407,31.12573 -0.54101,40.89649 5.42921,23.03369 24.71981,38.96463 51.74804,42.73437 8.8215,1.23039 24.42386,0.29585 33.64844,-2.01367 10.01772,-2.50813 24.0061,-9.55896 32.68945,-16.47852 3.79008,-3.02022 7.63144,-5.49218 8.53516,-5.49218 0.90376,0 4.74313,2.47196 8.5332,5.49218 8.65558,6.89745 22.56365,13.91624 32.9668,16.63868 10.69761,2.79949 30.83511,3.01986 41,0.44922 23.56074,-5.95835 39.24499,-20.65123 44.11914,-41.33008 2.30306,-9.77076 2.0593,-28.18178 -0.54101,-40.89649 -6.6683,-32.60587 -26.43605,-69.65805 -56.56055,-106.01367 -19.61454,-23.67171 -36.2451,-36.01647 -54.97852,-40.8125 -3.81913,-0.97774 -9.17868,-1.4668 -14.53906,-1.4668 z m -103.8789,121.96289 c 1.97944,0.11858 3.79108,1.35157 4.79101,3.76563 0.92719,2.23846 0.68158,4.21355 -1.37891,11.09766 -10.97178,36.65639 -4.97084,61.40694 17.01758,70.19921 5.18567,2.07368 7.61801,2.38137 18.94922,2.39649 12.72975,0.0172 13.27399,-0.0744 26.18164,-4.39258 12.72987,-4.25862 13.26969,-4.35172 15.75,-2.72656 3.52747,2.31137 3.57971,7.69571 0.10156,10.43164 -3.54833,2.7911 -22.69079,8.88117 -31.85546,10.13476 -14.29497,1.95542 -26.18919,0.25573 -38.22657,-5.46289 -12.31154,-5.84882 -21.48436,-18.00053 -25.07226,-33.21679 -3.35962,-14.24822 0.15508,-44.57627 6.63867,-57.28516 1.7357,-3.40225 4.55852,-5.09386 7.10352,-4.94141 z"
         style="fill:#49bcda;stroke-width:0.99999994"
         inkscape:connector-curvature="0" />
      <path
         id="path53"
         transform="matrix(0.26458333,0,0,0.26458333,-274.70366,133.30423)"
         d="m -991.82422,155.14453 c -10.81168,0 -12.63398,0.2695 -18.39458,2.71289 -18.2582,7.74441 -29.7379,23.65791 -30.8593,42.7793 -0.5963,10.16663 0.6921,16.945 4.8906,25.74219 5.701,11.94538 19.2291,22.84258 32.4805,26.16211 2.1348,0.53487 8.38277,0.82973 13.88278,0.65625 8.02968,-0.2535 11.2587,-0.83484 16.39258,-2.94922 12.63507,-5.20373 22.40555,-14.94523 27.8418,-27.76172 2.44323,-5.76053 2.71289,-7.58285 2.71289,-18.39453 0,-10.81168 -0.2695,-12.63205 -2.71289,-18.39258 -5.4141,-12.7643 -15.0775,-22.4277 -27.8418,-27.8418 -5.76053,-2.44324 -7.5809,-2.71289 -18.39258,-2.71289 z m -32.49998,27.44727 c 4.3839,0 6.3805,3.10039 5.6211,8.72656 -2.2574,16.72365 -1.6476,21.35649 3.8847,29.49805 2.9453,4.33432 3.2123,8.81497 0.6641,11.12109 -4.7588,4.3067 -10.2987,0.70987 -15.3418,-9.95898 -3.7385,-7.90878 -4.9478,-15.47945 -3.7851,-23.68946 1.5711,-11.09427 4.1976,-15.69726 8.957,-15.69726 z"
         style="fill:#49bcda;stroke-width:0.99999994"
         inkscape:connector-curvature="0" />
      <path
         id="path49"
         d="m -453.21978,200.12245 c -3.50609,-0.87829 -7.08562,-3.76137 -8.59401,-6.92192 -1.11086,-2.32759 -1.45157,-4.12126 -1.29381,-6.81118 0.29672,-5.0592 3.334,-9.26973 8.16483,-11.31877 1.52413,-0.64648 2.00606,-0.71754 4.86665,-0.71754 2.86059,0 3.34252,0.0711 4.86666,0.71754 3.37722,1.43248 5.93395,3.98921 7.36643,7.36643 0.64648,1.52414 0.71754,2.00607 0.71754,4.86666 0,2.86059 -0.0711,3.34251 -0.71754,4.86665 -1.43834,3.39103 -4.0234,5.96879 -7.36643,7.34561 -1.35835,0.55943 -2.21297,0.71317 -4.33749,0.78024 -1.45521,0.0459 -3.10798,-0.0322 -3.67283,-0.17372 z"
         style="fill:#49bcda;stroke-width:0.26458332"
         inkscape:connector-curvature="0" />
      <path
         id="path47"
         transform="matrix(0.26458333,0,0,0.26458333,-274.70366,133.30423)"
         d="m -892.82422,52.144531 c -10.81172,0 -12.634,0.26954 -18.39453,2.712891 -18.25826,7.744441 -29.73791,23.657873 -30.85937,42.779297 -0.5963,10.166631 0.69213,16.945001 4.89062,25.742191 5.701,11.94538 19.22914,22.84262 32.48047,26.16211 2.13486,0.53491 8.3828,0.8301 13.88281,0.65625 8.02968,-0.25354 11.2587,-0.83484 16.39258,-2.94922 12.63507,-5.20377 22.40555,-14.94523 27.8418,-27.76172 2.44323,-5.76053 2.71289,-7.58285 2.71289,-18.39453 0,-10.811682 -0.2695,-12.632052 -2.71289,-18.392581 -5.4141,-12.764334 -15.0775,-22.427662 -27.8418,-27.841797 -5.76053,-2.4432 -7.5809,-2.712891 -18.39258,-2.712891 z m -35.98047,34.527344 c 1.6041,0.01296 3.21456,0.654007 4.48047,1.919922 1.69126,1.691112 2.00259,3.351386 2.02149,10.75 0.0275,10.946153 1.89104,15.419783 9.45898,22.691403 6.18155,5.93946 6.79731,8.37009 3.06445,12.10352 -3.13443,3.13447 -4.15875,3.08665 -9.75586,-0.46289 -5.43307,-3.44557 -12.11314,-11.91028 -14.30859,-18.13281 -3.38665,-9.59879 -3.08688,-23.344764 0.58984,-27.021489 1.24564,-1.245581 2.84513,-1.86062 4.44922,-1.847656 z"
         style="fill:#49bcda;stroke-width:0.99999994"
         inkscape:connector-curvature="0" />
      <path
         id="path37"
         d="m -479.41353,172.87036 c -3.50609,-0.87828 -7.08562,-3.76136 -8.59401,-6.92191 -1.11086,-2.32759 -1.45157,-4.12126 -1.29381,-6.81118 0.29672,-5.05921 3.334,-9.26973 8.16483,-11.31878 1.52413,-0.64647 2.00606,-0.71753 4.86665,-0.71753 2.86059,0 3.34252,0.0711 4.86666,0.71753 3.37722,1.43249 5.93395,3.98921 7.36643,7.36644 0.64648,1.52414 0.71754,2.00606 0.71754,4.86665 0,2.86059 -0.0711,3.34252 -0.71754,4.86666 -1.43834,3.39103 -4.0234,5.96878 -7.36643,7.34561 -1.35835,0.55943 -2.21297,0.71316 -4.33749,0.78024 -1.45521,0.046 -3.10798,-0.0322 -3.67283,-0.17373 z"
         style="fill:#49bcda;stroke-width:0.26458332"
         inkscape:connector-curvature="0" />
    </g>
  </g>
</svg>
