<?xml version="1.0" encoding="UTF-8" standalone="no"?>
<!-- Created with Inkscape (http://www.inkscape.org/) -->

<svg
   xmlns:dc="http://purl.org/dc/elements/1.1/"
   xmlns:cc="http://creativecommons.org/ns#"
   xmlns:rdf="http://www.w3.org/1999/02/22-rdf-syntax-ns#"
   xmlns:svg="http://www.w3.org/2000/svg"
   xmlns="http://www.w3.org/2000/svg"
   xmlns:sodipodi="http://sodipodi.sourceforge.net/DTD/sodipodi-0.dtd"
   xmlns:inkscape="http://www.inkscape.org/namespaces/inkscape"
   width="100mm"
   height="100mm"
   viewBox="0 0 100 100"
   version="1.1"
   id="svg8"
   inkscape:version="0.92.3 (2405546, 2018-03-11)"
   sodipodi:docname="ForegroundMedusa.svg">
  <defs
     id="defs2" />
  <sodipodi:namedview
     id="base"
     pagecolor="#ebebeb"
     bordercolor="#666666"
     borderopacity="1.0"
     inkscape:pageopacity="0"
     inkscape:pageshadow="2"
     inkscape:zoom="0.9899495"
     inkscape:cx="116.51469"
     inkscape:cy="88.061607"
     inkscape:document-units="mm"
     inkscape:current-layer="layer1"
     showgrid="false"
     inkscape:window-width="1920"
     inkscape:window-height="1017"
     inkscape:window-x="-8"
     inkscape:window-y="-8"
     inkscape:window-maximized="1"
     fit-margin-top="0"
     fit-margin-left="0"
     fit-margin-right="0"
     fit-margin-bottom="0"
     inkscape:snap-global="false" />
  <metadata
     id="metadata5">
    <rdf:RDF>
      <cc:Work
         rdf:about="">
        <dc:format>image/svg+xml</dc:format>
        <dc:type
           rdf:resource="http://purl.org/dc/dcmitype/StillImage" />
        <dc:title></dc:title>
      </cc:Work>
    </rdf:RDF>
  </metadata>
  <g
     inkscape:label="svg"
     inkscape:groupmode="layer"
     id="layer1"
     style="display:inline"
     transform="translate(274.70366,-133.30423)">
    <g
       id="g68">
      <g
         id="g72">
        <circle
           style="fill:#ffffff;fill-opacity:1;stroke:none;stroke-width:0.13229166"
           id="path1439"
           cx="-224.70366"
           cy="183.30423"
           r="50" />
      </g>
    </g>
    <path
       style="fill:#48bcda;stroke-width:0.13252114"
       d="m -224.43875,145.53248 c -13.33412,-0.0118 -19.9292,2.18076 -26.23919,8.7231 -3.0654,3.17828 -5.46221,6.93679 -7.23197,11.34039 -2.09612,5.21565 -3.02566,11.44758 -2.04684,13.72293 0.56281,1.30827 1.68319,2.02516 3.85787,2.46872 1.38502,0.28251 3.74092,0.48093 5.71938,0.48142 0.9293,2.6e-4 1.68938,0.0477 1.68938,0.10561 0,0.0578 -0.34794,0.79156 -0.77338,1.63036 -2.20339,4.34416 -1.89829,8.0566 0.89166,10.84991 1.21122,1.21268 1.99488,1.64559 4.46793,2.4677 1.01033,0.33585 1.99513,0.72323 2.18842,0.86087 0.92439,0.65823 1.04358,2.68145 0.22699,3.85476 -0.32347,0.46477 -1.07071,0.70219 -3.46626,1.10158 -3.2138,0.5358 -4.63249,1.16847 -6.09908,2.71927 -1.93934,2.0507 -2.81441,5.27612 -2.1369,7.87724 0.63317,2.43091 2.83777,4.8395 5.93265,6.48137 1.08174,0.57388 1.67819,0.6987 2.36105,0.49411 1.10784,-0.33191 1.81248,-1.3479 1.67023,-2.40842 -0.12328,-0.91912 -0.53722,-1.38016 -2.04009,-2.27356 -1.57289,-0.93502 -2.77694,-2.02736 -3.20148,-2.90434 -0.84399,-1.74345 0.22959,-4.33103 2.0445,-4.92813 0.35786,-0.11773 1.54496,-0.36582 2.63826,-0.55131 3.07045,-0.52094 4.11673,-0.93721 5.37747,-2.13974 1.79664,-1.71372 2.53975,-4.68475 1.84804,-7.38935 -0.33624,-1.31471 -0.82835,-2.21723 -1.6648,-3.05369 -0.88138,-0.88136 -1.6675,-1.2882 -3.99996,-2.0696 -1.067,-0.35745 -2.16302,-0.8045 -2.4356,-0.9934 -0.98511,-0.68267 -1.53769,-1.95338 -1.39147,-3.19991 0.18414,-1.56976 1.24605,-3.64923 2.81633,-5.51542 l 0.8544,-1.01539 h 6.55333 c 7.22857,0 6.88594,-0.0439 6.2813,0.80522 -0.50903,0.71486 -1.4328,2.83527 -1.72071,3.95001 -0.2375,0.91946 -0.27737,1.37635 -0.23139,2.65042 0.084,2.32661 0.71377,3.78022 2.34034,5.40179 1.01174,1.00864 2.27338,1.68068 4.42444,2.35665 2.44916,0.76965 2.88117,1.18923 2.87716,2.79253 -0.004,1.37201 -0.45663,2.22984 -1.3586,2.57277 -0.20219,0.0768 -1.25481,0.29012 -2.33931,0.47366 -3.45064,0.58398 -4.78291,1.14067 -6.25903,2.61626 -0.67605,0.67581 -1.0394,1.18995 -1.49863,2.12034 -2.29223,4.64395 -0.56948,9.00579 4.76662,12.06796 1.65469,0.94955 2.57989,0.98597 3.51854,0.13795 0.58078,-0.52468 0.85681,-1.27176 0.71825,-1.94407 -0.16957,-0.82288 -0.64727,-1.33809 -1.9345,-2.08644 -0.74881,-0.43532 -1.61103,-1.08509 -2.18711,-1.64822 -0.80835,-0.79019 -0.98464,-1.04569 -1.17561,-1.70259 -0.56176,-1.9324 0.63303,-4.10316 2.54974,-4.6328 0.42005,-0.11607 1.50898,-0.3349 2.42007,-0.48634 2.04221,-0.33948 2.87266,-0.57146 3.89565,-1.08787 3.83916,-1.938 4.69248,-8.22986 1.54393,-11.38388 -0.84863,-0.85009 -2.07498,-1.49193 -3.90912,-2.04579 -2.30928,-0.69735 -3.12314,-1.2492 -3.65055,-2.47519 -0.76096,-1.76889 0.14667,-4.36627 2.56346,-7.33603 l 0.9085,-1.11634 h 6.87013 c 3.77849,0 6.89897,0.047 6.93458,0.10456 0.0356,0.0576 -0.1201,0.40052 -0.34605,0.76201 -0.22595,0.36148 -0.63482,1.1345 -0.90876,1.7176 -1.87363,3.9881 -1.45228,7.61938 1.19139,10.26624 1.21122,1.21268 1.99489,1.64559 4.46794,2.46769 1.01032,0.33585 1.99512,0.72323 2.1884,0.86087 0.9244,0.65823 1.0436,2.68145 0.227,3.85476 -0.32346,0.46476 -1.07072,0.7022 -3.46626,1.10157 -3.2138,0.53581 -4.63249,1.16849 -6.09907,2.71928 -1.50193,1.58817 -2.33931,3.69976 -2.33931,5.89901 0,2.1292 0.69029,3.8514 2.19591,5.47762 1.26478,1.36607 3.24197,2.77665 4.69519,3.34978 0.765,0.30171 1.26032,0.30128 1.92698,-0.002 0.994,-0.4515 1.53359,-1.43126 1.33505,-2.42395 -0.16624,-0.83119 -0.5892,-1.27577 -2.0269,-2.13043 -1.57288,-0.93501 -2.77693,-2.02709 -3.20147,-2.90407 -0.84399,-1.74345 0.2296,-4.33104 2.04451,-4.92813 0.35785,-0.11774 1.54522,-0.36582 2.63851,-0.55131 3.07044,-0.52095 4.11647,-0.93722 5.3772,-2.13975 1.79664,-1.71372 2.53977,-4.68474 1.84805,-7.38936 -0.33625,-1.31469 -0.82835,-2.21748 -1.6648,-3.05393 -0.88137,-0.88137 -1.6675,-1.28796 -3.99996,-2.06935 -2.11614,-0.70892 -2.7543,-1.06933 -3.26876,-1.84675 -1.22841,-1.85624 -0.44946,-4.52962 2.31471,-7.94454 l 0.96984,-1.19813 3.12123,-2.5e-4 c 7.29642,-9.1e-4 10.05836,-0.74132 11.00858,-2.95015 0.97882,-2.27535 0.0493,-8.50728 -2.04684,-13.72293 -1.76977,-4.40359 -4.16657,-8.16211 -7.23197,-11.34039 -6.23292,-6.46242 -12.86269,-8.71178 -25.70936,-8.7231 z m -17.4431,4.14827 c 0.81824,0.004 1.37813,0.22729 1.97669,0.76639 0.68178,0.61408 1.04076,1.41979 1.04076,2.33647 0,1.352 -0.69369,2.30915 -2.40428,3.31743 -2.40945,1.42021 -3.66561,2.762 -4.8761,5.20869 -0.95501,1.93031 -1.5557,2.62458 -2.51971,2.9134 -1.1393,0.34135 -2.57564,-0.002 -3.29724,-0.78736 -0.73919,-0.80486 -1.01871,-2.1714 -0.68798,-3.36272 0.22726,-0.81861 1.21307,-2.80329 1.97514,-3.97641 0.93997,-1.44697 3.30112,-3.76903 4.89991,-4.81865 1.80787,-1.18688 2.55726,-1.52395 3.52527,-1.58559 0.1283,-0.008 0.25065,-0.0122 0.36754,-0.0117 z m -10.11975,17.35251 c 0.9985,9e-4 1.99707,0.45553 2.60823,1.36299 0.51943,0.77125 0.65995,1.60012 0.46486,2.74154 -0.33751,1.97474 -1.04824,3.19086 -2.11153,3.61301 -2.14462,0.85145 -4.22808,-0.36547 -4.4907,-2.62299 -0.10982,-0.94398 0.38121,-2.93469 0.92194,-3.73751 0.61027,-0.90605 1.60871,-1.3582 2.6072,-1.35704 z"
       id="path36"
       inkscape:connector-curvature="0" />
  </g>
</svg>
