<?xml version="1.0" encoding="UTF-8" standalone="no"?>
<!-- Created with Inkscape (http://www.inkscape.org/) -->

<svg
   xmlns:dc="http://purl.org/dc/elements/1.1/"
   xmlns:cc="http://creativecommons.org/ns#"
   xmlns:rdf="http://www.w3.org/1999/02/22-rdf-syntax-ns#"
   xmlns:svg="http://www.w3.org/2000/svg"
   xmlns="http://www.w3.org/2000/svg"
   xmlns:sodipodi="http://sodipodi.sourceforge.net/DTD/sodipodi-0.dtd"
   xmlns:inkscape="http://www.inkscape.org/namespaces/inkscape"
   width="100mm"
   height="100mm"
   viewBox="0 0 100 100"
   version="1.1"
   id="svg8"
   inkscape:version="0.92.3 (2405546, 2018-03-11)"
   sodipodi:docname="ForegroundFeather.svg">
  <defs
     id="defs2" />
  <sodipodi:namedview
     id="base"
     pagecolor="#ebebeb"
     bordercolor="#666666"
     borderopacity="1.0"
     inkscape:pageopacity="0"
     inkscape:pageshadow="2"
     inkscape:zoom="0.175"
     inkscape:cx="-842.70727"
     inkscape:cy="94.626809"
     inkscape:document-units="mm"
     inkscape:current-layer="layer1"
     showgrid="false"
     inkscape:window-width="1920"
     inkscape:window-height="1017"
     inkscape:window-x="-8"
     inkscape:window-y="-8"
     inkscape:window-maximized="1"
     fit-margin-top="0"
     fit-margin-left="0"
     fit-margin-right="0"
     fit-margin-bottom="0"
     inkscape:snap-global="false" />
  <metadata
     id="metadata5">
    <rdf:RDF>
      <cc:Work
         rdf:about="">
        <dc:format>image/svg+xml</dc:format>
        <dc:type
           rdf:resource="http://purl.org/dc/dcmitype/StillImage" />
        <dc:title />
      </cc:Work>
    </rdf:RDF>
  </metadata>
  <g
     inkscape:label="svg"
     inkscape:groupmode="layer"
     id="layer1"
     style="display:inline"
     transform="translate(274.70366,-133.30423)">
    <g
       id="g67">
      <g
         id="g68">
        <g
           id="g72">
          <circle
             r="50"
             cy="183.30423"
             cx="-224.70366"
             id="path1439"
             style="fill:#ffffff;fill-opacity:1;stroke:none;stroke-width:0.13229166" />
        </g>
      </g>
      <path
         inkscape:connector-curvature="0"
         id="path50"
         d="m -225.47738,225.02227 c -0.15486,-0.0662 -0.34335,-0.23585 -0.41887,-0.37696 -0.0924,-0.17263 -0.13731,-2.57839 -0.13731,-7.3536 0,-5.87901 -0.0299,-7.09704 -0.17434,-7.09704 -0.0974,0 -0.50974,0.72124 -0.93439,1.63442 -0.93914,2.0195 -1.09747,2.23207 -1.6624,2.23207 -0.45262,0 -0.76774,-0.22129 -0.89756,-0.63033 -0.0911,-0.28705 0.2234,-1.12137 1.02257,-2.71261 0.66926,-1.33258 0.71309,-1.6302 0.26982,-1.83217 -0.29112,-0.13264 -0.42352,-0.0451 -1.80485,1.19494 -0.81988,0.73594 -1.62732,1.3899 -1.7943,1.45324 -0.70922,0.26905 -1.3722,-0.2877 -1.19298,-1.00179 0.048,-0.19095 0.70776,-0.89729 1.59519,-1.70762 0.83239,-0.76007 1.51343,-1.46694 1.51343,-1.57082 0,-0.10391 -0.0967,-0.24988 -0.21495,-0.32445 -0.16761,-0.10574 -0.65408,0.0543 -2.20951,0.72703 -1.09701,0.47444 -2.07992,0.86262 -2.18423,0.86262 -0.37758,0 -0.86884,-0.51887 -0.86884,-0.91769 0,-0.55967 0.40756,-0.85733 2.25913,-1.64998 0.89789,-0.38436 1.65957,-0.76938 1.69266,-0.8556 0.0331,-0.0862 -0.25559,-0.78667 -0.64149,-1.55659 -2.33806,-4.66474 -3.99883,-11.41515 -4.79946,-19.5079 -0.29502,-2.98218 -0.41897,-11.05263 -0.17117,-11.14623 0.098,-0.037 1.48253,-0.17949 3.07674,-0.31661 2.65989,-0.22878 2.91724,-0.27237 3.1254,-0.52945 0.28737,-0.35487 0.28777,-0.66602 0.001,-1.00723 -0.17619,-0.20988 -0.76136,-0.38345 -2.67432,-0.79319 -3.74236,-0.80161 -3.4154,-0.66509 -3.4154,-1.42601 0,-1.65857 0.67606,-6.59161 1.35862,-9.91346 1.78884,-8.70586 5.08194,-15.12708 8.67934,-16.92385 0.52345,-0.26144 1.12719,-0.47535 1.34167,-0.47535 h 0.38995 l -0.0903,33.92844 c -0.0825,30.96717 -0.0724,33.95374 0.11557,34.21842 0.27984,0.39404 0.89267,0.39075 1.15275,-0.006 0.17046,-0.26016 0.20252,-3.24993 0.26361,-24.58442 0.10057,-35.13974 0.17839,-43.42997 0.4083,-43.51819 0.10133,-0.0389 0.63073,0.14994 1.1764,0.41963 2.43315,1.20252 4.77304,4.52559 6.57482,9.33742 0.97679,2.6086 2.26292,7.34128 2.05228,7.55192 -0.0426,0.0426 -1.02391,0.38957 -2.18065,0.77099 -2.10558,0.69431 -2.55427,0.9529 -2.55427,1.47219 0,0.12606 0.11071,0.36613 0.24601,0.53347 0.23881,0.29538 0.31617,0.30616 2.64704,0.36871 1.75373,0.047 2.42844,0.1089 2.5027,0.22932 0.11807,0.19151 0.43401,2.53393 0.7513,5.57041 0.31574,3.02159 0.31962,13.05873 0.006,16.03518 -0.11881,1.12826 -0.26145,2.09348 -0.31698,2.14493 -0.0555,0.0514 -1.10297,0.2662 -2.32766,0.47722 -2.3856,0.41104 -2.73529,0.56327 -2.73529,1.19065 0,0.64615 0.31705,0.77199 2.46732,0.97936 1.08852,0.10499 2.0544,0.21679 2.14639,0.24848 0.19539,0.0673 0.19887,0.0424 -0.49444,3.54083 -0.87345,4.40744 -2.09694,8.20467 -3.62854,11.26154 -0.42188,0.84199 -0.71937,1.57762 -0.66111,1.63473 0.0582,0.0571 0.8019,0.4041 1.65253,0.77108 0.85063,0.36697 1.65534,0.77115 1.78825,0.89817 0.50203,0.4798 0.13778,1.41525 -0.55161,1.41662 -0.18396,4e-4 -1.15948,-0.35791 -2.16783,-0.79618 -1.79199,-0.77885 -1.83926,-0.79151 -2.09435,-0.56066 -0.14353,0.1299 -0.26097,0.30982 -0.26097,0.39982 0,0.09 0.63957,0.73349 1.42127,1.42996 1.40434,1.25124 1.60538,1.53163 1.52149,2.12197 -0.0569,0.40024 -0.61746,0.67119 -1.04911,0.50707 -0.17663,-0.0672 -0.93624,-0.67672 -1.68802,-1.35461 -0.75178,-0.67787 -1.47358,-1.2325 -1.60401,-1.2325 -0.25468,0 -0.66375,0.3792 -0.66375,0.6153 0,0.0791 0.34798,0.85096 0.77329,1.71516 0.82706,1.68049 0.92324,2.1594 0.51553,2.5671 -0.64863,0.64864 -1.14537,0.21076 -2.14319,-1.88918 -0.78755,-1.6574 -1.00239,-1.93996 -1.1609,-1.5269 -0.0406,0.10597 0.0196,2.81734 0.13384,6.02529 0.27076,7.60116 0.26928,7.98131 -0.0327,8.35417 -0.19052,0.23527 -0.39182,0.30283 -0.99885,0.33527 -0.41814,0.0223 -0.88695,-0.0136 -1.0418,-0.0798 z"
         style="fill:#48bcda;stroke-width:0.12888294" />
    </g>
  </g>
</svg>
