<?xml version="1.0" encoding="UTF-8" standalone="no"?>
<!-- Created with Inkscape (http://www.inkscape.org/) -->

<svg
   xmlns:dc="http://purl.org/dc/elements/1.1/"
   xmlns:cc="http://creativecommons.org/ns#"
   xmlns:rdf="http://www.w3.org/1999/02/22-rdf-syntax-ns#"
   xmlns:svg="http://www.w3.org/2000/svg"
   xmlns="http://www.w3.org/2000/svg"
   xmlns:sodipodi="http://sodipodi.sourceforge.net/DTD/sodipodi-0.dtd"
   xmlns:inkscape="http://www.inkscape.org/namespaces/inkscape"
   width="100mm"
   height="100mm"
   viewBox="0 0 100 100"
   version="1.1"
   id="svg8"
   inkscape:version="0.92.3 (2405546, 2018-03-11)"
   sodipodi:docname="ForegroundSun.svg">
  <defs
     id="defs2" />
  <sodipodi:namedview
     id="base"
     pagecolor="#ebebeb"
     bordercolor="#666666"
     borderopacity="1.0"
     inkscape:pageopacity="0"
     inkscape:pageshadow="2"
     inkscape:zoom="0.49497475"
     inkscape:cx="110.13317"
     inkscape:cy="215.89852"
     inkscape:document-units="mm"
     inkscape:current-layer="layer1"
     showgrid="false"
     inkscape:window-width="1920"
     inkscape:window-height="1017"
     inkscape:window-x="-8"
     inkscape:window-y="-8"
     inkscape:window-maximized="1"
     fit-margin-top="0"
     fit-margin-left="0"
     fit-margin-right="0"
     fit-margin-bottom="0"
     inkscape:snap-global="false" />
  <metadata
     id="metadata5">
    <rdf:RDF>
      <cc:Work
         rdf:about="">
        <dc:format>image/svg+xml</dc:format>
        <dc:type
           rdf:resource="http://purl.org/dc/dcmitype/StillImage" />
        <dc:title></dc:title>
      </cc:Work>
    </rdf:RDF>
  </metadata>
  <g
     inkscape:label="svg"
     inkscape:groupmode="layer"
     id="layer1"
     style="display:inline"
     transform="translate(274.70366,-133.30423)">
    <g
       id="g68">
      <g
         id="g72">
        <circle
           style="fill:#ffffff;fill-opacity:1;stroke:none;stroke-width:0.13229166"
           id="path1439"
           cx="-224.70366"
           cy="183.30423"
           r="50" />
      </g>
    </g>
    <g
       id="g74"
       transform="matrix(0.45289606,0,0,0.45289606,-17.62167,94.968981)">
      <path
         id="path59"
         d="m -459.75957,290.61438 c -2.89924,-0.76692 -5.02598,-2.98252 -5.66164,-5.89817 -0.13756,-0.63096 -0.28538,-7.15986 -0.3285,-14.50866 -0.0714,-12.16587 -0.0369,-13.48242 0.38509,-14.71329 0.60249,-1.75729 2.01679,-3.38534 3.7165,-4.27821 1.24791,-0.65553 1.60891,-0.71409 4.4021,-0.71409 2.79318,0 3.15418,0.0586 4.40209,0.71409 1.69972,0.89287 3.11402,2.52092 3.71651,4.27821 0.422,1.23087 0.45646,2.54742 0.38508,14.71329 -0.0431,7.3488 -0.19094,13.8777 -0.3285,14.50866 -0.52687,2.41666 -1.93473,4.20702 -4.20173,5.34329 -1.28619,0.64467 -4.95969,0.95889 -6.487,0.55488 z"
         style="fill:#48bcda;stroke-width:0.26458332"
         inkscape:connector-curvature="0" />
      <path
         id="path57"
         d="m -520.00722,264.03028 c -3.70939,-1.04179 -6.06992,-4.86182 -5.29303,-8.56566 0.16798,-0.80082 0.5946,-1.94869 0.94806,-2.55082 1.15446,-1.9667 16.27911,-19.21324 17.56394,-20.02806 3.88459,-2.46353 9.01537,-0.96063 10.89228,3.19056 0.37761,0.83516 0.54006,1.75642 0.54414,3.08574 0.005,1.63775 -0.11097,2.11373 -0.85409,3.50496 -0.81453,1.52492 -14.00936,17.10651 -16.41768,19.38741 -2.01546,1.90883 -4.88663,2.67716 -7.38362,1.97587 z"
         style="fill:#48bcda;stroke-width:0.26458332"
         inkscape:connector-curvature="0" />
      <path
         id="path55"
         d="m -398.11165,264.15488 c -1.37631,-0.35776 -2.69644,-1.09612 -3.75879,-2.10231 -2.40714,-2.2799 -15.60157,-17.86143 -16.41569,-19.38557 -0.74312,-1.39123 -0.8591,-1.86721 -0.85408,-3.50496 0.004,-1.32932 0.16653,-2.25058 0.54413,-3.08574 1.87715,-4.15172 7.00768,-5.6541 10.89331,-3.18991 1.63781,1.03867 16.89074,18.66697 17.86955,20.65241 1.82769,3.70734 0.17523,8.44865 -3.51319,10.08022 -1.2848,0.56832 -3.62709,0.83172 -4.76524,0.53586 z"
         style="fill:#48bcda;stroke-width:0.26458332"
         inkscape:connector-curvature="0" />
      <path
         id="path53"
         d="m -463.59602,246.36261 c -15.37775,-1.76973 -29.06536,-10.07766 -37.61672,-22.83212 -11.91944,-17.77798 -11.91845,-40.75774 0.003,-58.51672 8.15756,-12.15252 20.50232,-20.06926 35.10065,-22.5102 2.22366,-0.37181 4.31512,-0.48664 8.86354,-0.48664 4.54841,0 6.63987,0.11483 8.86354,0.48664 14.59833,2.44094 26.94308,10.35768 35.10064,22.5102 11.92098,17.75898 11.92197,40.73874 0.003,58.51672 -8.65319,12.90634 -22.28016,21.10064 -38.0136,22.85872 -2.80064,0.31295 -9.47816,0.29851 -12.30312,-0.0266 z"
         style="fill:#48bcda;stroke-width:0.26458332"
         inkscape:connector-curvature="0" />
      <path
         id="path51"
         d="m -547.12698,208.52417 c -4.81167,-0.58874 -7.81613,-5.30225 -6.27074,-9.83774 0.57542,-1.68875 2.41694,-3.66808 4.13506,-4.44451 l 1.39685,-0.63124 h 14.55208 14.55208 l 1.45521,0.82081 c 5.44589,3.07175 5.06557,10.7664 -0.66146,13.38241 -1.20759,0.55161 -1.76114,0.61032 -6.35,0.67356 -12.78145,0.17612 -21.5543,0.19024 -22.80908,0.0367 z"
         style="fill:#48bcda;stroke-width:0.26458332"
         inkscape:connector-curvature="0" />
      <path
         id="path49"
         d="m -382.76581,208.57967 c -12.2592,-0.1502 -12.45417,-0.16099 -13.75834,-0.76122 -5.72863,-2.63658 -6.10802,-10.31486 -0.66146,-13.38699 l 1.45521,-0.82081 h 14.55209 14.55208 l 1.39685,0.63124 c 2.65187,1.1984 4.55627,4.08633 4.55627,6.90938 0,2.97932 -2.18841,6.0839 -4.90326,6.95598 -1.8775,0.60309 -3.31009,0.64247 -17.18944,0.47242 z"
         style="fill:#48bcda;stroke-width:0.26458332"
         inkscape:connector-curvature="0" />
      <path
         id="path47"
         d="m -508.12077,159.60183 c -1.53768,-0.38412 -1.94475,-0.63248 -13.94817,-8.51001 -12.40194,-8.13906 -13.58377,-9.09967 -14.40417,-11.70791 -1.0856,-3.45142 0.44159,-7.13408 3.65686,-8.81811 1.13788,-0.59596 1.69325,-0.71012 3.47127,-0.71351 1.76782,-0.003 2.33469,0.10921 3.43958,0.68312 2.5377,1.31815 23.29308,15.12813 24.52552,16.31851 2.37586,2.29479 3.07563,5.5556 1.81385,8.45225 -0.67688,1.5539 -2.39194,3.28249 -3.86919,3.89973 -1.27079,0.53097 -3.41849,0.71245 -4.68555,0.39593 z"
         style="fill:#48bcda;stroke-width:0.26458332"
         inkscape:connector-curvature="0" />
      <path
         id="path45"
         d="m -409.75331,159.63243 c -1.55856,-0.42883 -2.26096,-0.81461 -3.40759,-1.87153 -3.18841,-2.93897 -3.16668,-7.80127 0.0487,-10.90696 1.23244,-1.19038 21.98782,-15.00036 24.52552,-16.31851 1.10489,-0.57391 1.67176,-0.68649 3.43959,-0.68312 1.77801,0.003 2.33339,0.11755 3.47126,0.71351 3.21527,1.68403 4.74247,5.36669 3.65686,8.81811 -0.82152,2.61183 -1.99467,3.56386 -14.52685,11.78875 -6.2521,4.10327 -11.85745,7.67724 -12.45633,7.94215 -1.28692,0.56927 -3.63406,0.82497 -4.75119,0.5176 z"
         style="fill:#48bcda;stroke-width:0.26458332"
         inkscape:connector-curvature="0" />
      <path
         id="path37"
         d="m -460.69371,137.7741 c -1.59109,-0.49048 -3.28992,-1.98515 -4.15788,-3.65818 -0.68158,-1.3138 -0.71149,-1.55906 -0.89191,-7.31252 -0.34443,-10.98398 -0.27749,-20.09389 0.15999,-21.77351 0.69069,-2.65174 2.44498,-4.60963 4.87124,-5.436603 1.16297,-0.3964 5.76952,-0.3964 6.93249,0 2.42627,0.826973 4.18055,2.784863 4.87124,5.436603 0.43748,1.67962 0.50442,10.78953 0.15999,21.77351 -0.18041,5.75346 -0.21033,5.99872 -0.89191,7.31252 -0.89338,1.72205 -2.57752,3.17146 -4.26859,3.67365 -1.63347,0.48509 -5.18715,0.47699 -6.78466,-0.0155 z"
         style="fill:#48bcda;stroke-width:0.26458332"
         inkscape:connector-curvature="0" />
    </g>
  </g>
</svg>
