<?xml version="1.0" encoding="UTF-8" standalone="no"?>
<!-- Created with Inkscape (http://www.inkscape.org/) -->

<svg
   xmlns:dc="http://purl.org/dc/elements/1.1/"
   xmlns:cc="http://creativecommons.org/ns#"
   xmlns:rdf="http://www.w3.org/1999/02/22-rdf-syntax-ns#"
   xmlns:svg="http://www.w3.org/2000/svg"
   xmlns="http://www.w3.org/2000/svg"
   xmlns:sodipodi="http://sodipodi.sourceforge.net/DTD/sodipodi-0.dtd"
   xmlns:inkscape="http://www.inkscape.org/namespaces/inkscape"
   width="100mm"
   height="100mm"
   viewBox="0 0 100 100"
   version="1.1"
   id="svg8"
   inkscape:version="0.92.3 (2405546, 2018-03-11)"
   sodipodi:docname="ForegroundUmbrella.svg">
  <defs
     id="defs2" />
  <sodipodi:namedview
     id="base"
     pagecolor="#ebebeb"
     bordercolor="#666666"
     borderopacity="1.0"
     inkscape:pageopacity="0"
     inkscape:pageshadow="2"
     inkscape:zoom="0.35"
     inkscape:cx="-964.90424"
     inkscape:cy="-99.049823"
     inkscape:document-units="mm"
     inkscape:current-layer="layer1"
     showgrid="false"
     inkscape:window-width="1920"
     inkscape:window-height="1017"
     inkscape:window-x="-8"
     inkscape:window-y="-8"
     inkscape:window-maximized="1"
     fit-margin-top="0"
     fit-margin-left="0"
     fit-margin-right="0"
     fit-margin-bottom="0"
     inkscape:snap-global="false" />
  <metadata
     id="metadata5">
    <rdf:RDF>
      <cc:Work
         rdf:about="">
        <dc:format>image/svg+xml</dc:format>
        <dc:type
           rdf:resource="http://purl.org/dc/dcmitype/StillImage" />
        <dc:title></dc:title>
      </cc:Work>
    </rdf:RDF>
  </metadata>
  <g
     inkscape:label="svg"
     inkscape:groupmode="layer"
     id="layer1"
     style="display:inline"
     transform="translate(274.70366,-133.30423)">
    <g
       id="g68">
      <g
         id="g72">
        <circle
           style="fill:#ffffff;fill-opacity:1;stroke:none;stroke-width:0.13229166"
           id="path1439"
           cx="-224.70366"
           cy="183.30423"
           r="50" />
      </g>
    </g>
    <path
       style="fill:#48bcda;stroke-width:0.13009441"
       d="m -220.79827,222.67986 c -3.07827,-0.66947 -5.31825,-2.67782 -6.2396,-5.59441 -0.76314,-2.41574 -0.80563,-3.46593 -0.94734,-23.41753 l -0.0878,-12.35897 -0.34012,-0.65074 c -0.9463,-1.81052 -3.81759,-3.40811 -6.37474,-3.54693 -1.41114,-0.0766 -2.74269,0.20095 -4.04395,0.84293 -0.75451,0.37224 -1.216,0.74369 -2.31149,1.86052 -1.49532,1.52444 -1.85027,1.71257 -2.6224,1.38995 -0.33747,-0.141 -0.58184,-0.42728 -1.04464,-1.22377 -0.70923,-1.22062 -1.53462,-1.99681 -2.55558,-2.40324 -0.62876,-0.25031 -0.97843,-0.29261 -2.42588,-0.2934 -1.42018,-8.2e-4 -1.81317,0.0446 -2.45212,0.28279 -0.92282,0.3441 -1.69475,0.91814 -2.29932,1.70985 -0.24878,0.32579 -0.69344,0.8431 -0.98812,1.14958 -0.46325,0.48178 -0.60935,0.55722 -1.0792,0.55722 -0.66004,0 -1.10006,-0.38081 -1.29798,-1.12337 -0.25133,-0.94288 -0.44032,-4.61247 -0.3542,-6.87744 0.0932,-2.44989 0.30874,-4.28397 0.73404,-6.24452 1.70736,-7.87062 7.42961,-15.10824 14.762,-18.67126 1.90909,-0.92769 3.6595,-1.54188 6.08802,-2.1362 2.85272,-0.69814 5.06849,-1.03514 8.14048,-1.23809 1.69931,-0.11227 1.74896,-0.12416 2.15275,-0.51552 0.57859,-0.56079 1.32954,-0.56497 1.85304,-0.0103 0.3461,0.3667 0.42778,0.39028 1.35102,0.39028 4.7082,0 11.63097,1.35314 15.51016,3.03164 7.72754,3.34365 13.75303,10.44484 15.75281,18.56506 0.68027,2.76228 0.79956,4.02152 0.79484,8.39007 -0.005,4.62072 -0.0974,5.39368 -0.71177,5.95182 -0.27705,0.25172 -0.53321,0.35776 -0.86417,0.35776 -0.50249,0 -0.65088,-0.12842 -2.23327,-1.93273 -0.8292,-0.94548 -1.64604,-1.38041 -3.14843,-1.6764 -2.10748,-0.41519 -4.46573,0.19285 -5.51861,1.42291 -0.2518,0.29416 -0.69119,0.92769 -0.97644,1.40783 -0.35457,0.59683 -0.64385,0.92486 -0.91443,1.03694 -0.74299,0.30776 -1.12777,0.10249 -2.5357,-1.35271 -1.14421,-1.18263 -1.44305,-1.41443 -2.41184,-1.87083 -1.4165,-0.6673 -2.26924,-0.86684 -3.64264,-0.85233 -2.04024,0.0215 -4.5371,0.99871 -5.90133,2.30952 -0.82612,0.79376 -1.17816,1.42979 -1.37212,2.47901 -0.17211,0.93103 -0.18258,20.92211 -0.0145,27.58451 0.11451,4.53755 0.22866,5.51433 0.73485,6.28792 0.46206,0.70615 2.08369,0.93678 3.17719,0.45186 1.78723,-0.79257 2.46518,-2.23711 2.46518,-5.25273 0,-1.26934 0.0319,-1.45335 0.36122,-2.08373 0.23794,-0.45548 0.58003,-0.84862 1.00239,-1.15201 0.56692,-0.40721 0.75052,-0.46607 1.58531,-0.50823 1.15118,-0.0581 1.88372,0.24272 2.58455,1.06149 0.73474,0.85837 0.88617,1.60865 0.80426,3.98473 -0.0827,2.39936 -0.26805,3.21997 -1.13386,5.02065 -1.31802,2.74113 -3.99327,4.82843 -7.0073,5.46728 -1.06981,0.22675 -2.94424,0.22361 -4.00329,-0.007 z"
       id="path26"
       inkscape:connector-curvature="0" />
  </g>
</svg>
