<?xml version="1.0" encoding="UTF-8" standalone="no"?>
<!-- Created with Inkscape (http://www.inkscape.org/) -->

<svg
   xmlns:dc="http://purl.org/dc/elements/1.1/"
   xmlns:cc="http://creativecommons.org/ns#"
   xmlns:rdf="http://www.w3.org/1999/02/22-rdf-syntax-ns#"
   xmlns:svg="http://www.w3.org/2000/svg"
   xmlns="http://www.w3.org/2000/svg"
   xmlns:sodipodi="http://sodipodi.sourceforge.net/DTD/sodipodi-0.dtd"
   xmlns:inkscape="http://www.inkscape.org/namespaces/inkscape"
   width="100mm"
   height="100mm"
   viewBox="0 0 100 100"
   version="1.1"
   id="svg8"
   inkscape:version="0.92.3 (2405546, 2018-03-11)"
   sodipodi:docname="ForegroundEye.svg">
  <defs
     id="defs2" />
  <sodipodi:namedview
     id="base"
     pagecolor="#ebebeb"
     bordercolor="#666666"
     borderopacity="1.0"
     inkscape:pageopacity="0"
     inkscape:pageshadow="2"
     inkscape:zoom="1.4"
     inkscape:cx="0.056848571"
     inkscape:cy="160.49394"
     inkscape:document-units="mm"
     inkscape:current-layer="layer1"
     showgrid="false"
     inkscape:window-width="1920"
     inkscape:window-height="1017"
     inkscape:window-x="-8"
     inkscape:window-y="-8"
     inkscape:window-maximized="1"
     fit-margin-top="0"
     fit-margin-left="0"
     fit-margin-right="0"
     fit-margin-bottom="0"
     inkscape:snap-global="false" />
  <metadata
     id="metadata5">
    <rdf:RDF>
      <cc:Work
         rdf:about="">
        <dc:format>image/svg+xml</dc:format>
        <dc:type
           rdf:resource="http://purl.org/dc/dcmitype/StillImage" />
        <dc:title />
      </cc:Work>
    </rdf:RDF>
  </metadata>
  <g
     inkscape:label="svg"
     inkscape:groupmode="layer"
     id="layer1"
     style="display:inline"
     transform="translate(274.70366,-133.30423)">
    <g
       id="g68">
      <g
         id="g72">
        <circle
           style="fill:#ffffff;fill-opacity:1;stroke:none;stroke-width:0.13229166"
           id="path1439"
           cx="-224.70366"
           cy="183.30423"
           r="50" />
      </g>
    </g>
    <g
       id="g67"
       transform="matrix(0.53999832,0,0,0.53999832,6.3413858,91.937124)">
      <path
         id="path58"
         transform="matrix(0.26458333,0,0,0.26458333,-274.70366,133.30423)"
         d="m -574.36914,-100.28125 c -2.1697,1e-4 -4.33865,0.797769 -6.19336,2.392578 l -2.80469,2.41211 -0.5,40.33789 -0.5,40.337891 -12,0.699219 c -45.84136,2.671937 -78.05825,7.4591007 -109.54297,16.2773432 -6.85164,1.9190174 -13.13203,3.2446511 -13.95703,2.9453126 -0.82499,-0.299263 -11.62499,-12.9606684 -24,-28.1367188 -15.05465,-18.462274 -23.49449,-28.007883 -25.50195,-28.847656 -6.49674,-2.717707 -12.49805,1.453522 -12.49805,8.6875 0,4.15748 0.0506,4.227855 29.20703,39.7363279 6.4859,7.8989102 11.79297,14.9151101 11.79297,15.5917971 0,0.676724 -3.26252,2.494332 -7.25,4.039062 -32.7405,12.683377 -64.98295,32.838009 -86.375,53.994141 -22.71968,22.469178 -35.71199,47.098593 -38.63281,73.236333 -3.6415,32.5872 9.83931,65.31308 38.63281,93.78906 47.95261,47.42385 131.60559,78.11067 228.625,83.86523 13.74429,0.81525 62.21045,-0.33802 77,-1.83203 87.02068,-8.79065 161.68404,-38.57869 205.62305,-82.0332 28.7935,-28.47598 42.27435,-61.20186 38.63281,-93.78906 -4.45017,-39.8236 -33.32735,-77.341215 -81.51172,-105.902349 -13.36747,-7.923553 -31.5818,-16.728268 -46.24414,-22.351562 -5.5,-2.109355 -10.5756,-4.34199 -11.27734,-4.962891 -0.9984,-0.8833889 3.18317,-6.0625912 19.22265,-23.8125 11.27384,-12.476107 21.21455,-24.069095 22.08985,-25.761719 4.16617,-8.056516 -4.75644,-16.364247 -12.89649,-12.007812 -1.26504,0.677027 -13.01167,13.122164 -26.10546,27.654297 -15.90747,17.6548533 -24.46574,26.4218748 -25.78907,26.4218748 -1.08926,0 -8.3403,-1.5628232 -16.11328,-3.4726563 -26.1383,-6.4221354 -54.21296,-10.5628845 -84.49805,-12.4628905 -8.45155,-0.53023 -15.62909,-1.226749 -15.94921,-1.546875 -0.32009,-0.320088 -0.82932,-18.607768 -1.13282,-40.638672 l -0.55078,-40.054687 -2.80664,-2.41211 c -1.85495,-1.59462 -4.02561,-2.392678 -6.19531,-2.392578 z m -5.98633,107.6621094 c 18.52117,-0.1025717 36.90132,0.2761614 45.98828,1.1875 54.65019,5.4809576 99.1047,17.1274496 138,36.1523436 69.81234,34.147351 101.05308,85.173667 83.02735,135.607417 -21.05356,58.9053 -109.16057,105.1727 -219.59375,115.31446 -11.59582,1.06488 -55.74595,2.0048 -68.4336,1.45703 -44.2656,-1.91104 -90.02226,-10.55406 -127.18359,-24.02539 -65.36655,-23.69598 -107.65331,-60.63328 -117.9707,-103.04688 -2.20249,-9.05416 -2.20249,-26.60404 0,-35.6582 6.36366,-26.16023 25.7685,-51.352132 55.125,-71.566406 40.48312,-27.87583 98.29857,-46.789817 164.20117,-53.7187496 9.65518,-1.0151433 28.31867,-1.6005534 46.83984,-1.703125 z"
         style="fill:#48bcda;stroke-width:0.99999994"
         inkscape:connector-curvature="0" />
      <path
         id="path48"
         d="m -432.46704,205.82448 c -9.86638,-1.78173 -18.74272,-8.41573 -23.37138,-17.4673 -2.54982,-4.9863 -3.62528,-9.50866 -3.61008,-15.18053 0.0153,-5.69419 1.04526,-9.89271 3.69977,-15.08125 8.90196,-17.39987 31.05625,-23.16269 47.52333,-12.36186 2.9679,1.94666 7.2167,6.12601 9.07054,8.92227 3.82764,5.77347 5.68465,11.87457 5.68712,18.68462 0.002,5.27662 -1.13846,10.02441 -3.56428,14.83957 -4.73386,9.39649 -13.4638,15.85949 -23.87461,17.67498 -2.82931,0.49339 -8.74577,0.47778 -11.56041,-0.0305 z"
         style="fill:#48bcda;fill-opacity:1;stroke-width:0.26458332"
         inkscape:connector-curvature="0" />
    </g>
  </g>
</svg>
