<?xml version="1.0" encoding="UTF-8" standalone="no"?>
<!-- Created with Inkscape (http://www.inkscape.org/) -->

<svg
   xmlns:dc="http://purl.org/dc/elements/1.1/"
   xmlns:cc="http://creativecommons.org/ns#"
   xmlns:rdf="http://www.w3.org/1999/02/22-rdf-syntax-ns#"
   xmlns:svg="http://www.w3.org/2000/svg"
   xmlns="http://www.w3.org/2000/svg"
   xmlns:sodipodi="http://sodipodi.sourceforge.net/DTD/sodipodi-0.dtd"
   xmlns:inkscape="http://www.inkscape.org/namespaces/inkscape"
   width="100mm"
   height="100mm"
   viewBox="0 0 100 100"
   version="1.1"
   id="svg8"
   inkscape:version="0.92.3 (2405546, 2018-03-11)"
   sodipodi:docname="ForegroundApple.svg">
  <defs
     id="defs2" />
  <sodipodi:namedview
     id="base"
     pagecolor="#ebebeb"
     bordercolor="#666666"
     borderopacity="1.0"
     inkscape:pageopacity="0"
     inkscape:pageshadow="2"
     inkscape:zoom="0.35"
     inkscape:cx="272.24143"
     inkscape:cy="-51.021144"
     inkscape:document-units="mm"
     inkscape:current-layer="layer1"
     showgrid="false"
     inkscape:window-width="1920"
     inkscape:window-height="1017"
     inkscape:window-x="-8"
     inkscape:window-y="-8"
     inkscape:window-maximized="1"
     fit-margin-top="0"
     fit-margin-left="0"
     fit-margin-right="0"
     fit-margin-bottom="0" />
  <metadata
     id="metadata5">
    <rdf:RDF>
      <cc:Work
         rdf:about="">
        <dc:format>image/svg+xml</dc:format>
        <dc:type
           rdf:resource="http://purl.org/dc/dcmitype/StillImage" />
        <dc:title />
      </cc:Work>
    </rdf:RDF>
  </metadata>
  <g
     inkscape:label="svg"
     inkscape:groupmode="layer"
     id="layer1"
     style="display:inline"
     transform="translate(274.70366,-133.30423)">
    <g
       id="g140">
      <circle
         r="50"
         cy="183.30423"
         cx="-224.70366"
         id="path1439"
         style="fill:#ffffff;fill-opacity:1;stroke:none;stroke-width:0.13229166" />
      <g
         transform="matrix(0.42436069,0,0,0.42436069,-42.147559,117.66278)"
         id="g118">
        <path
           inkscape:connector-curvature="0"
           style="fill:#48bcda;stroke-width:0.26458332"
           d="m -412.9189,237.25925 c -2.87091,-0.34091 -7.23254,-1.39723 -10.48936,-2.54037 -4.84426,-1.70032 -5.36584,-1.70696 -11.33876,-0.14412 -6.17312,1.61522 -9.35409,2.1499 -12.7,2.13473 -4.43405,-0.0201 -8.85803,-1.25958 -13.97059,-3.91415 -3.74668,-1.94538 -6.47001,-3.9583 -10.17995,-7.52437 -8.77029,-8.43019 -15.01907,-19.29199 -17.73815,-30.83298 -1.26757,-5.38014 -1.61566,-8.54376 -1.61566,-14.68437 0,-10.39601 1.86958,-18.57165 6.32268,-27.64896 3.14657,-6.41405 7.30711,-12.27158 12.02004,-16.92273 l 2.13404,-2.10607 1.52577,0.3341 c 0.83918,0.18375 2.35921,0.53269 3.37786,0.77541 2.76918,0.65984 12.12767,0.63803 15.19963,-0.0354 4.81755,-1.05613 9.41472,-2.96684 13.06555,-5.43039 2.29412,-1.54805 6.1459,-4.72069 7.70167,-6.34371 0.57302,-0.59779 1.40646,-1.20594 1.85208,-1.35144 3.30017,-1.07753 15.03608,-2.13791 18.20365,-1.64477 2.08946,0.3253 6.93958,2.19461 10.73562,4.13767 16.27998,8.33316 28.51699,23.89351 32.67736,41.55193 1.26757,5.38015 1.61566,8.54377 1.61566,14.68438 0,10.39601 -1.86958,18.57165 -6.32268,27.64896 -4.43843,9.04741 -10.89948,16.89637 -18.79312,22.83008 -7.02669,5.28202 -15.76555,7.91929 -23.28334,7.02659 z"
           id="path104" />
        <path
           inkscape:connector-curvature="0"
           style="fill:#48bcda;stroke-width:0.26458332"
           d="m -462.6613,131.05993 c -2.99859,-0.39239 -6.45847,-1.35183 -8.58721,-2.38127 -2.28276,-1.10392 -4.94781,-2.81316 -5.57792,-3.57743 -0.36346,-0.44084 -0.30827,-0.45716 0.9367,-0.27694 7.69383,1.11375 12.28592,0.41555 18.44258,-2.80409 2.6407,-1.38097 6.53241,-4.14083 8.73202,-6.19244 0.68499,-0.6389 1.31648,-1.16164 1.40331,-1.16164 0.0868,0 1.4009,0.41589 2.92018,0.92419 2.96599,0.99234 8.12104,2.11666 11.05692,2.41153 2.59816,0.26094 2.58358,0.56674 -0.14994,3.14501 -5.85909,5.52633 -12.14475,8.68328 -19.51861,9.80317 -2.666,0.40488 -7.02484,0.45449 -9.65803,0.10991 z"
           id="path102" />
        <path
           inkscape:connector-curvature="0"
           style="fill:#48bcda;stroke-width:0.26458332"
           d="m -474.82534,121.38147 c -3.17439,-0.57291 -8.33034,-2.37438 -9.22217,-3.22219 -2.16177,-2.05509 -7.66614,-12.23139 -6.98461,-12.91293 0.095,-0.0949 1.07516,-0.0384 2.17822,0.12565 2.5298,0.37626 9.06122,0.38712 11.12964,0.0185 2.2165,-0.39501 5.76773,-1.49244 7.78154,-2.40473 l 1.71367,-0.77632 1.46133,1.06249 c 3.49587,2.54178 9.0835,6.17805 11.64778,7.58004 1.52797,0.8354 3.07029,1.6968 3.42738,1.91422 l 0.64925,0.3953 -1.17842,1.02488 c -3.66949,3.19139 -9.09533,6.15605 -12.9639,7.08342 -2.66059,0.63779 -6.47938,0.68203 -9.63971,0.11166 z"
           id="path100" />
        <path
           inkscape:connector-curvature="0"
           style="fill:#48bcda;stroke-width:0.26458332"
           d="m -426.01364,116.18747 c 0.001,-0.32742 0.17071,-1.905 0.37674,-3.50572 0.20604,-1.60073 0.45188,-4.22011 0.54633,-5.82084 0.18905,-3.20413 0.44568,-4.21069 2.13717,-8.382484 2.44682,-6.03466 5.75478,-12.17459 8.48633,-15.751545 2.24232,-2.9363 4.60794,-3.87225 8.23911,-3.25978 5.18884,0.87521 9.09383,4.63482 8.707,8.382835 -0.24463,2.37029 -1.8003,5.49087 -10.07085,20.201604 -1.67718,2.98317 -3.33929,5.91124 -3.69357,6.5068 l -0.64416,1.08286 -3.80197,0.18195 c -2.09109,0.10008 -4.9926,0.35316 -6.4478,0.56241 -3.66155,0.5265 -3.83689,0.51744 -3.83433,-0.19809 z"
           id="path98" />
        <path
           inkscape:connector-curvature="0"
           style="fill:#48bcda;stroke-width:0.26458332"
           d="m -433.57117,114.41363 c -1.75438,-0.25511 -3.83797,-0.61066 -4.63021,-0.79011 -2.79566,-0.63324 -6.92125,-1.97272 -7.04155,-2.2862 -0.067,-0.17458 0.47371,-2.08663 1.20156,-4.249 2.4212,-7.193134 3.20605,-13.051024 2.6939,-20.106424 -0.1623,-2.235835 -0.35906,-4.231855 -0.43724,-4.435585 -0.33789,-0.88053 0.55462,-0.64044 1.90368,0.5121 3.09789,2.646595 6.5406,7.294465 8.59017,11.597225 2.02918,4.25997 2.63093,6.719964 2.62065,10.713524 -0.0145,5.61217 -0.68878,9.68273 -1.5789,9.53087 -0.0728,-0.0124 -1.56769,-0.23129 -3.32206,-0.4864 z"
           id="path96" />
        <path
           inkscape:connector-curvature="0"
           style="fill:#48bcda;stroke-width:0.26458332"
           d="m -452.17731,108.43268 c -4.48818,-2.39112 -12.40453,-7.62885 -13.46918,-8.911684 -0.2269,-0.2734 -0.1613,-1.00479 0.26848,-2.99324 1.20062,-5.55487 0.57376,-15.113505 -1.5447,-23.554115 l -0.18176,-0.72416 1.82508,0.15421 c 2.66634,0.22529 6.94401,1.15088 10.28076,2.2245 3.13507,1.00873 7.94012,3.15413 8.64226,3.85867 1.44502,1.44995 1.98481,15.638755 0.80204,21.081865 -1.00088,4.606034 -3.04751,10.344174 -3.68473,10.330884 -0.10579,-0.002 -1.428,-0.66232 -2.93825,-1.46693 z"
           id="path94" />
        <path
           inkscape:connector-curvature="0"
           style="fill:#48bcda;stroke-width:0.26458332"
           d="m -487.88988,101.96107 c -2.73345,-0.37967 -4.47865,-0.79647 -4.74798,-1.13397 -0.2435,-0.30513 -1.30746,-4.595834 -1.88262,-7.592234 -0.64161,-3.34255 -1.12425,-8.09463 -1.26971,-12.501555 -0.13142,-3.98161 -0.0971,-4.69635 0.22575,-4.69635 0.20942,0 1.38815,1.16026 2.6194,2.57836 3.2702,3.76646 14.42868,14.842205 18.17083,18.036105 1.77541,1.51531 3.16035,2.86462 3.07762,2.99846 -0.24187,0.391364 -2.34763,1.213254 -4.67791,1.825824 -2.43667,0.64053 -8.54468,0.89798 -11.51538,0.48536 z"
           id="path92" />
        <path
           inkscape:connector-curvature="0"
           style="fill:#48bcda;stroke-width:0.26458332"
           d="m -472.91228,93.568316 c -5.6926,-4.9894 -19.77849,-19.371445 -19.77849,-20.194335 0,-0.69613 7.53216,-1.39921 15.21354,-1.42009 l 6.61458,-0.018 0.5869,2.38125 c 0.32279,1.30969 0.8428,3.81 1.15557,5.55625 1.0695,5.971215 0.95579,16.536445 -0.17798,16.536445 -0.20464,0 -1.831,-1.2787 -3.61412,-2.84155 z"
           id="path63" />
      </g>
    </g>
  </g>
</svg>
