<?xml version="1.0" encoding="UTF-8" standalone="no"?>
<!-- Created with Inkscape (http://www.inkscape.org/) -->

<svg
   xmlns:dc="http://purl.org/dc/elements/1.1/"
   xmlns:cc="http://creativecommons.org/ns#"
   xmlns:rdf="http://www.w3.org/1999/02/22-rdf-syntax-ns#"
   xmlns:svg="http://www.w3.org/2000/svg"
   xmlns="http://www.w3.org/2000/svg"
   xmlns:sodipodi="http://sodipodi.sourceforge.net/DTD/sodipodi-0.dtd"
   xmlns:inkscape="http://www.inkscape.org/namespaces/inkscape"
   width="100mm"
   height="100mm"
   viewBox="0 0 100 100"
   version="1.1"
   id="svg8"
   inkscape:version="0.92.3 (2405546, 2018-03-11)"
   sodipodi:docname="ForegroundBear.svg">
  <defs
     id="defs2" />
  <sodipodi:namedview
     id="base"
     pagecolor="#ebebeb"
     bordercolor="#666666"
     borderopacity="1.0"
     inkscape:pageopacity="0"
     inkscape:pageshadow="2"
     inkscape:zoom="0.7"
     inkscape:cx="-111.93171"
     inkscape:cy="106.30044"
     inkscape:document-units="mm"
     inkscape:current-layer="layer1"
     showgrid="false"
     inkscape:window-width="1920"
     inkscape:window-height="1017"
     inkscape:window-x="-8"
     inkscape:window-y="-8"
     inkscape:window-maximized="1"
     fit-margin-top="0"
     fit-margin-left="0"
     fit-margin-right="0"
     fit-margin-bottom="0"
     inkscape:snap-global="false"
     showguides="false" />
  <metadata
     id="metadata5">
    <rdf:RDF>
      <cc:Work
         rdf:about="">
        <dc:format>image/svg+xml</dc:format>
        <dc:type
           rdf:resource="http://purl.org/dc/dcmitype/StillImage" />
        <dc:title></dc:title>
      </cc:Work>
    </rdf:RDF>
  </metadata>
  <g
     inkscape:label="svg"
     inkscape:groupmode="layer"
     id="layer1"
     style="display:inline"
     transform="translate(274.70366,-133.30423)">
    <g
       id="g68">
      <g
         id="g72">
        <circle
           style="fill:#ffffff;fill-opacity:1;stroke:none;stroke-width:0.13229166"
           id="path1439"
           cx="-224.70366"
           cy="183.30423"
           r="50" />
      </g>
    </g>
    <g
       id="g56"
       transform="matrix(0.49973315,0,0,0.49973315,-9.6992931,79.879852)">
      <path
         id="path45"
         transform="matrix(0.26458333,0,0,0.26458333,-274.70366,133.30423)"
         d="m -768.34766,25.96875 c -15.10204,0.02736 -18.08288,0.322111 -26.70507,2.634766 -29.85385,8.007345 -52.65969,26.396026 -66.02735,53.240234 -11.38091,22.85454 -13.35004,47.67597 -5.63281,71 5.59041,16.89611 14.10185,29.92414 29.54492,45.22461 5.67647,5.62413 10.32031,10.98265 10.32031,11.90625 0,0.92364 -1.53321,6.44616 -3.4082,12.27344 -4.33376,13.46899 -8.04701,30.16083 -10.25195,46.0957 -2.39082,17.27868 -2.39082,54.72132 0,72 8.42147,60.86185 35.34437,115.21155 77.29883,156.04492 13.274,12.9193 21.63706,19.79332 34.86132,28.65821 34.41782,23.07187 69.20106,35.28601 113,39.68164 10.29846,1.03355 61.40018,-0.26009 70.95899,-1.79688 42.49712,-6.83252 79.82256,-23.16436 113.04101,-49.45898 10.6986,-8.46864 29.79721,-27.48331 38.79883,-38.62891 30.51806,-37.78666 50.44389,-84.50762 57.36133,-134.5 2.39082,-17.27868 2.39082,-54.72132 0,-72 -2.20494,-15.93487 -5.9182,-32.62671 -10.25195,-46.0957 -1.87499,-5.82728 -3.40821,-11.3498 -3.40821,-12.27344 0,-0.9236 4.64384,-6.28212 10.32032,-11.90625 15.44307,-15.30047 23.95451,-28.3285 29.54492,-45.22461 7.71723,-23.32403 5.7481,-48.14546 -5.63281,-71 -13.36766,-26.844208 -36.1735,-45.232889 -66.02735,-53.240234 -8.6222,-2.312807 -11.60303,-2.608309 -26.70508,-2.634766 -15.77703,-0.02857 -17.6449,0.166903 -25.96289,2.728516 -16.96395,5.224138 -30.22878,14.137795 -41.32812,27.769531 -6.67865,8.202482 -5.57717,8.107957 -21.70899,1.871094 -12.98075,-5.018608 -32.78467,-10.183689 -48.64062,-12.685547 -16.41135,-2.589544 -69.3074,-2.589544 -85.71875,0 -15.85595,2.501858 -35.65991,7.666939 -48.64063,12.685547 -16.13185,6.236863 -15.03033,6.331388 -21.70898,-1.871094 -11.09934,-13.631736 -24.36417,-22.545393 -41.32813,-27.769531 -8.31798,-2.561575 -10.18585,-2.758752 -25.96289,-2.728516 z m 43,220.375 c 27.97849,0 49.5,21.52152 49.5,49.5 0,22.21198 -13.79655,41.02689 -34.85546,47.53516 -8.25967,2.55337 -21.42154,2.56749 -29.34766,0.0332 -21.18656,-6.77416 -34.79688,-25.38004 -34.79688,-47.56836 0,-27.97848 21.52152,-49.5 49.5,-49.5 z m 275,0 c 27.97849,0 49.5,21.52152 49.5,49.5 0,22.21198 -13.79656,41.02689 -34.85546,47.53516 -8.25971,2.55337 -21.42154,2.56749 -29.34766,0.0332 -21.18656,-6.77416 -34.79688,-25.38004 -34.79688,-47.56836 0,-27.97848 21.52152,-49.5 49.5,-49.5 z m -143,126.64063 c 15.75735,-0.0244 24.05365,1.597 31.4043,6.13867 6.16509,3.80916 8.34249,7.14124 8.87695,13.58593 0.90187,10.87548 -7.68372,22.87492 -21.28125,29.7461 -3.85001,1.94547 -7.145,4.29018 -7.32226,5.20898 -0.60805,3.15077 2.87503,12.67039 5.89453,16.10938 6.32833,7.20759 22.80719,9.09497 39.42773,4.51562 11.82089,-3.25693 14.26942,-3.46361 16.54493,-1.40429 1.07546,0.97326 1.95507,2.97057 1.95507,4.43945 0,5.19042 -6.34241,8.45888 -22.35937,11.52344 -22.80624,4.36354 -41.14534,-1.27109 -49.27344,-15.14063 -1.40625,-2.39955 -2.92169,-4.36328 -3.36719,-4.36328 -0.44545,0 -1.96827,1.97752 -3.38476,4.39453 -3.2411,5.53055 -7.59495,9.22899 -14.61524,12.41797 -8.03168,3.64845 -25.25206,4.27801 -36.84765,1.3457 -10.28504,-2.60084 -13.28033,-4.02975 -14.78711,-7.05273 -1.51767,-3.04483 -0.40188,-6.18101 2.86133,-8.03906 2.25131,-1.28183 3.33917,-1.18942 10.27343,0.86914 16.38142,4.86311 32.23921,3.53571 39.01954,-3.26563 2.92161,-2.93068 7.48046,-12.80835 7.48046,-16.20898 0,-0.82024 -2.86494,-2.81616 -6.51562,-4.54102 -16.33523,-7.71802 -26.02506,-25.12846 -20.69336,-37.18164 4.12471,-9.32455 14.60355,-13.06364 36.70898,-13.09765 z"
         style="fill:#48bcda;stroke-width:0.99999994"
         inkscape:connector-curvature="0" />
      <path
         id="path41"
         d="m -434.02008,242.26245 c -1.50078,-0.5508 -2.54408,-1.3899 -3.39351,-2.72931 -1.96982,-3.10608 -0.20296,-4.16367 6.61338,-3.95859 3.99029,0.12006 5.88998,0.66637 6.24883,1.79701 0.43654,1.3754 -2.43734,4.35423 -4.84634,5.02332 -1.33311,0.37027 -3.4152,0.31062 -4.62236,-0.13243 z"
         style="fill:#48bcda;stroke-width:0.26458332"
         inkscape:connector-curvature="0" />
    </g>
  </g>
</svg>
