<?xml version="1.0" encoding="UTF-8" standalone="no"?>
<!-- Created with Inkscape (http://www.inkscape.org/) -->

<svg
   xmlns:dc="http://purl.org/dc/elements/1.1/"
   xmlns:cc="http://creativecommons.org/ns#"
   xmlns:rdf="http://www.w3.org/1999/02/22-rdf-syntax-ns#"
   xmlns:svg="http://www.w3.org/2000/svg"
   xmlns="http://www.w3.org/2000/svg"
   xmlns:sodipodi="http://sodipodi.sourceforge.net/DTD/sodipodi-0.dtd"
   xmlns:inkscape="http://www.inkscape.org/namespaces/inkscape"
   width="100mm"
   height="100mm"
   viewBox="0 0 100 100"
   version="1.1"
   id="svg8"
   inkscape:version="0.92.3 (2405546, 2018-03-11)"
   sodipodi:docname="ForegroundCat.svg">
  <defs
     id="defs2" />
  <sodipodi:namedview
     id="base"
     pagecolor="#ebebeb"
     bordercolor="#666666"
     borderopacity="1.0"
     inkscape:pageopacity="0"
     inkscape:pageshadow="2"
     inkscape:zoom="0.35"
     inkscape:cx="-1107.1626"
     inkscape:cy="254.77857"
     inkscape:document-units="mm"
     inkscape:current-layer="layer1"
     showgrid="false"
     inkscape:window-width="1920"
     inkscape:window-height="1017"
     inkscape:window-x="-8"
     inkscape:window-y="-8"
     inkscape:window-maximized="1"
     fit-margin-top="0"
     fit-margin-left="0"
     fit-margin-right="0"
     fit-margin-bottom="0"
     inkscape:snap-global="false" />
  <metadata
     id="metadata5">
    <rdf:RDF>
      <cc:Work
         rdf:about="">
        <dc:format>image/svg+xml</dc:format>
        <dc:type
           rdf:resource="http://purl.org/dc/dcmitype/StillImage" />
        <dc:title />
      </cc:Work>
    </rdf:RDF>
  </metadata>
  <g
     inkscape:label="svg"
     inkscape:groupmode="layer"
     id="layer1"
     style="display:inline"
     transform="translate(274.70366,-133.30423)">
    <g
       id="g68">
      <g
         id="g72">
        <circle
           style="fill:#ffffff;fill-opacity:1;stroke:none;stroke-width:0.13229166"
           id="path1439"
           cx="-224.70366"
           cy="183.30423"
           r="50" />
      </g>
      <g
         transform="matrix(0.52130275,0,0,0.52130275,4.764183,82.504643)"
         id="g60">
        <path
           inkscape:connector-curvature="0"
           style="fill:#48bcda;stroke-width:0.26458332"
           d="m -444.92988,257.94878 c -12.35956,-1.30066 -25.11981,-7.86726 -34.63685,-17.8246 -2.63834,-2.76041 -5.09135,-5.73521 -6.59769,-8.00112 -0.50788,-0.76399 -1.06973,-1.38907 -1.24856,-1.38907 -0.17883,0 -5.26461,2.38125 -11.30174,5.29167 -6.03714,2.91042 -11.15619,5.29167 -11.37568,5.29167 -0.66411,0 -1.79391,-1.05885 -1.78494,-1.67285 0.005,-0.31686 0.16929,-0.78817 0.36591,-1.04735 0.19662,-0.25919 5.16369,-2.79672 11.03794,-5.63897 5.87424,-2.84224 10.78404,-5.26981 10.91066,-5.3946 0.22248,-0.21925 -2.72576,-6.38517 -3.39297,-7.09601 -0.26544,-0.28281 -2.89451,-0.22564 -14.66754,0.31894 -9.33306,0.43172 -14.57153,0.57706 -14.99507,0.41603 -1.85052,-0.70357 -1.20246,-2.86732 0.96807,-3.23217 0.64109,-0.10777 6.88063,-0.44296 13.86563,-0.74487 6.98499,-0.30192 12.80926,-0.65638 12.9428,-0.78771 0.14682,-0.14438 -0.13609,-1.41885 -0.71566,-3.22388 -0.52716,-1.64181 -1.15025,-3.66751 -1.38464,-4.50157 -0.23439,-0.83405 -0.52793,-1.57936 -0.65231,-1.65623 -0.12437,-0.0769 -5.86133,-1.56449 -12.74879,-3.30582 -6.88746,-1.74134 -12.90648,-3.3441 -13.37561,-3.5617 -1.74485,-0.80935 -1.26499,-3.05666 0.65267,-3.05666 0.53798,0 6.16984,1.30969 12.51524,2.91042 6.34541,1.60073 11.67703,2.91041 11.84805,2.91041 0.40234,0 0.395,-0.22523 -0.13211,-4.05604 -0.5407,-3.92955 -0.61021,-13.62221 -0.12555,-17.5075 1.65728,-13.28574 6.09277,-26.27865 12.25514,-35.89907 2.86421,-4.47146 7.72916,-10.05788 12.12597,-13.92423 3.1882,-2.80356 4.87519,-3.46888 6.56158,-2.58778 0.39296,0.2053 4.88165,5.37781 9.97488,11.49444 5.09323,6.11664 9.43901,11.20385 9.65729,11.30491 0.53089,0.24579 15.5881,0.48799 16.75288,0.26947 0.81619,-0.15311 1.91366,-1.36489 10.08565,-11.13613 5.0434,-6.03038 9.4779,-11.20667 9.85445,-11.50287 0.85833,-0.67516 2.67688,-0.71409 4.0012,-0.0857 1.22119,0.57949 7.68771,6.85804 10.43377,10.13046 8.71519,10.38572 14.86963,25.71207 16.7331,41.67026 0.4612,3.94959 0.52926,12.60639 0.12674,16.12002 -0.1487,1.29803 -0.17628,2.45414 -0.0613,2.56913 0.11499,0.11499 5.14896,-1.03557 11.1866,-2.5568 6.03764,-1.52123 11.42127,-2.76664 11.96362,-2.76757 1.83177,-0.003 2.40963,2.17854 0.79601,3.00537 -0.39807,0.20398 -6.02205,1.70764 -12.49773,3.34147 -6.47567,1.63382 -11.90912,3.07968 -12.07433,3.21302 -0.1652,0.13333 -0.49667,1.04286 -0.7366,2.02116 -0.23993,0.9783 -0.80882,3.11858 -1.2642,4.75618 -0.45538,1.63759 -0.76046,3.04494 -0.67796,3.12745 0.0825,0.0825 5.93096,0.41626 12.99655,0.74168 11.56641,0.5327 12.89971,0.63979 13.3802,1.07462 1.0766,0.97432 0.89603,2.30972 -0.3778,2.79402 -0.39301,0.14943 -5.6125,0.006 -13.94069,-0.38178 -9.99772,-0.4661 -13.38711,-0.5452 -13.61227,-0.31766 -0.16489,0.16663 -0.7999,1.43407 -1.41112,2.81652 -0.61123,1.38244 -1.41164,3.03248 -1.7787,3.66673 -0.55941,0.96664 -0.60934,1.20891 -0.30866,1.49759 0.19729,0.18941 4.68783,2.43385 9.97897,4.98762 5.29115,2.55378 9.78197,4.85642 9.97961,5.117 0.19764,0.26057 0.36313,0.73301 0.36776,1.04987 0.009,0.61213 -1.12012,1.67285 -1.78061,1.67285 -0.21711,0 -4.84575,-2.14312 -10.28586,-4.7625 -5.44012,-2.61937 -10.06192,-4.7625 -10.27067,-4.7625 -0.20875,0 -1.09486,1.0418 -1.96913,2.31511 -9.07329,13.2145 -22.03083,22.32722 -36.16695,25.43531 -4.56014,1.00264 -11.86445,1.48378 -15.96866,1.05187 z"
           id="path51" />
        <path
           inkscape:connector-curvature="0"
           style="fill:#ffffff;stroke-width:0.26458332"
           d="m -464.52334,203.43953 c 1.53216,-0.66003 3.03942,-2.12286 3.90932,-3.79408 0.92182,-1.77098 0.9897,-4.68948 0.15152,-6.51468 -2.35122,-5.11997 -8.78566,-6.33292 -12.84188,-2.42082 -2.90225,2.79914 -3.0236,7.62248 -0.26886,10.68641 2.43574,2.70913 5.76117,3.45991 9.0499,2.04317 z"
           id="path49" />
        <path
           inkscape:connector-curvature="0"
           style="fill:#ffffff;stroke-width:0.26458332"
           d="m -411.75528,202.8386 c 2.71441,-0.81692 4.59105,-2.82716 5.32926,-5.70865 0.9128,-3.56303 -0.92335,-7.37356 -4.34899,-9.02536 -1.69494,-0.81728 -4.70229,-0.8497 -6.40136,-0.069 -2.79891,1.28608 -4.46852,3.6881 -4.68891,6.74581 -0.16297,2.26091 0.41202,4.02733 1.83844,5.64782 2.14831,2.44061 5.20719,3.33161 8.27156,2.40937 z"
           id="path40" />
      </g>
    </g>
  </g>
</svg>
