<?xml version="1.0" encoding="UTF-8" standalone="no"?>
<!-- Created with Inkscape (http://www.inkscape.org/) -->

<svg
   xmlns:dc="http://purl.org/dc/elements/1.1/"
   xmlns:cc="http://creativecommons.org/ns#"
   xmlns:rdf="http://www.w3.org/1999/02/22-rdf-syntax-ns#"
   xmlns:svg="http://www.w3.org/2000/svg"
   xmlns="http://www.w3.org/2000/svg"
   xmlns:sodipodi="http://sodipodi.sourceforge.net/DTD/sodipodi-0.dtd"
   xmlns:inkscape="http://www.inkscape.org/namespaces/inkscape"
   width="100mm"
   height="100mm"
   viewBox="0 0 100 100"
   version="1.1"
   id="svg8"
   inkscape:version="0.92.3 (2405546, 2018-03-11)"
   sodipodi:docname="ForegroundBulb.svg">
  <defs
     id="defs2" />
  <sodipodi:namedview
     id="base"
     pagecolor="#ebebeb"
     bordercolor="#666666"
     borderopacity="1.0"
     inkscape:pageopacity="0"
     inkscape:pageshadow="2"
     inkscape:zoom="0.9899495"
     inkscape:cx="90.925067"
     inkscape:cy="50.56403"
     inkscape:document-units="mm"
     inkscape:current-layer="layer1"
     showgrid="false"
     inkscape:window-width="1920"
     inkscape:window-height="1017"
     inkscape:window-x="-8"
     inkscape:window-y="-8"
     inkscape:window-maximized="1"
     fit-margin-top="0"
     fit-margin-left="0"
     fit-margin-right="0"
     fit-margin-bottom="0"
     inkscape:snap-global="false" />
  <metadata
     id="metadata5">
    <rdf:RDF>
      <cc:Work
         rdf:about="">
        <dc:format>image/svg+xml</dc:format>
        <dc:type
           rdf:resource="http://purl.org/dc/dcmitype/StillImage" />
        <dc:title></dc:title>
      </cc:Work>
    </rdf:RDF>
  </metadata>
  <g
     inkscape:label="svg"
     inkscape:groupmode="layer"
     id="layer1"
     style="display:inline"
     transform="translate(274.70366,-133.30423)">
    <g
       id="g68">
      <g
         id="g72">
        <circle
           style="fill:#ffffff;fill-opacity:1;stroke:none;stroke-width:0.13229166"
           id="path1439"
           cx="-224.70366"
           cy="183.30423"
           r="50" />
      </g>
    </g>
    <g
       id="g71"
       transform="matrix(0.50023498,0,0,0.50023498,4.8286558,87.066534)">
      <path
         id="path57"
         d="m -463.74446,273.88628 c -2.16956,-0.57148 -3.3073,-1.0555 -3.3073,-1.407 0,-0.13931 0.38369,-0.18219 0.8599,-0.0961 3.44854,0.62348 10.74227,0.76958 13.89062,0.27823 1.04835,-0.16362 1.13197,0.24541 0.1323,0.64715 -2.88971,1.16129 -8.32938,1.43278 -11.57552,0.57771 z"
         style="fill:#48bcda;stroke-width:0.26458332"
         inkscape:connector-curvature="0" />
      <path
         id="path55"
         d="m -464.68905,270.32034 c -3.2985,-0.42056 -6.6795,-1.09318 -7.38031,-1.46824 -0.659,-0.35269 -2.39073,-3.22351 -2.39073,-3.96331 0,-0.49491 0.10858,-0.55914 0.7276,-0.43036 1.8088,0.37627 6.31305,0.95059 9.43114,1.20252 6.30208,0.50918 11.55645,0.27088 17.60271,-0.79832 3.46728,-0.61314 3.8329,-0.56991 3.46066,0.40918 -0.45488,1.19641 -2.07188,3.53195 -2.66518,3.84947 -2.26348,1.21138 -13.20953,1.91004 -18.78589,1.19906 z"
         style="fill:#48bcda;stroke-width:0.26458332"
         inkscape:connector-curvature="0" />
      <path
         id="path53"
         d="m -467.25369,263.13764 c -4.92849,-0.59697 -7.84456,-1.1656 -8.17158,-1.59344 -0.64067,-0.83819 -0.75035,-6.44621 -0.13353,-6.82743 0.10093,-0.0624 1.11128,0.10763 2.24523,0.3778 7.44357,1.77342 17.45511,1.72425 27.51818,-0.13515 2.35197,-0.43459 3.564,-0.55562 3.74448,-0.37395 0.15361,0.15463 0.25025,1.5769 0.22772,3.35142 -0.0352,2.77289 -0.0942,3.1274 -0.58734,3.52669 -0.56757,0.45958 -4.84581,1.34915 -8.75929,1.82129 -3.10297,0.37436 -12.48693,0.28846 -16.08387,-0.14723 z"
         style="fill:#48bcda;stroke-width:0.26458332"
         inkscape:connector-curvature="0" />
      <path
         id="path51"
         d="m -465.84431,254.02253 c -5.13967,-0.45842 -11.55514,-2.11373 -12.72459,-3.28318 -0.51327,-0.51327 -0.62408,-0.99036 -0.78776,-3.39183 -0.11102,-1.62888 -0.0853,-3.10799 0.0617,-3.54596 0.29665,-0.88378 -0.57435,-0.85199 9.99421,-0.36478 6.81068,0.31398 27.3597,0.20703 29.39418,-0.15299 0.57838,-0.10235 0.9579,-0.006 1.29107,0.32691 0.41993,0.41993 0.45176,0.79365 0.28915,3.39525 -0.19517,3.12262 -0.50318,3.95942 -1.61265,4.38124 -1.20612,0.45856 -8.45694,1.81003 -11.89926,2.21788 -4.4574,0.52813 -10.68446,0.71373 -14.00609,0.41746 z"
         style="fill:#48bcda;stroke-width:0.26458332"
         inkscape:connector-curvature="0" />
      <path
         id="path49"
         transform="matrix(0.26458333,0,0,0.26458333,-274.70366,133.30423)"
         d="m -695.98438,-86.630859 c -6.12585,0 -12.25218,0.485591 -19.69921,1.455078 -42.81071,5.573215 -82.62131,25.135333 -113.43164,55.738281 -63.66732,63.238789 -79.73285,159.50428 -40.42383,242.22461 7.08839,14.91655 17.63043,40.03819 31.26172,74.5 5.7651,14.57499 13.86866,35.04998 18.00781,45.5 4.13915,10.44998 9.7747,23.49999 12.52344,29 8.68047,17.36874 20.39957,33.75517 27.96679,39.10547 4.6077,3.2578 14.32301,5.50439 27.79492,6.42773 6.32501,0.43351 38.27502,0.68893 71,0.56836 68.0959,-0.25107 61.65879,0.66122 72.49024,-10.27734 13.12747,-13.2573 23.85228,-32.1547 36.79297,-64.82422 4.1393,-10.45002 12.24271,-30.92501 18.00781,-45.5 13.63128,-34.46181 24.17333,-59.58345 31.26172,-74.5 26.22077,-55.17804 28.30204,-116.847812 5.83203,-172.791016 -18.98052,-47.2555083 -55.33446,-86.142038 -100.66797,-107.681641 -19.81916,-9.416806 -37.69574,-14.714247 -59.01953,-17.490234 -7.44705,-0.969487 -13.57139,-1.455078 -19.69727,-1.455078 z m -119.19531,62.03125 c 2.5951,0.04059 3.99186,0.590794 6.17188,2.072265 5.26586,3.578495 8.02344,8.305843 8.02343,13.7519534 0,5.6896628 -1.91969,9.58500726 -9.16406,18.5957031 -8.17084,10.1630745 -18.13207,25.7978185 -24.33008,38.1894535 -10.77841,21.549087 -15.12194,40.529602 -16.3125,71.277344 -0.65688,16.96479 -0.91123,18.81395 -3.05664,22.28125 -1.28674,2.07961 -4.0746,4.66709 -6.19726,5.75 -9.63009,4.91289 -20.95182,-0.20968 -23.89649,-10.8125 -1.31588,-4.73783 -1.33052,-20.56627 -0.0332,-34.71875 3.2352,-35.291868 13.54038,-63.928506 34.23828,-95.1386725 8.99354,-13.5612846 18.41551,-25.3262065 22.98828,-28.7070315 1.76058,-1.301669 4.7921,-2.168459 8.5,-2.427734 1.20481,-0.0843 2.20333,-0.126811 3.06836,-0.113281 z m 120.89649,85.917968 c 5.20911,-0.0097 9.6765,1.020869 12.64258,3.283203 4.60966,3.515982 6.65624,7.435191 6.65624,12.75 0,8.815257 -6.19284,15.033944 -17.27929,17.353516 -19.90477,4.164586 -25.61017,10.163412 -22.75391,23.921872 2.24519,10.81505 6.66631,14.81507 22.34961,20.22071 5.94913,2.05054 12.23877,4.68633 13.97656,5.85742 6.79336,4.57803 9.81112,12.71649 7.68555,20.7207 -1.73579,6.53635 -9.21018,13.15107 -22.88281,20.25 -16.90677,8.77814 -21.09571,13.3408 -21.09571,22.97852 10e-6,3.72325 0.59874,5.24597 3.25,8.26562 4.81327,5.48209 9.791,7.30733 19.83204,7.26953 4.64526,-0.0172 9.7897,0.47735 11.43164,1.09961 12.58295,4.76848 14.2113,21.27865 2.88281,29.23633 -2.84213,1.99642 -6.06131,3.047 -11.89649,3.88477 -12.03276,1.72754 -16.83491,4.64651 -19.96289,12.13281 -4.40367,10.53951 1.00932,26.4651 10.98047,32.30859 5.26148,3.08353 9.27122,3.06848 18.48242,-0.0645 4.04266,-1.37499 9.40765,-2.4981 11.92383,-2.49609 14.15706,0.0116 20.7762,17.10509 10.77735,27.83203 -3.17666,3.40796 -10.7603,7.00621 -19.45703,9.23047 -7.97564,2.03981 -18.95226,2.38764 -25.66016,0.81445 -12.9484,-3.03685 -27.86382,-15.27241 -34.86914,-28.60352 -9.827,-18.70083 -10.11149,-42.28063 -0.71094,-58.9375 1.64765,-2.91946 2.99609,-5.78525 2.99609,-6.36718 10e-6,-0.58194 -1.75059,-3.40173 -3.88867,-6.26563 -7.7763,-10.41607 -10.30033,-17.83646 -10.25195,-30.13281 0.0586,-14.95756 5.95416,-27.6805 17.96875,-38.77149 6.55022,-6.04675 7.13787,-7.16282 4.53906,-8.61718 -0.89779,-0.50242 -4.01885,-3.2752 -6.93554,-6.16211 -20.25786,-20.05134 -21.50698,-56.85236 -2.57227,-75.787112 10.36758,-10.367549 28.52963,-17.180287 41.8418,-17.205079 z M -858,166.35156 c 5.15003,0.18573 10.24598,2.74096 13.36914,8.1836 3.31242,5.77243 7.64648,18.81737 7.64648,23.01367 0,5.43333 -3.94123,11.78107 -8.96093,14.43555 -2.39498,1.26647 -5.97126,2.29466 -7.94727,2.2871 -4.60921,-0.0211 -10.91783,-3.601 -13.74804,-7.80078 -3.04056,-4.51188 -7.67567,-18.81477 -7.67579,-23.68359 -2.8e-4,-10.47073 8.73303,-16.74509 17.31641,-16.43555 z"
         style="fill:#48bcda;stroke-width:0.99999994"
         inkscape:connector-curvature="0" />
    </g>
  </g>
</svg>
