<?xml version="1.0" encoding="UTF-8" standalone="no"?>
<!-- Created with Inkscape (http://www.inkscape.org/) -->

<svg
   xmlns:dc="http://purl.org/dc/elements/1.1/"
   xmlns:cc="http://creativecommons.org/ns#"
   xmlns:rdf="http://www.w3.org/1999/02/22-rdf-syntax-ns#"
   xmlns:svg="http://www.w3.org/2000/svg"
   xmlns="http://www.w3.org/2000/svg"
   xmlns:sodipodi="http://sodipodi.sourceforge.net/DTD/sodipodi-0.dtd"
   xmlns:inkscape="http://www.inkscape.org/namespaces/inkscape"
   width="100mm"
   height="100mm"
   viewBox="0 0 100 100"
   version="1.1"
   id="svg8"
   inkscape:version="0.92.3 (2405546, 2018-03-11)"
   sodipodi:docname="ForegroundTurtle.svg">
  <defs
     id="defs2" />
  <sodipodi:namedview
     id="base"
     pagecolor="#ebebeb"
     bordercolor="#666666"
     borderopacity="1.0"
     inkscape:pageopacity="0"
     inkscape:pageshadow="2"
     inkscape:zoom="0.49497475"
     inkscape:cx="415.67873"
     inkscape:cy="-48.608179"
     inkscape:document-units="mm"
     inkscape:current-layer="layer1"
     showgrid="false"
     inkscape:window-width="1920"
     inkscape:window-height="1017"
     inkscape:window-x="-8"
     inkscape:window-y="-8"
     inkscape:window-maximized="1"
     fit-margin-top="0"
     fit-margin-left="0"
     fit-margin-right="0"
     fit-margin-bottom="0"
     inkscape:snap-global="false" />
  <metadata
     id="metadata5">
    <rdf:RDF>
      <cc:Work
         rdf:about="">
        <dc:format>image/svg+xml</dc:format>
        <dc:type
           rdf:resource="http://purl.org/dc/dcmitype/StillImage" />
        <dc:title></dc:title>
      </cc:Work>
    </rdf:RDF>
  </metadata>
  <g
     inkscape:label="svg"
     inkscape:groupmode="layer"
     id="layer1"
     style="display:inline"
     transform="translate(274.70366,-133.30423)">
    <g
       id="g68">
      <g
         id="g72">
        <circle
           style="fill:#ffffff;fill-opacity:1;stroke:none;stroke-width:0.13229166"
           id="path1439"
           cx="-224.70366"
           cy="183.30423"
           r="50" />
      </g>
    </g>
    <g
       id="g56"
       transform="matrix(0.46223431,0,0,0.46223431,94.049719,37.792683)">
      <path
         id="path47"
         transform="matrix(0.26458333,0,0,0.26458333,-274.70366,133.30423)"
         d="m -1817.6328,524.32031 c -20.9306,-0.19808 -43.2162,6.65171 -62.4707,19.64453 -20.0301,13.51616 -30.9779,30.5284 -32.207,50.04883 -1.2824,20.36523 8.4174,34.20654 32.1953,45.94727 16.9407,8.36477 33.1843,12.9083 54.4336,15.22265 l 11.4101,1.24219 3.8457,4.86328 c 12.7734,16.15956 30.8431,45.25943 40.4629,65.16016 8.4661,17.51403 12.6621,30.18999 12.7774,38.5957 0.081,5.87414 -0.2867,7.19242 -3.4083,12.19141 -1.9249,3.08277 -8.4817,11.14241 -14.5703,17.91211 -6.0885,6.76974 -13.144,15.00857 -15.6797,18.30859 -9.038,11.76246 -14.7991,27.10099 -13.2597,35.30664 2.2055,11.75611 13.33,21.02466 29.0097,24.17188 6.6697,1.33874 22.7317,1.10992 31.6836,-0.45117 31.4749,-5.48875 76.7612,-25.10892 110.7598,-47.98829 5.1546,-3.46885 5.2401,-3.48795 8.8809,-1.93554 53.6626,22.88137 85.8831,30.23017 127.6757,29.11914 34.8148,-0.92557 59.5787,-7.3308 94.0079,-24.31641 8.2546,-4.07244 15.6146,-7.40625 16.3554,-7.40625 0.7409,0 7.0377,3.52716 13.9922,7.83594 31.4509,19.48584 58.5981,33.97162 70.8418,37.80273 20.8653,6.52891 41.2478,-0.75513 49.9024,-17.83398 7.3284,-14.46202 2.3863,-31.71031 -15.3497,-53.57227 -10.2772,-12.66814 -12.25,-16.19934 -12.25,-21.93164 0,-9.50188 4.5137,-16.90613 22.3555,-36.66406 16.8277,-18.63485 23.3004,-29.94264 28.2051,-49.27734 2.797,-11.02606 5.0675,-32.29472 4.0312,-37.75977 -0.4201,-2.21575 -1.971,-5.13127 -3.5898,-6.75 -2.4991,-2.49906 -3.5655,-2.84254 -8.6758,-2.79492 -3.2048,0.03 -11.8647,1.26748 -19.2441,2.75 l -13.416,2.69531 -2.2032,9.00195 c -8.3953,34.29393 -35.6169,67.45441 -79.2304,96.51758 -48.1957,32.11658 -112.5793,50.42602 -171.2325,48.69727 -40.4971,-1.19361 -69.5743,-10.72587 -98.8183,-32.39844 -4.2251,-3.13119 -14.8833,-12.92186 -23.6856,-21.75586 -23.0193,-23.1024 -40.0171,-45.67517 -50.4414,-66.98437 -9.4117,-19.23954 -12.8449,-33.17248 -13.9492,-56.62891 -0.6806,-14.45681 -0.9451,-16.00499 -3.7715,-22 -7.776,-16.49356 -33.154,-42.90665 -56.334,-58.63281 -7.6982,-5.22278 -20.911,-11.37519 -28.7226,-13.37305 -6.5129,-1.6657 -13.3396,-2.51405 -20.3164,-2.58008 z m -31.7285,42.84375 c 9.8521,-0.37942 18.3455,6.55443 20.2636,16.88477 1.6332,8.79587 -4.7623,18.72363 -13.789,21.40429 -5.0412,1.49708 -6.2951,1.65151 -8.2071,1.01368 -0.5499,-0.18346 -2.249,-0.61013 -3.7753,-0.94727 -4.1172,-0.90916 -10.3743,-7.07529 -12.3028,-12.125 -4.4257,-11.58863 3.3187,-24.34281 15.8223,-26.05664 0.6673,-0.0915 1.3315,-0.14853 1.9883,-0.17383 z"
         style="fill:#48bcda;stroke-width:0.99999994"
         inkscape:connector-curvature="0" />
      <path
         id="path37"
         d="m -680.79304,340.96125 c -2.97098,-0.28656 -6.95649,-1.10135 -9.58634,-1.95983 -8.52056,-2.78139 -16.84388,-9.60974 -24.66565,-20.23541 -4.4378,-6.02863 -6.96266,-11.44328 -7.77379,-16.67114 -0.7571,-4.87962 1.73975,-14.39328 4.95499,-18.87982 5.18866,-7.24025 13.92815,-12.69729 24.85328,-15.51869 6.69629,-1.7293 12.14627,-2.37177 21.67154,-2.55473 8.22277,-0.15794 12.08324,0.1137 17.60363,1.23868 13.0543,2.6603 26.26798,11.56283 34.82084,23.46005 3.69423,5.13876 5.00499,8.64333 4.78215,12.78607 -0.55846,10.38239 -11.66503,22.75934 -27.30871,30.43231 -12.34187,6.05348 -27.32566,9.06247 -39.35194,7.90251 z"
         style="fill:#48bcda;stroke-width:0.26458332"
         inkscape:connector-curvature="0" />
    </g>
  </g>
</svg>
