<?xml version="1.0" encoding="UTF-8" standalone="no"?>
<!-- Created with Inkscape (http://www.inkscape.org/) -->

<svg
   xmlns:dc="http://purl.org/dc/elements/1.1/"
   xmlns:cc="http://creativecommons.org/ns#"
   xmlns:rdf="http://www.w3.org/1999/02/22-rdf-syntax-ns#"
   xmlns:svg="http://www.w3.org/2000/svg"
   xmlns="http://www.w3.org/2000/svg"
   xmlns:sodipodi="http://sodipodi.sourceforge.net/DTD/sodipodi-0.dtd"
   xmlns:inkscape="http://www.inkscape.org/namespaces/inkscape"
   width="100mm"
   height="100mm"
   viewBox="0 0 100 100"
   version="1.1"
   id="svg8"
   inkscape:version="0.92.3 (2405546, 2018-03-11)"
   sodipodi:docname="ForegroundBall.svg">
  <defs
     id="defs2" />
  <sodipodi:namedview
     id="base"
     pagecolor="#ebebeb"
     bordercolor="#666666"
     borderopacity="1.0"
     inkscape:pageopacity="0"
     inkscape:pageshadow="2"
     inkscape:zoom="0.175"
     inkscape:cx="-569.28131"
     inkscape:cy="-588.12621"
     inkscape:document-units="mm"
     inkscape:current-layer="layer1"
     showgrid="false"
     inkscape:window-width="1920"
     inkscape:window-height="1017"
     inkscape:window-x="-8"
     inkscape:window-y="-8"
     inkscape:window-maximized="1"
     fit-margin-top="0"
     fit-margin-left="0"
     fit-margin-right="0"
     fit-margin-bottom="0"
     inkscape:snap-global="false" />
  <metadata
     id="metadata5">
    <rdf:RDF>
      <cc:Work
         rdf:about="">
        <dc:format>image/svg+xml</dc:format>
        <dc:type
           rdf:resource="http://purl.org/dc/dcmitype/StillImage" />
        <dc:title />
      </cc:Work>
    </rdf:RDF>
  </metadata>
  <g
     inkscape:label="svg"
     inkscape:groupmode="layer"
     id="layer1"
     style="display:inline"
     transform="translate(274.70366,-133.30423)">
    <g
       id="g277">
      <circle
         r="50"
         cy="183.30423"
         cx="-224.70366"
         id="path1439"
         style="fill:#ffffff;fill-opacity:1;stroke:none;stroke-width:0.13229166" />
      <g
         transform="matrix(0.47140929,0,0,0.47244094,-3.2822664,96.278185)"
         id="g255">
        <path
           inkscape:connector-curvature="0"
           style="fill:#48bcda;stroke-width:0.26458332"
           d="m -479.3425,263.15474 c -11.60976,-1.50513 -22.63402,-5.41204 -32.42681,-11.4918 -3.24861,-2.01686 -3.60311,-2.33658 -3.1003,-2.79613 0.55987,-0.51171 42.30442,-25.56513 42.82322,-25.7008 0.48226,-0.12611 0.49417,0.43243 0.42825,20.07606 l -0.0678,20.20577 -2.38124,0.041 c -1.30969,0.0226 -3.68358,-0.12778 -5.27531,-0.33414 z"
           id="path241" />
        <path
           inkscape:connector-curvature="0"
           style="fill:#48bcda;stroke-width:0.26458332"
           d="m -467.84949,243.30865 c 0,-19.66596 0.0148,-20.26763 0.4944,-20.1422 0.5177,0.13538 42.26283,25.1897 42.82156,25.70036 0.50281,0.45955 0.14831,0.77927 -3.1003,2.79613 -8.05756,5.00245 -17.13102,8.61017 -26.31231,10.46207 -4.08798,0.82457 -9.2208,1.45512 -11.84493,1.45512 h -2.05842 z"
           id="path239" />
        <path
           inkscape:connector-curvature="0"
           style="fill:#48bcda;stroke-width:0.26458332"
           d="m -519.85907,245.91075 c -13.87353,-11.04032 -24.1503,-28.04946 -27.76269,-45.95019 -0.91877,-4.55282 -1.54976,-9.94548 -1.20416,-10.29108 0.33442,-0.33442 76.71655,0.48869 77.05827,0.8304 0.12028,0.12028 0.18786,6.57202 0.1502,14.33721 l -0.0685,14.11853 -23.01875,13.8751 c -12.66031,7.6313 -23.20587,13.92969 -23.43458,13.9964 -0.22871,0.0667 -1.00261,-0.34565 -1.71979,-0.91637 z"
           id="path237" />
        <path
           inkscape:connector-curvature="0"
           style="fill:#48bcda;stroke-width:0.26458332"
           d="m -444.56615,232.9169 -23.15105,-13.96165 -0.0685,-14.11834 c -0.0377,-7.76509 0.0299,-14.21675 0.1502,-14.33703 0.34172,-0.34171 76.72385,-1.16482 77.05827,-0.8304 0.19218,0.19218 0.14884,1.31676 -0.14222,3.68989 -2.06526,16.83912 -8.98823,32.01359 -20.29834,44.49198 -3.44793,3.80408 -9.33874,9.0838 -10.09036,9.04362 -0.16884,-0.009 -10.72494,-6.29916 -23.45801,-13.97807 z"
           id="path235" />
        <path
           inkscape:connector-curvature="0"
           style="fill:#48bcda;stroke-width:0.26458332"
           d="m -510.81858,186.56536 c -30.7085,-0.38352 -38.11952,-0.54265 -38.30803,-0.82256 -0.12856,-0.19088 -0.16181,-1.95439 -0.0739,-3.91892 0.88526,-19.78511 7.8024,-36.78255 20.89319,-51.34071 2.85671,-3.17692 4.31775,-4.49833 4.94384,-4.47137 0.19161,0.008 11.89744,7.54712 26.01296,16.75305 l 25.66458,16.73806 0.0686,13.44553 c 0.0688,13.48018 0.0244,14.23652 -0.82859,14.12977 -0.16409,-0.0205 -17.43177,-0.25132 -38.37264,-0.51285 z"
           id="path233" />
        <path
           inkscape:connector-curvature="0"
           style="fill:#48bcda;stroke-width:0.26458332"
           d="m -467.61353,186.83385 c -0.14109,-0.0875 -0.21242,-5.77776 -0.17224,-13.74017 l 0.0686,-13.59077 25.66459,-16.73806 c 14.11552,-9.20593 25.82135,-16.7448 26.01296,-16.75305 0.62609,-0.027 2.08713,1.29445 4.94384,4.47137 13.09079,14.55816 20.00793,31.5556 20.89319,51.34071 0.0879,1.96453 0.0577,3.72317 -0.0672,3.90809 -0.22072,0.32685 -4.43199,0.39675 -71.18971,1.18175 -3.25225,0.0382 -6.02154,0.002 -6.15399,-0.0799 z"
           id="path231" />
        <path
           inkscape:connector-curvature="0"
           style="fill:#48bcda;stroke-width:0.26458332"
           d="m -473.15482,154.61635 c -0.64733,-0.41253 -10.46383,-6.8028 -21.81446,-14.2006 -11.35062,-7.3978 -21.79594,-14.20078 -23.21181,-15.11773 -1.67089,-1.08211 -2.52613,-1.79278 -2.43699,-2.02506 0.20888,-0.54434 5.53196,-4.46644 8.89867,-6.55663 8.00349,-4.96888 17.09296,-8.57949 26.26241,-10.43219 4.29055,-0.86692 9.66529,-1.49866 11.92263,-1.40138 l 1.84842,0.0797 0.0675,24.98854 c 0.0371,13.74369 -0.0285,25.08459 -0.14596,25.202 -0.1174,0.1174 -0.74309,-0.12408 -1.39042,-0.53661 z"
           id="path229" />
        <path
           inkscape:connector-curvature="0"
           style="fill:#48bcda;stroke-width:0.26458332"
           d="m -467.84949,130.09784 v -25.26771 h 2.05842 c 2.62413,0 7.75695,0.63055 11.84493,1.45511 9.15885,1.84738 18.25716,5.46112 26.26241,10.43109 3.36671,2.09019 8.68979,6.01229 8.89867,6.55663 0.0891,0.23228 -0.7661,0.94295 -2.43699,2.02506 -1.41587,0.91695 -11.86119,7.71993 -23.21181,15.11773 -23.90302,15.57885 -22.9267,14.9498 -23.20284,14.9498 -0.11703,0 -0.21279,-11.37047 -0.21279,-25.26771 z"
           id="path221" />
      </g>
    </g>
  </g>
</svg>
