<?xml version="1.0" encoding="UTF-8" standalone="no"?>
<!-- Created with Inkscape (http://www.inkscape.org/) -->

<svg
   xmlns:dc="http://purl.org/dc/elements/1.1/"
   xmlns:cc="http://creativecommons.org/ns#"
   xmlns:rdf="http://www.w3.org/1999/02/22-rdf-syntax-ns#"
   xmlns:svg="http://www.w3.org/2000/svg"
   xmlns="http://www.w3.org/2000/svg"
   xmlns:sodipodi="http://sodipodi.sourceforge.net/DTD/sodipodi-0.dtd"
   xmlns:inkscape="http://www.inkscape.org/namespaces/inkscape"
   width="100mm"
   height="100mm"
   viewBox="0 0 100 100"
   version="1.1"
   id="svg8"
   inkscape:version="0.92.3 (2405546, 2018-03-11)"
   sodipodi:docname="Transparent.svg">
  <defs
     id="defs2" />
  <sodipodi:namedview
     id="base"
     pagecolor="#ebebeb"
     bordercolor="#666666"
     borderopacity="1.0"
     inkscape:pageopacity="0"
     inkscape:pageshadow="2"
     inkscape:zoom="1"
     inkscape:cx="97.03328"
     inkscape:cy="193.23315"
     inkscape:document-units="mm"
     inkscape:current-layer="layer1"
     showgrid="false"
     inkscape:window-width="1920"
     inkscape:window-height="1017"
     inkscape:window-x="-8"
     inkscape:window-y="-8"
     inkscape:window-maximized="1"
     fit-margin-top="0"
     fit-margin-left="0"
     fit-margin-right="0"
     fit-margin-bottom="0" />
  <metadata
     id="metadata5">
    <rdf:RDF>
      <cc:Work
         rdf:about="">
        <dc:format>image/svg+xml</dc:format>
        <dc:type
           rdf:resource="http://purl.org/dc/dcmitype/StillImage" />
        <dc:title />
      </cc:Work>
    </rdf:RDF>
  </metadata>
  <g
     inkscape:label="svg"
     inkscape:groupmode="layer"
     id="layer1"
     style="display:inline"
     transform="translate(274.70366,-133.30423)">
    <g
       id="g2028"
       style="stroke:none;fill:none">
      <circle
         r="50"
         cy="183.30423"
         cx="-224.70366"
         id="path1439"
         style="fill:none;fill-opacity:1;stroke:none;stroke-width:0.13229166" />
      <g
         transform="matrix(0.44090806,0,0,0.43885185,-141.0846,118.41824)"
         id="g880"
         style="stroke:none;fill:none">
        <path
           inkscape:connector-curvature="0"
           style="fill:none;stroke-width:0.26458332;stroke:none"
           d="m -163.02024,196.46332 c 1.97843,-0.96796 3.93937,-3.09308 4.68929,-5.0819 0.82954,-2.19999 0.68995,-5.23584 -0.33728,-7.33544 -1.88529,-3.85339 -6.59298,-5.99611 -10.6456,-4.84539 -5.5529,1.57671 -8.4411,7.6056 -6.09672,12.7264 1.08255,2.3646 2.97599,4.05266 5.6769,5.06114 1.5962,0.59599 4.96004,0.33303 6.71341,-0.52481 z"
           id="path864" />
        <path
           inkscape:connector-curvature="0"
           style="fill:none;stroke-width:0.26458332;stroke:none"
           d="m -203.17683,187.94211 c 1.50799,-0.24445 3.44715,-1.30461 4.64614,-2.5401 2.39562,-2.46852 3.16803,-5.8215 2.12904,-9.24212 -0.50913,-1.67621 -0.80047,-2.14384 -2.21813,-3.56034 -2.21781,-2.21598 -3.91658,-2.86962 -7.05598,-2.71495 -1.74832,0.0861 -2.54345,0.26234 -3.57187,0.79156 -5.45367,2.80641 -6.80551,9.90497 -2.73456,14.35925 0.74969,0.82028 1.93672,1.7821 2.63784,2.13739 1.28224,0.64976 3.61114,1.16576 4.59463,1.018 0.29104,-0.0437 0.99884,-0.15564 1.57289,-0.24869 z"
           id="path862" />
        <path
           inkscape:connector-curvature="0"
           style="fill:none;stroke-width:0.26458332;stroke:none"
           d="m -142.38344,176.06647 c 1.72765,-0.81731 3.71012,-2.83099 4.52568,-4.59693 0.82628,-1.78918 0.82628,-5.73411 0,-7.52329 -0.86014,-1.86246 -2.738,-3.72035 -4.65288,-4.60338 -1.40575,-0.64824 -1.98182,-0.76082 -3.89845,-0.76187 -1.88602,-10e-4 -2.49219,0.11278 -3.75616,0.70526 -2.82593,1.32462 -4.69066,3.80906 -5.294,7.05335 -0.7817,4.20339 2.11871,8.86334 6.36812,10.23135 1.84174,0.59292 4.86929,0.36521 6.70769,-0.50449 z"
           id="path860" />
        <path
           inkscape:connector-curvature="0"
           style="fill:none;stroke-width:0.26458332;stroke:none"
           d="m -221.98409,155.83933 c 1.98742,-0.9784 3.39318,-2.42844 4.36632,-4.50385 0.58235,-1.24198 0.69722,-1.85839 0.69722,-3.74148 0,-2.01025 -0.0934,-2.44434 -0.86246,-4.00642 -1.00375,-2.03891 -2.43811,-3.43817 -4.52975,-4.41892 -1.24108,-0.58193 -1.85884,-0.69722 -3.73592,-0.69722 -1.87707,0 -2.49483,0.11529 -3.73592,0.69722 -2.09163,0.98075 -3.52599,2.38001 -4.52974,4.41892 -0.76902,1.56208 -0.86246,1.99617 -0.86246,4.00642 0,1.87574 0.11562,2.50104 0.68821,3.7218 2.29864,4.90076 7.7399,6.86914 12.5045,4.52353 z"
           id="path858" />
        <path
           inkscape:connector-curvature="0"
           style="fill:none;stroke-width:0.26458332;stroke:none"
           d="m -186.60764,154.32857 c 3.18996,-0.92063 5.66523,-3.48242 6.48453,-6.71118 1.04399,-4.11427 -0.99327,-8.46824 -4.91515,-10.50452 -1.30095,-0.67546 -1.72165,-0.75569 -3.96875,-0.75683 -2.21481,-0.001 -2.69164,0.0862 -4.01205,0.73462 -3.24069,1.59143 -5.0371,4.35375 -5.1996,7.99536 -0.1167,2.61507 0.51894,4.52749 2.10289,6.32696 2.46432,2.7996 6.07433,3.90659 9.50813,2.91559 z"
           id="path856" />
        <path
           inkscape:connector-curvature="0"
           style="fill:none;stroke-width:0.26458332;stroke:none"
           d="m -152.79933,139.25963 c 5.09704,-2.32483 7.07978,-8.70102 4.14922,-13.34332 -0.93919,-1.48778 -2.93034,-3.10404 -4.59923,-3.73331 -2.13679,-0.80568 -5.41236,-0.63921 -7.39014,0.3756 -1.77937,0.913 -3.28299,2.41662 -4.19599,4.19599 -1.01806,1.98412 -1.18148,5.2528 -0.3702,7.40457 1.02071,2.70723 3.66804,5.03265 6.55852,5.76101 1.57474,0.39681 4.1731,0.10331 5.84782,-0.66054 z"
           id="path854" />
        <path
           inkscape:connector-curvature="0"
           style="fill:none;stroke-width:0.26458332;stroke:none"
           d="m -182.73503,115.54195 c 2.11117,-0.78989 4.27748,-2.96928 5.08756,-5.1183 1.30687,-3.46688 0.54402,-7.3148 -1.94138,-9.79252 -2.11392,-2.107398 -3.4556,-2.640988 -6.64003,-2.640738 -2.38259,1.8e-4 -2.78494,0.0735 -4.04394,0.73664 -1.86511,0.98243 -3.39763,2.562568 -4.25129,4.383378 -0.59516,1.26945 -0.70061,1.85274 -0.70061,3.87561 0,2.02286 0.10545,2.60615 0.70061,3.87561 1.09245,2.33014 3.31123,4.2509 5.78168,5.0051 1.40294,0.4283 4.43236,0.26452 6.0074,-0.32478 z"
           id="path830" />
      </g>
    </g>
  </g>
</svg>
